<!-- Generated by IcoMoon.io -->
<svg version="1.1" xmlns="http://www.w3.org/2000/svg" width="400" height="400" viewBox="0 0 400 400">
<title>bl-icon-5</title>
<path fill="#28aae1" d="M260.64 186.4v38.56c0 6.4-26.56 20.48-59.36 20.48s-59.36-14-59.36-20.48v-38.56l59.36 19.28 59.36-19.28z"></path>
<path fill="#4d4e4e" d="M201.76 159.76l-0.88-4.88v-0.16c0.16 0 0.32 0 0.48 0 1.92 0 3.76 0.4 5.040 0.96 0.96 0.48 1.6 1.12 1.6 1.6s-0.64 1.12-1.68 1.6c-1.2 0.56-2.88 0.88-4.56 0.96v-0.080z"></path>
<path fill="#4d4e4e" d="M313.28 160.64l-111.92 36.4-67.84-22.080 67.84-12.56c2.32 0 4.48-0.48 6.16-1.28 1.92-0.96 3.040-2.32 3.040-3.84s-1.12-2.88-3.040-3.84c-3.28-1.6-8.8-1.6-12.16-0.080l-74.32 13.84-1.12 1.44c-0.32 0.32-0.56 0.72-0.88 1.6l-29.6-9.6 112-43.040 111.84 43.040z"></path>
<path fill="#28aae1" d="M194.96 161.040l-69.28 12.88c-0.32 1.84-0.8 6.56-0.8 17.68h-4.96c0-19.12 1.36-20.88 1.84-21.44l0.56-0.72 70-13.040c-0.080 0.24-0.16 0.56-0.16 0.88 0 1.52 0.96 2.8 2.8 3.76z"></path>
<path fill="#4d4e4e" d="M201.76 159.76l-0.72 0.16c-1.76 0-3.6-0.32-4.8-0.96-0.96-0.48-1.68-1.12-1.68-1.6s0.56-1.12 1.52-1.52l4.72-0.88 0.96 4.8z"></path>
<path fill="#28aae1" d="M208 157.36c0 0.48-0.64 1.12-1.68 1.6-2.64 1.28-7.52 1.28-10.16 0-0.96-0.48-1.68-1.12-1.68-1.6s0.64-1.12 1.68-1.6c1.28-0.64 3.2-0.96 5.040-0.96 1.92 0 3.76 0.4 5.040 0.96 1.12 0.48 1.76 1.040 1.76 1.6z"></path>
<path fill="#28aae1" d="M119.92 190.32l-7.92 58.96c0 0 2.24 2.8 8.88 2.8s9.92-3.040 9.92-3.040l-6-58.72h-4.88z"></path>
<path fill="#28aae1" d="M128.32 191.040c0 3.28-2.64 6-6 6-3.28 0-6-2.64-6-6 0-3.28 2.64-6 6-6 3.36 0.080 6 2.72 6 6z"></path>
</svg>
