<!-- Generated by IcoMoon.io -->
<svg version="1.1" xmlns="http://www.w3.org/2000/svg" width="400" height="400" viewBox="0 0 400 400">
<title>bl-icon-4</title>
<path fill="#4d4e4e" d="M198 104.96h33.2v-3.44h-33.2v3.44zM269.12 101.52h-12v3.44h12c4.64 0 8.4 3.76 8.4 8.4v62.24c1.12 0.32 2.32 0.72 3.44 1.12v-63.36c0-6.56-5.36-11.84-11.84-11.84zM100.24 243.12c-4.64 0-8.4-3.76-8.4-8.4v-121.36c0-4.64 3.76-8.4 8.4-8.4h12.8v-3.44h-12.8c-6.56 0-11.84 5.28-11.84 11.84v121.36c0 6.56 5.36 11.84 11.84 11.84h114.96c-0.48-1.12-0.88-2.24-1.28-3.44h-113.68zM138.96 104.96h33.2v-3.44h-33.2v3.44z"></path>
<path fill="#4d4e4e" d="M110.4 131.6h27.52v16.16h-27.52v-16.16z"></path>
<path fill="#4d4e4e" d="M150.72 131.6h27.52v16.16h-27.52v-16.16z"></path>
<path fill="#4d4e4e" d="M191.12 131.6h27.52v16.16h-27.52v-16.16z"></path>
<path fill="#4d4e4e" d="M231.44 131.6h27.52v16.16h-27.52v-16.16z"></path>
<path fill="#4d4e4e" d="M110.4 158.88h27.52v16.16h-27.52v-16.16z"></path>
<path fill="#4d4e4e" d="M150.72 158.88h27.52v16.16h-27.52v-16.16z"></path>
<path fill="#28aae1" d="M194.24 162h21.2v9.84h-21.2v-9.84zM191.12 175.040h27.52v-16.16h-27.52v16.16z"></path>
<path fill="#4d4e4e" d="M258.96 158.88v15.040c-2.48 0.16-4.88 0.56-7.28 1.12h-20.24v-16.16h27.52z"></path>
<path fill="#4d4e4e" d="M110.4 186.080h27.52v16.16h-27.52v-16.16z"></path>
<path fill="#4d4e4e" d="M150.72 186.080h27.52v16.16h-27.52v-16.16z"></path>
<path fill="#4d4e4e" d="M218.56 186.080v12.88c-0.64 1.040-1.28 2.16-1.84 3.28h-25.68v-16.16h27.52z"></path>
<path fill="#28aae1" d="M113.52 216.8h21.2v9.92h-21.2v-9.92zM110.4 229.84h27.52v-16.16h-27.52v16.16z"></path>
<path fill="#4d4e4e" d="M150.72 213.68h27.52v16.16h-27.52v-16.16z"></path>
<path fill="#4d4e4e" d="M211.040 226.080c0 1.28 0.080 2.56 0.16 3.76h-20.080v-16.16h21.44c-0.96 3.92-1.52 8.080-1.52 12.4z"></path>
<path fill="#4d4e4e" d="M279.2 113.36v4.56h-189.040v-4.56c0-5.6 4.56-10.16 10.16-10.16h12.8v1.68c0.080 4.56 3.84 8.24 8.4 8.24h9.12c4.56 0 8.32-3.68 8.4-8.24v-1.68h33.2v1.68c0.080 4.56 3.84 8.24 8.4 8.24h9.12c4.56 0 8.32-3.68 8.4-8.24v-1.68h33.2v1.68c0.080 4.56 3.84 8.24 8.4 8.24h9.12c4.56 0 8.32-3.68 8.4-8.24v-1.68h12c5.44 0 9.92 4.56 9.92 10.16z"></path>
<path fill="#28aae1" d="M130.56 109.92h-9.12c-2.8 0-5.12-2.24-5.12-5.12v-8.64c0-2.8 2.24-5.12 5.12-5.12h9.12c2.8 0 5.12 2.24 5.12 5.12v8.64c-0.080 2.8-2.32 5.12-5.12 5.12z"></path>
<path fill="#28aae1" d="M248.72 109.92h-9.12c-2.8 0-5.12-2.24-5.12-5.12v-8.64c0-2.8 2.24-5.12 5.12-5.12h9.12c2.8 0 5.12 2.24 5.12 5.12v8.64c0 2.8-2.24 5.12-5.12 5.12z"></path>
<path fill="#28aae1" d="M189.68 109.92h-9.12c-2.8 0-5.12-2.24-5.12-5.12v-8.64c0-2.8 2.24-5.12 5.12-5.12h9.12c2.8 0 5.12 2.24 5.12 5.12v8.64c-0.080 2.8-2.32 5.12-5.12 5.12z"></path>
<path fill="#28aae1" d="M263.44 179.040c-25.92 0-46.96 21.040-46.96 46.96s21.040 46.96 46.96 46.96c25.92 0 46.96-21.040 46.96-46.96s-21.040-46.96-46.96-46.96zM263.44 268.88c-23.6 0-42.8-19.12-42.8-42.8 0-23.6 19.12-42.8 42.8-42.8 23.6 0 42.8 19.12 42.8 42.8-0.080 23.6-19.2 42.8-42.8 42.8z"></path>
<path fill="#28aae1" d="M263.36 193.2c-1.84-0.080-3.28-1.6-3.2-3.44s1.52-3.2 3.36-3.2c0.96 0 1.84 0.4 2.4 1.040 0.64 0.64 0.96 1.52 0.88 2.4-0.080 1.84-1.52 3.2-3.36 3.2h-0.080z"></path>
<path fill="#28aae1" d="M265.68 189.92c0 1.2-1.040 2.16-2.24 2.16s-2.16-1.040-2.16-2.24c0-1.2 1.040-2.16 2.24-2.16s2.16 1.040 2.16 2.24z"></path>
<path fill="#28aae1" d="M245.28 197.12c-0.88 0-1.68-0.56-2.080-1.28-0.32-0.56-0.4-1.28-0.16-1.92 0.16-0.64 0.64-1.12 1.2-1.44 0.4-0.16 0.8-0.32 1.2-0.32 0.96 0 1.76 0.56 2.16 1.28 0.32 0.56 0.4 1.28 0.16 1.92-0.16 0.64-0.64 1.12-1.2 1.44-0.4 0.24-0.8 0.32-1.28 0.32v0z"></path>
<path fill="#28aae1" d="M245.28 196c-0.48 0-0.96-0.32-1.12-0.72-0.32-0.64-0.080-1.44 0.56-1.84 0.24-0.080 0.48-0.16 0.64-0.16 0.48 0 0.96 0.32 1.12 0.72 0.16 0.32 0.24 0.72 0.080 1.040-0.080 0.32-0.32 0.64-0.64 0.8-0.16 0.16-0.4 0.16-0.64 0.16z"></path>
<path fill="#28aae1" d="M232 210.4c-0.4 0-0.88-0.16-1.2-0.4-0.56-0.32-0.96-0.88-1.12-1.52s-0.080-1.28 0.32-1.84c0.48-0.72 1.28-1.2 2.080-1.2 0.48 0 0.96 0.16 1.28 0.4 0.56 0.32 0.96 0.88 1.12 1.52s0.080 1.28-0.32 1.84c-0.48 0.72-1.28 1.2-2.16 1.2v0z"></path>
<path fill="#28aae1" d="M232 209.28c-0.24 0-0.48-0.080-0.64-0.24-0.64-0.4-0.8-1.2-0.48-1.84 0.24-0.4 0.72-0.64 1.2-0.64 0.24 0 0.48 0.080 0.64 0.24 0.64 0.4 0.8 1.2 0.48 1.84-0.24 0.4-0.72 0.64-1.2 0.64z"></path>
<path fill="#28aae1" d="M227.12 229.36c-0.88 0-1.68-0.4-2.32-1.040s-0.96-1.52-0.88-2.4c0.080-1.84 1.52-3.2 3.36-3.2 1.92 0.080 3.36 1.6 3.36 3.44-0.080 1.84-1.52 3.2-3.36 3.2h-0.16z"></path>
<path fill="#28aae1" d="M227.28 223.84c1.2 0 2.16 1.040 2.16 2.24s-1.040 2.16-2.24 2.16c-1.2 0-2.16-1.040-2.16-2.24 0-1.28 0.96-2.24 2.24-2.16z"></path>
<path fill="#28aae1" d="M232 246.64c-0.88 0-1.68-0.48-2.080-1.28-0.64-1.2-0.16-2.72 1.040-3.36 0.32-0.16 0.8-0.32 1.2-0.32 0.96 0 1.76 0.56 2.16 1.28 0.64 1.2 0.16 2.72-1.040 3.36-0.4 0.16-0.8 0.32-1.28 0.32v0z"></path>
<path fill="#28aae1" d="M232 245.52c-0.48 0-0.96-0.32-1.12-0.72-0.32-0.64-0.080-1.44 0.56-1.84 0.24-0.080 0.48-0.16 0.64-0.16 0.48 0 0.96 0.32 1.12 0.72 0.32 0.64 0.080 1.44-0.56 1.84-0.16 0.080-0.4 0.16-0.64 0.16z"></path>
<path fill="#28aae1" d="M245.2 259.84c-0.4 0-0.88-0.16-1.2-0.4-0.56-0.32-0.96-0.88-1.12-1.52s-0.080-1.28 0.32-1.84c0.48-0.72 1.28-1.2 2.080-1.2 0.48 0 0.96 0.16 1.28 0.4 0.56 0.32 0.96 0.88 1.12 1.52s0.080 1.28-0.32 1.84c-0.4 0.8-1.2 1.2-2.16 1.2v0z"></path>
<path fill="#28aae1" d="M245.2 258.72c-0.24 0-0.48-0.080-0.64-0.24-0.64-0.4-0.8-1.2-0.48-1.84 0.24-0.4 0.72-0.64 1.2-0.64 0.24 0 0.48 0.080 0.64 0.24 0.64 0.4 0.8 1.2 0.48 1.84-0.24 0.48-0.72 0.72-1.2 0.64z"></path>
<path fill="#28aae1" d="M263.28 265.6c-1.84-0.080-3.28-1.6-3.2-3.44s1.52-3.2 3.36-3.2c1.92 0.080 3.36 1.6 3.36 3.44-0.080 1.84-1.52 3.2-3.36 3.2h-0.16z"></path>
<path fill="#28aae1" d="M261.2 262.24c0-1.2 1.040-2.16 2.24-2.16s2.16 1.040 2.16 2.24c0 1.2-1.040 2.16-2.24 2.16-1.28 0-2.24-1.040-2.16-2.24z"></path>
<path fill="#28aae1" d="M281.44 259.92c-0.88 0-1.68-0.56-2.080-1.28-0.32-0.56-0.4-1.28-0.16-1.92 0.16-0.64 0.64-1.12 1.2-1.44 0.4-0.16 0.8-0.32 1.2-0.32 0.96 0 1.76 0.56 2.16 1.28 0.64 1.2 0.16 2.72-0.96 3.36-0.4 0.16-0.8 0.32-1.2 0.32h-0.16z"></path>
<path fill="#28aae1" d="M281.44 258.8c-0.48 0-0.96-0.32-1.12-0.72-0.32-0.64-0.080-1.44 0.56-1.84 0.24-0.080 0.48-0.16 0.64-0.16 0.48 0 0.96 0.32 1.12 0.72 0.32 0.64 0.080 1.44-0.56 1.84-0.16 0.080-0.4 0.16-0.64 0.16z"></path>
<path fill="#28aae1" d="M294.72 246.64c-0.4 0-0.88-0.16-1.2-0.4-0.56-0.32-0.96-0.88-1.12-1.52s-0.080-1.28 0.32-1.84c0.48-0.72 1.28-1.2 2.080-1.2 0.48 0 0.96 0.16 1.28 0.4 0.56 0.32 0.96 0.88 1.12 1.52s0.080 1.28-0.32 1.84c-0.48 0.8-1.28 1.2-2.16 1.2v0z"></path>
<path fill="#28aae1" d="M294.72 245.52c-0.24 0-0.48-0.080-0.64-0.24-0.32-0.16-0.56-0.48-0.64-0.8s0-0.72 0.16-1.040c0.24-0.4 0.72-0.64 1.2-0.64 0.24 0 0.48 0.080 0.64 0.24 0.32 0.16 0.56 0.48 0.64 0.8s0 0.72-0.16 1.040c-0.24 0.4-0.72 0.64-1.2 0.64z"></path>
<path fill="#28aae1" d="M299.52 229.44c-1.84-0.080-3.28-1.6-3.2-3.44s1.52-3.2 3.36-3.2c1.92 0.080 3.36 1.6 3.36 3.44-0.080 1.84-1.52 3.28-3.36 3.28h-0.16z"></path>
<path fill="#28aae1" d="M299.6 228.32c-1.2 0-2.16-1.040-2.16-2.24s1.040-2.16 2.24-2.16c1.2 0 2.16 1.040 2.16 2.24s-1.040 2.16-2.24 2.16z"></path>
<path fill="#28aae1" d="M294.72 210.48c-0.88 0-1.68-0.56-2.080-1.28-0.64-1.2-0.16-2.72 1.040-3.36 0.32-0.16 0.8-0.32 1.2-0.32 0.96 0 1.76 0.56 2.16 1.28 0.32 0.56 0.4 1.28 0.16 1.92-0.16 0.64-0.64 1.12-1.2 1.44-0.4 0.16-0.8 0.32-1.28 0.32v0z"></path>
<path fill="#28aae1" d="M294.72 209.36c-0.48 0-0.96-0.32-1.12-0.72-0.32-0.64-0.080-1.44 0.56-1.84 0.24-0.080 0.48-0.16 0.64-0.16 0.48 0 0.96 0.32 1.12 0.72 0.32 0.64 0.080 1.44-0.56 1.84-0.16 0.080-0.4 0.16-0.64 0.16z"></path>
<path fill="#28aae1" d="M281.44 197.2c-0.48 0-0.88-0.16-1.2-0.4-0.56-0.32-0.96-0.88-1.12-1.52s-0.080-1.28 0.32-1.84c0.48-0.72 1.28-1.2 2.080-1.2 0.48 0 0.96 0.16 1.28 0.4 0.56 0.32 0.96 0.88 1.12 1.52s0.080 1.28-0.32 1.84c-0.4 0.72-1.2 1.2-2.16 1.2v0z"></path>
<path fill="#28aae1" d="M281.52 196.080c-0.24 0-0.48-0.080-0.64-0.24-0.32-0.16-0.56-0.48-0.64-0.8s0-0.72 0.16-1.040c0.24-0.4 0.72-0.64 1.2-0.64 0.24 0 0.48 0.080 0.64 0.24 0.32 0.16 0.56 0.48 0.64 0.8s0 0.72-0.16 1.040c-0.32 0.4-0.72 0.64-1.2 0.64z"></path>
<path fill="#28aae1" d="M261.44 229.84l-20.64 10.96 18.32-14.16c0.24 1.36 1.12 2.56 2.32 3.2z"></path>
<path fill="#28aae1" d="M264.64 222c-0.4-0.16-0.8-0.16-1.2-0.16-1.040 0-1.92 0.32-2.64 0.88l-2.8-28.080 6.64 27.36z"></path>
<path fill="#28aae1" d="M291.12 252.4l-25.2-22.88c0.48-0.32 0.8-0.72 1.12-1.2l24.080 24.080z"></path>
<path fill="#28aae1" d="M266.080 226.080c0 1.44-1.2 2.64-2.64 2.64s-2.64-1.2-2.64-2.64c0-1.44 1.2-2.64 2.64-2.64 1.44-0.080 2.64 1.12 2.64 2.64z"></path>
</svg>
