<!-- Generated by IcoMoon.io -->
<svg version="1.1" xmlns="http://www.w3.org/2000/svg" width="400" height="400" viewBox="0 0 400 400">
<title>bl-icon-1</title>
<path fill="#4d4e4e" d="M313.6 314.16l-0.16-0.64c-0.16-0.64-0.4-1.68-0.56-2.88l-0.24-1.28c0-0.16 0-0.32 0-0.48l-0.48-2.88c-0.24-1.44-0.4-2.64-0.56-3.44-0.24-1.44-0.96-7.76-1.52-13.28l-0.24-2.4c-0.24-2.56-0.56-4.96-0.72-6.8-0.24-2-0.32-3.76-0.4-5.36-0.16-3.36-0.32-6.32-1.92-9.28-1.28-2.4-1.28-2.4-1.44-3.84-0.080-0.8-0.24-2-0.56-3.84-1.12-6.4-4.72-14.16-6.24-17.12-0.4-0.72-0.96-1.52-1.84-2.16-0.16-0.16-0.32-0.32-0.56-0.4l-0.16-0.16c-0.16-0.16-0.4-0.32-0.56-0.4-0.16-0.16-0.4-0.32-0.72-0.48-0.24-0.16-0.48-0.32-0.72-0.4-0.4-0.24-0.8-0.48-1.28-0.64l-0.24-0.16c-0.48-0.24-0.88-0.48-1.36-0.72l-0.32-0.16c-0.4-0.16-0.8-0.4-1.2-0.56l-0.64-0.24c-0.72-0.32-1.44-0.56-2.080-0.8l-1.92-0.72c-3.44-1.28-10-4.8-11.68-5.92-0.16-0.080-0.4-0.24-0.72-0.4l-0.32-0.16c-0.24-0.080-0.48-0.24-0.8-0.32l-3.36-1.36c-0.16-0.080-0.32-0.16-0.4-0.16l-1.36-0.56c-0.16-0.080-0.32-0.16-0.56-0.24l-3.68-1.36c-0.16-0.080-0.32-0.16-0.56-0.16l-3.92-1.52-0.4-0.16-5.6-2.32c-0.48-0.24-0.96-0.48-1.28-0.64-0.080-0.080-0.24-0.16-0.32-0.24l-0.4-0.24c-0.080-0.080-0.24-0.16-0.48-0.24-0.4-0.16-0.8-0.4-1.2-0.56-0.16-0.080-0.4-0.16-0.48-0.24-0.48-0.16-0.88-0.4-1.44-0.64l-0.56-0.24c-0.080 0-0.16-0.080-0.24-0.080l-1.040-0.4-0.4-0.16c-1.92-0.72-3.76-1.28-5.040-1.68l-1.2-0.16c-0.080 0-0.24 0-0.32 0h-0.32c-0.16 0-0.4 0.080-0.48 0.080-0.16 0-0.32 0.080-0.24 0.080l-0.32 0.16c-0.16 0.080-0.32 0.16-0.24 0.16l-0.48 0.32c-0.080 0.080-0.080 0.080-0.16 0.16-0.8-0.56-1.52-1.12-2.24-1.6-0.080-0.080-0.16-0.080-0.24-0.16-0.16-0.16-0.32-0.24-0.48-0.4s-0.32-0.32-0.48-0.4c-3.2-2.8-5.44-5.76-6.16-8.8 0-0.080-0.080-0.16-0.080-0.24 0.96-1.76 1.76-3.44 2.24-4.56l0.16-0.4c2.56-6.72 5.2-14 7.68-22.24l4.72-4.8c0.48-0.56 11.92-13.68 7.040-24.4-1.12-2.48-2.8-4.16-4.88-5.12 0.16-2 0.24-4.080 0.24-6 0-5.36-0.64-10.080-1.68-14.48-1.92 1.36-5.6 2.64-10.56 3.68 3.2 3.84 5.36 8.8 7.36 10.4 0.48 0.4 0.88 1.36 1.040 2.56-0.080 1.6-0.16 3.2-0.24 4.88v0c0 0.16 0 0.32-0.080 0.48-0.8 9.12-2.96 19.6-6.4 31.2-2.48 8.32-5.2 15.68-7.76 22.48l-0.080 0.24c-0.080 0.080-0.080 0.24-0.16 0.4-0.48 1.12-1.36 3.040-2.48 4.8-0.56 0.96-1.2 1.84-1.84 2.56-1.36 1.44-3.2 3.040-5.040 4.64-1.92 1.68-3.76 3.28-4.96 4.64-1.6 1.92-5.36 3.84-9.52 3.84-0.24 0-0.4 0-0.72 0-0.24 0-0.56 0-0.8-0.080-3.76-0.4-6.72-2.16-8-3.76-1.12-1.36-2.96-2.96-4.96-4.64-1.84-1.52-3.68-3.2-5.040-4.64-0.72-0.72-1.28-1.68-1.92-2.56-1.36-2.24-2.4-4.56-2.64-5.2l-0.080-0.24c0-0.080-0.080-0.16-0.080-0.24-2.48-6.72-5.2-14.16-7.76-22.56-1.44-4.72-2.56-9.2-3.52-13.6 0.24-3.44 0-8 0-8-0.56-14.88 3.28-14.64 3.040-22s2.64-6.64 14.32 0.080c6.48 3.68 14.88 0.56 22.64-3.2-1.52 0-2.96 0.080-4.56 0.080-20 0-36.72-2.72-41.12-6.4-0.56 2.48-0.8 5.040-0.96 7.44-0.4 4.080-0.48 8.56-0.16 13.36-2 0.96-3.6 2.64-4.72 5.040-4.88 10.72 6.56 23.84 7.12 24.48l4.32 4.32c2.56 8.4 5.2 15.84 7.76 22.56l0.16 0.48c0.32 0.8 1.12 2.56 2.24 4.48 0 0.080 0 0.24-0.080 0.32-0.72 2.96-2.8 5.76-5.84 8.48-0.080 0.080-0.24 0.16-0.32 0.32-0.16 0.16-0.32 0.32-0.48 0.48s-0.32 0.24-0.48 0.4c-1.040 0.8-2.16 1.6-3.36 2.4-0.4-0.56-0.88-1.040-1.36-1.28l-0.4-0.16c-0.24-0.080-0.48-0.16-0.72-0.16-0.16 0-0.24 0-0.48 0h-0.4c-0.16 0-0.32 0-0.4 0.080l-0.96 0.24-1.52 0.48c-0.4 0.16-0.88 0.32-1.36 0.48l-1.2 0.48c-0.080 0-0.24 0.080-0.32 0.16h-0.080c-0.16 0.080-0.32 0.080-0.4 0.16l-1.36 0.48c-0.56 0.24-1.12 0.48-1.68 0.72l-1.52 0.72c-0.24 0.080-0.4 0.24-0.64 0.32l-0.8 0.48-0.24 0.16-0.32 0.16-0.24 0.16-0.4 0.16-1.2 0.56c-0.16 0.080-0.4 0.16-0.48 0.24l-1.040 0.4c-0.8 0.32-1.68 0.72-2.64 1.040l-1.12 0.48c-0.080 0-0.24 0.080-0.48 0.16l-2.8 1.12h-0.080l-1.12 0.4-0.8 0.32c-0.24 0.080-0.48 0.16-0.64 0.24s-0.32 0.080-0.48 0.16l-2.8 1.040-0.64 0.16c-3.2 1.2-6.16 2.72-9.12 4.4-2.56 1.36-5.36 2.56-8.080 3.68-3.040 1.28-6.080 2.56-9.040 4.16-0.24 0.16-0.56 0.32-0.8 0.48l-0.24 0.16c-0.32 0.24-0.64 0.4-0.96 0.64-0.16 0.080-0.32 0.24-0.32 0.24l-0.48 0.4c-0.88 0.72-1.44 1.44-1.84 2.16-1.36 2.8-4.8 9.92-6.080 16.16l-0.16 0.96c-0.32 1.84-0.48 3.040-0.56 3.84-0.16 1.52-0.16 1.52-1.44 3.92-1.6 2.96-1.76 5.92-1.92 9.28-0.080 1.6-0.16 3.36-0.4 5.36-0.32 2.48-0.64 6-1.040 9.52-0.56 5.36-1.2 11.44-1.44 12.88-0.16 0.88-0.4 2.32-0.64 3.92l-0.64 4.080c-0.080 0.4-0.16 0.8-0.24 1.2l-0.16 0.72c-0.080 0.4-0.16 0.8-0.24 1.040-0.32 1.12-0.72 2.56-0.48 4.080 0.32 1.92 1.68 3.52 4 4.56 0.16 0.080 0.32 0.16 0.4 0.16v22.4h36.080v-11.12c0.32 0 0.56 0.080 0.72 0.080l1.040 0.080c0 0 0.080 0 0.080 0l0.16 1.2 0.080 0.4 0.24 1.6c0 0.080 0 0.24 0.080 0.56l0.16 0.88 0.080 0.48 0.16 0.8 0.24 1.12 0.080 0.32c0.080 0.32 0.16 0.56 0.24 0.88l0.64 2h140.48l0.64-2.080c0.080-0.32 0.16-0.72 0.24-0.96l0.32-1.44c0.080-0.4 0.16-0.8 0.24-1.12l0.4-2.16c0.080-0.56 0.16-1.12 0.24-1.6l0.080-0.8c0 0 0 0 0-0.080 0 0 0.080 0 0.080 0h0.88l0.64-0.080c0.24 0 0.56-0.080 0.88-0.080v11.040h36.080v-22.48c0.88-0.4 1.6-0.88 2.24-1.44 0.24-0.24 0.48-0.48 0.64-0.72 0.080-0.16 0.16-0.24 0.32-0.4 0.080-0.16 0.24-0.32 0.32-0.56 0.080-0.080 0.080-0.24 0.16-0.4 0.080-0.24 0.16-0.48 0.24-0.88l0.080-0.4c-0.24-1.2-0.48-2.32-0.72-3.28zM237.68 166.080c0.24-0.8 0.4-1.6 0.56-2.4 0.48-1.84 0.88-3.6 1.2-5.28 0.16-0.8 0.32-1.52 0.48-2.32 0.48-2.24 0.88-4.48 1.2-6.64 0.080-0.56 0.16-1.12 0.24-1.68 0.16-1.12 0.32-2.24 0.4-3.36 0.72 0.64 1.28 1.44 1.76 2.48 3.44 7.52-4.32 17.76-6.080 19.84 0.080-0.16 0.16-0.4 0.24-0.64zM156.4 146.88c0.4-0.96 0.96-1.68 1.52-2.32 0.16 1.2 0.32 2.4 0.48 3.68 0.080 0.32 0.080 0.64 0.16 0.96 0.32 2.24 0.72 4.64 1.2 7.040 0.080 0.48 0.16 0.96 0.32 1.36 0.48 2.16 0.96 4.4 1.52 6.64 0.080 0.32 0.16 0.72 0.24 1.040s0.16 0.64 0.24 0.96c-2.16-2.8-8.88-12.24-5.68-19.36zM121.2 340.96h-28.4v-16.96c0.16 0.080 0.4 0.16 0.56 0.24l11.6 4.4c2.080 0.8 3.92 1.44 5.2 2l2.080 0.72c0.080 0 0.16 0.080 0.48 0.16l2.72 0.64 0.8 0.16 0.32 0.080 0.8 0.16c0.72 0.16 1.44 0.24 2.32 0.4l1.52 0.24v7.76zM128.8 333.6v0 0 0zM129.12 336.56v0zM233.040 217.76l-0.16 0.4c-0.16 0.4-0.4 0.88-0.64 1.44l-0.56 0.96c-0.080 0.16-0.24 0.32-0.4 0.72-0.32 0.48-0.64 1.040-1.040 1.6-0.24 0.32-0.56 0.72-0.8 1.040-0.32 0.4-0.72 0.88-1.12 1.28-0.24 0.24-0.48 0.48-0.72 0.72-0.16 0.16-0.32 0.32-0.56 0.48-0.72 0.64-1.52 1.28-2.24 1.76-0.24 0.16-0.4 0.32-0.64 0.4l-0.64 0.4c-0.16 0.080-0.32 0.16-0.48 0.32-0.24 0.16-0.48 0.24-0.72 0.4l-0.24 0.16c-0.32 0.16-0.64 0.32-1.040 0.48-0.32 0.16-0.72 0.32-1.040 0.48-0.24 0.080-0.48 0.24-0.8 0.32l-0.32 0.16c-0.48 0.24-1.040 0.4-1.6 0.56-0.4 0.16-0.8 0.24-1.28 0.4l-1.76 0.48c-0.96 0.24-1.92 0.48-3.040 0.64l-1.36 0.24c-1.040 0.16-2.16 0.24-3.28 0.4l-1.040 0.080c-0.56 0-1.2 0.080-2 0.080-1.36 0.080-2.72 0.080-4.4 0-1.44 0-2.8 0.080-4.4 0-2.96-0.080-5.76-0.4-8.4-0.96-0.56-0.080-1.12-0.24-1.92-0.4-0.48-0.080-0.88-0.24-1.36-0.32-0.64-0.16-1.28-0.4-1.92-0.56-10.080-3.44-14.16-9.92-15.84-14.16 1.52-1.040 2.96-2 4.24-3.040 0.24-0.16 0.48-0.4 0.8-0.64l0.64-0.56 0.16-0.16c2.8-2.48 4.88-5.12 6.080-7.68 0.080 0.080 0.16 0.24 0.24 0.32 1.52 1.68 3.44 3.36 5.36 4.96 1.84 1.52 3.52 3.040 4.48 4.16 2.24 2.64 6.32 4.64 10.64 5.12 0.32 0 0.72 0.080 1.040 0.080 0.24 0 0.56 0 0.88 0 4.88 0 9.92-2.080 12.48-5.2 0.96-1.12 2.64-2.56 4.48-4.16 1.92-1.68 3.84-3.36 5.36-4.96 0.080-0.080 0.24-0.24 0.32-0.32 1.28 2.72 3.36 5.44 6.48 8.080l0.16 0.16c0.16 0.080 0.32 0.24 0.4 0.32l0.56 0.48c0.080 0.080 0.16 0.16 0.24 0.16 0.96 0.72 1.92 1.44 3.040 2.24-0.16 0.16-0.24 0.4-0.32 0.64zM243.36 216.32v0 0 0zM252.72 220.56c0 0 0 0 0 0v0 0zM268.72 339.36v0zM306.16 340.8h-28.4v-7.76l3.52-0.56 1.28-0.32c0.4-0.080 0.72-0.16 1.12-0.24l0.48-0.080 10.56-3.68 7.28-2.72 4-1.6v16.96z"></path>
<path fill="#28aae1" d="M199.84 106.8l-42.24-13.76v18.32c0 4.56 18.88 8.32 42.24 8.32s42.24-3.68 42.24-8.32v-18.32l-42.24 13.76z"></path>
<path fill="#28aae1" d="M200.16 74.080l-0.64-3.44v-0.080c0.080 0 0.24 0 0.32 0 1.36 0 2.64 0.24 3.6 0.72 0.72 0.32 1.12 0.8 1.12 1.12s-0.4 0.8-1.12 1.12c-0.88 0.4-2.080 0.64-3.28 0.64v-0.080z"></path>
<path fill="#28aae1" d="M279.52 74.64l-79.68 25.92-48.24-15.68 48.24-8.88c1.68 0 3.2-0.32 4.4-0.88 1.36-0.72 2.16-1.68 2.16-2.72 0-1.12-0.8-2.080-2.16-2.72-2.32-1.12-6.16-1.12-8.56-0.080l-53.040 9.84-0.8 1.040c-0.24 0.24-0.4 0.48-0.64 1.12l-21.040-6.88 79.68-30.56 79.68 30.48z"></path>
<path fill="#28aae1" d="M195.28 74.96l-49.28 9.2c-0.24 1.28-0.56 4.64-0.56 12.64h-3.52c0-13.68 0.96-14.88 1.28-15.28l0.4-0.48 49.76-9.28c-0.080 0.16-0.080 0.4-0.080 0.64 0.080 0.96 0.72 1.92 2 2.56z"></path>
<path fill="#28aae1" d="M200.24 74.080v0l-0.48 0.080c-1.28 0-2.56-0.24-3.44-0.72-0.72-0.32-1.2-0.8-1.2-1.12s0.48-0.8 1.12-1.12c0 0 0 0 0 0l3.28-0.64 0.72 3.52z"></path>
<path fill="#28aae1" d="M204.64 72.32c0 0.32-0.4 0.8-1.12 1.12-0.88 0.4-2.080 0.64-3.28 0.64-0.16 0-0.32 0-0.48 0-1.28 0-2.56-0.24-3.44-0.72-0.72-0.32-1.2-0.8-1.2-1.12s0.48-0.8 1.12-1.12c0 0 0 0 0 0 0.88-0.4 2-0.64 3.28-0.72 0.080 0 0.24 0 0.32 0 1.36 0 2.64 0.24 3.6 0.72 0.8 0.4 1.2 0.88 1.2 1.2z"></path>
<path fill="#28aae1" d="M141.92 95.76l-5.6 41.92c0 0 1.6 2 6.32 2s7.040-2.16 7.040-2.16l-4.24-41.76h-3.52z"></path>
<path fill="#28aae1" d="M148 96.32c0 2.32-1.92 4.24-4.24 4.24s-4.24-1.92-4.24-4.24c0-2.32 1.92-4.24 4.24-4.24s4.24 1.92 4.24 4.24z"></path>
</svg>
