<!-- Generated by IcoMoon.io -->
<svg version="1.1" xmlns="http://www.w3.org/2000/svg" width="400" height="400" viewBox="0 0 400 400">
<title>bl-icon-3</title>
<path fill="#4d4e4e" d="M258.56 144.080v-46.8h-153.76v90.16h153.84v-22.16c-0.56-0.24-1.12-0.56-1.6-0.96l-3.040-2.24v20.72h-144.56v-80.88h144.48v38.72l4.64 3.44z"></path>
<path fill="#4d4e4e" d="M98.4 182.8h166.56v6.96h-166.56v-6.96z"></path>
<path fill="#4d4e4e" d="M244.080 135.44c1.84 0 3.6 0.56 5.12 1.68l2.080 1.52v-34.080h-139.2v75.52h139.2v-20.080l-12.32-9.12c-3.84-2.8-4.64-8.24-1.84-12 1.68-2.16 4.24-3.44 6.96-3.44zM143.28 141.52c-0.080 0.64-0.24 1.52-0.72 2.32-0.56 0.8-1.28 1.28-2 1.68-1.52 0.88-3.12 1.76-5.040 2-0.32 0-0.56 0.080-0.88 0.080-1.6 0-3.12-0.56-4.24-1.52-0.48-0.4-0.72-1.040-0.64-1.68s0.4-1.2 0.96-1.52l0.64-0.4c0.72-0.48 1.68-0.24 2.16 0.4 0.32 0.48 0.32 1.040 0.080 1.52 0.48 0.16 1.040 0.16 1.6 0.16 1.28-0.16 2.56-0.88 3.76-1.6 0.4-0.24 0.8-0.48 0.96-0.8 0.16-0.24 0.24-0.64 0.24-0.96 0.16-1.52-0.080-3.12-0.64-4.56-0.32-0.72-0.56-0.88-0.64-0.88s-0.24-0.080-0.72 0c-0.88 0.16-1.84 0.4-2.56 0.88-0.64 0.4-1.44 0.32-2-0.16s-0.72-1.28-0.48-1.92c0.56-1.36 0.8-2.8 0.88-4.32 0-0.96-0.16-1.040-0.24-1.040-0.16-0.080-0.4-0.080-0.64 0.080-0.72 0.48-0.96 1.52-0.96 2.4-0.080 0.88-0.72 1.52-1.6 1.44s-1.52-0.8-1.44-1.6c0.16-2.88 1.44-4.24 2.48-4.88 1.12-0.72 2.56-0.72 3.68-0.16 1.92 1.040 1.92 3.12 1.84 3.84 0 0.88-0.080 1.76-0.24 2.64 0.32-0.080 0.72-0.16 1.040-0.16 0.56-0.080 1.44-0.16 2.24 0.24 1.44 0.56 2.080 2.080 2.24 2.56 0.8 1.68 1.12 3.84 0.88 5.92zM155.28 134.64c-0.96 0.48-1.84 0.88-2.8 1.2 0.16 1.2 0.24 2.32 0.32 3.52 0.080 0.88-0.64 1.6-1.44 1.6 0 0-0.080 0-0.080 0-0.8 0-1.52-0.64-1.52-1.44 0-0.88-0.080-1.68-0.16-2.56l-1.2 0.48c-0.16 0.080-0.4 0.080-0.56 0.080-0.64 0-1.2-0.4-1.44-0.96-0.32-0.8 0.080-1.68 0.88-2l1.84-0.64c-0.24-1.2-0.48-2.32-0.72-3.52-0.24-0.8 0.24-1.68 1.12-1.84 0.8-0.24 1.68 0.24 1.84 1.12 0.24 1.040 0.48 2.080 0.72 3.2 0.64-0.24 1.28-0.56 1.92-0.88 0.72-0.4 1.68-0.080 2.080 0.64 0.24 0.72-0.080 1.6-0.8 2zM172 142.24c-0.32 0.48-0.8 0.72-1.28 0.72-0.32 0-0.56-0.080-0.88-0.24-0.72-0.48-1.12-0.96-1.44-1.36-0.24-0.32-0.48-0.56-0.8-0.72-0.64-0.4-1.76-0.16-3.44 0.72l-1.2 0.64-0.96-1.12c-0.48-0.64-0.4-1.6 0.16-2.16 0.8-0.8 1.36-2 1.92-3.12 0.88-2.080 1.6-4.16 2.16-6.4 0.4-1.84 0.72-3.76 0.080-5.28-0.16-0.4-0.4-0.64-0.56-0.72-0.24-0.080-0.8 0-1.2 0.4-0.48 0.32-0.8 0.96-0.88 1.44 0 0.24 0 0.48 0.16 0.64 0.56 0.64 0.4 1.6-0.24 2.16s-1.6 0.4-2.16-0.24c-0.64-0.8-0.88-1.84-0.8-2.96 0.16-1.36 0.96-2.64 2.080-3.52 1.36-1.040 2.96-1.28 4.32-0.72 0.88 0.4 1.68 1.2 2.16 2.32 0.96 2.32 0.64 4.8 0.080 7.12-0.56 2.4-1.36 4.72-2.32 6.96-0.080 0.16-0.16 0.32-0.24 0.48 0.88-0.080 1.68 0.16 2.48 0.64 0.72 0.48 1.12 0.96 1.52 1.36 0.24 0.32 0.48 0.56 0.8 0.72 0.8 0.56 0.96 1.52 0.48 2.24zM174 128.8c-0.4-0.72-0.080-1.68 0.64-2.080 2.080-1.12 4.24-2.080 6.48-2.8 0.8-0.24 1.68 0.16 1.92 0.96s-0.16 1.68-0.96 1.92c-2.080 0.72-4.080 1.52-6 2.56-0.24 0.16-0.48 0.16-0.72 0.16-0.56 0.080-1.12-0.16-1.36-0.72zM182.080 133.12c-0.4 0.080-0.88 0.24-1.36 0.48l-3.84 1.84c-0.24 0.080-0.4 0.16-0.64 0.16-0.56 0-1.12-0.32-1.36-0.88-0.4-0.8-0.080-1.68 0.72-2.080l3.84-1.84c0.64-0.32 1.36-0.64 2.32-0.8 0.88-0.080 1.6 0.48 1.68 1.36 0.080 0.96-0.48 1.68-1.36 1.76z"></path>
<path fill="#28aae1" d="M277.84 115.76c0 6.16 4.96 11.12 11.12 11.12s11.12-4.96 11.12-11.12c0-6.16-4.96-11.12-11.12-11.12s-11.12 5.040-11.12 11.12z"></path>
<path fill="#28aae1" d="M300.72 131.28h-22.4c-8.88 0-10.16 3.6-13.28 9.76l-4.56 9.84-13.92-10.24c-1.92-1.44-4.56-1.040-6 0.88s-1.040 4.56 0.88 6l18 13.28c0.8 0.56 1.68 0.88 2.56 0.88 1.28 0 2.64-0.56 3.44-1.76 0.24-0.32 0.4-0.64 0.56-0.96l4.24-8.88c0.4-0.96 1.040-1.52 1.92-1.52s1.12 0.8 1.12 1.84v82.96c0 9.68 12.16 9.68 12.16 0v-39.44c0-1.44 0.8-2.64 1.76-2.64s1.76 1.2 1.76 2.64v39.44c0 9.68 12.16 9.68 12.16 0v-83.040c0-1.040 0.72-1.84 1.6-1.84s1.6 0.8 1.6 1.84v33.2c0 5.36 7.68 4.88 7.68 0v-41.2c0-6.080-5.12-11.040-11.28-11.040z"></path>
<path fill="#28aae1" d="M139.92 244.080v23.52h-7.6v-15.6c0-1.040-0.72-1.84-1.52-1.84-0.88 0-1.6 0.8-1.6 1.84v15.6h-27.52v-15.6c0-1.040-0.72-1.84-1.52-1.84-0.88 0-1.6 0.8-1.6 1.84v15.6h-7.6v-23.52c0-6 5.040-10.88 11.12-10.88h26.72c6.080 0 11.12 4.88 11.12 10.88z"></path>
<path fill="#28aae1" d="M126.4 217.68c0 6-4.88 10.88-10.88 10.88s-10.88-4.88-10.88-10.88c0-6 4.88-10.88 10.88-10.88s10.88 4.88 10.88 10.88z"></path>
<path fill="#28aae1" d="M206.4 244.080v23.52h-7.6v-15.6c0-1.040-0.72-1.84-1.6-1.84s-1.52 0.8-1.52 1.84v15.6h-27.52v-15.6c0-1.040-0.72-1.84-1.6-1.84s-1.52 0.8-1.52 1.84v15.6h-7.6v-23.52c0-6 5.040-10.88 11.040-10.88h26.72c6.080 0 11.2 4.88 11.2 10.88z"></path>
<path fill="#28aae1" d="M192.8 217.68c0 6-4.88 10.88-10.88 10.88s-10.88-4.88-10.88-10.88c0-6 4.88-10.88 10.88-10.88s10.88 4.88 10.88 10.88z"></path>
<path fill="#28aae1" d="M272.8 244.080v23.52h-7.6v-15.6c0-1.040-0.72-1.84-1.52-1.84-0.88 0-1.6 0.8-1.6 1.84v15.6h-27.52v-15.6c0-1.040-0.72-1.84-1.52-1.84-0.88 0-1.6 0.8-1.6 1.84v15.6h-7.6v-23.52c0-6 5.040-10.88 11.12-10.88h26.72c6.080 0 11.12 4.88 11.12 10.88z"></path>
<path fill="#28aae1" d="M259.28 217.68c0 6-4.88 10.88-10.88 10.88s-10.88-4.88-10.88-10.88c0-6 4.88-10.88 10.88-10.88s10.88 4.88 10.88 10.88z"></path>
<path fill="#28aae1" d="M81.92 271.44h200v4.32h-200v-4.32z"></path>
</svg>
