<!-- Generated by IcoMoon.io -->
<svg version="1.1" xmlns="http://www.w3.org/2000/svg" width="400" height="400" viewBox="0 0 400 400">
<title>bl-icon-2</title>
<path fill="#4d4e4e" d="M92.16 243.2h212.56v-124.64h-212.56v124.64zM98.56 125.040h199.76v111.76h-199.76v-111.76z"></path>
<path fill="#4d4e4e" d="M83.36 236.72h230.16v9.68h-230.16v-9.68z"></path>
<path fill="#28aae1" d="M102.24 233.040h192.4v-104.4h-192.4v104.4zM164.080 199.28c-0.080 1.040-0.32 2.32-1.12 3.44-0.8 1.2-1.92 1.92-3.040 2.56-2.48 1.52-5.2 2.96-8.24 3.28-0.48 0.080-0.88 0.080-1.36 0.080-2.48 0-4.88-0.8-6.48-2.32-0.48-0.48-0.8-1.12-0.72-1.84s0.4-1.36 1.040-1.76l1.12-0.72c0.64-0.4 1.52-0.24 1.92 0.4s0.24 1.52-0.4 1.92l-0.56 0.4c1.36 0.96 3.28 1.36 5.2 1.12 2.56-0.32 4.96-1.6 7.12-2.96 0.88-0.56 1.68-1.040 2.16-1.76 0.4-0.64 0.56-1.52 0.64-2.24 0.32-2.96-0.080-5.92-1.28-8.72-0.56-1.28-1.12-2-1.76-2.24-0.56-0.24-1.28-0.16-1.92-0.080-1.76 0.24-3.52 0.8-5.040 1.68-0.64 0.4-1.44 0.32-2-0.16s-0.72-1.28-0.48-1.92c0.96-2.56 1.52-5.28 1.6-8 0-1.76-0.24-2.56-1.12-3.040-0.72-0.4-1.6-0.32-2.4 0.16-1.44 0.88-2.24 2.64-2.4 5.28 0 0.72-0.72 1.36-1.44 1.28-0.8 0-1.36-0.72-1.28-1.44 0.16-3.52 1.44-6.16 3.68-7.52 1.6-0.96 3.52-1.040 5.12-0.24 2.64 1.44 2.56 4.32 2.56 5.52 0 2.24-0.4 4.48-0.96 6.56 1.2-0.48 2.48-0.8 3.76-0.96 0.96-0.16 2.16-0.16 3.28 0.32 1.84 0.72 2.72 2.48 3.28 3.76 1.44 3.28 1.92 6.8 1.52 10.16zM185.76 186.32c-1.92 0.96-3.84 1.68-5.76 2.4 0.32 2.32 0.56 4.72 0.64 7.040 0 0.72-0.56 1.44-1.28 1.44 0 0-0.080 0-0.080 0-0.72 0-1.36-0.56-1.36-1.28-0.080-2.080-0.32-4.16-0.56-6.16l-3.6 1.36c-0.16 0.080-0.32 0.080-0.48 0.080-0.56 0-1.12-0.32-1.28-0.88-0.24-0.72 0.080-1.52 0.8-1.76l4.16-1.6c-0.4-2.48-0.88-4.88-1.52-7.28-0.16-0.72 0.24-1.52 0.96-1.68s1.52 0.24 1.68 0.96c0.64 2.32 1.12 4.64 1.52 7.040 1.68-0.64 3.36-1.28 4.96-2.080 0.64-0.32 1.52-0.080 1.84 0.64 0.24 0.56 0 1.36-0.64 1.76zM214.56 200.080c-0.24 0.4-0.72 0.64-1.12 0.64-0.24 0-0.56-0.080-0.8-0.24-1.040-0.72-1.68-1.44-2.24-2.080-0.48-0.64-0.96-1.12-1.68-1.6-1.52-0.96-3.92-0.56-7.28 1.28-0.72 0.4-1.52 0.16-2-0.48s-0.4-1.52 0.16-2.080c1.6-1.6 2.64-3.76 3.6-5.84 1.6-3.68 2.88-7.52 3.76-11.36 0.8-3.44 1.36-7.040 0.080-10-0.32-0.72-0.8-1.6-1.68-2-1.12-0.48-2.56 0.080-3.44 0.8-1.040 0.8-1.92 2.16-2.080 3.44-0.080 0.8 0.080 1.52 0.48 2.080 0.48 0.56 0.4 1.44-0.24 1.92-0.56 0.48-1.44 0.4-1.92-0.24-0.88-1.12-1.28-2.56-1.12-4.16 0.24-2 1.44-4 3.12-5.28 2-1.52 4.32-1.92 6.16-1.040 1.28 0.56 2.32 1.76 3.040 3.44 1.52 3.68 0.96 7.76 0 11.68-0.96 4.080-2.24 8.080-3.92 11.92-0.48 1.040-0.96 2.080-1.52 3.040 2-0.56 4.080-0.64 6 0.56 1.12 0.72 1.76 1.44 2.32 2.16 0.48 0.56 0.88 1.12 1.6 1.6 0.96 0.32 1.2 1.2 0.72 1.84zM220.24 176.72c-0.32-0.64-0.080-1.52 0.56-1.84 3.52-1.92 7.28-3.52 11.12-4.8 0.72-0.24 1.52 0.16 1.76 0.88s-0.16 1.52-0.88 1.76c-3.68 1.2-7.28 2.8-10.64 4.56-0.24 0.080-0.4 0.16-0.64 0.16-0.56 0-1.040-0.24-1.28-0.72zM233.12 183.6c-0.88 0.080-1.84 0.56-2.72 0.96l-6.72 3.2c-0.16 0.080-0.4 0.16-0.56 0.16-0.48 0-1.040-0.32-1.28-0.8-0.32-0.72 0-1.52 0.64-1.84l6.72-3.2c1.040-0.48 2.24-1.040 3.6-1.2 0.72-0.080 1.44 0.48 1.52 1.2s-0.48 1.44-1.2 1.52zM261.84 223.12l-0.72 0.96c-0.8 1.040-2.32 1.28-3.36 0.48l-16.4-12.16c-1.040-0.8-1.28-2.32-0.48-3.36l0.72-0.96c0.8-1.040 2.32-1.28 3.36-0.48l16.4 12.16c1.040 0.72 1.28 2.24 0.48 3.36z"></path>
</svg>
