<!-- Generated by IcoMoon.io -->
<svg version="1.1" xmlns="http://www.w3.org/2000/svg" width="400" height="400" viewBox="0 0 400 400">
<title>ol-icon-7</title>
<path fill="#4d4e4e" d="M124 134.72h-17.2c-2.8 0-5.040 2.24-5.040 5.040v10.64c0 2.8 2.24 5.040 5.040 5.040h12.24c2.8 0 5.040 2.24 5.040 5.040v78.96c0 2.8 2.24 5.040 5.040 5.040h10.64c2.8 0 5.040-2.24 5.040-5.040v-99.68c0-2.8-2.24-5.040-5.040-5.040h-15.76z"></path>
<path fill="#28aae1" d="M226.080 160.24c2.8 0 5.040-2.24 5.040-5.040v-15.6h-0.24v-40.56c0-2.8-2.24-5.040-5.040-5.040h-47.44c-2.8 0-5.040 2.24-5.040 5.040v10.64c0 2.8 2.24 5.040 5.040 5.040h26.88c2.8 0 5.040 2.24 5.040 5.040v14.88c0 2.8-2.24 5.040-5.040 5.040h-26.88c-2.8 0-5.040 2.24-5.040 5.040v54.080c0 2.8 2.24 5.040 5.040 5.040h46.72c2.8 0 5.040-2.24 5.040-5.040v-10.8c0-2.8-2.24-5.040-5.040-5.040h-26.080c-2.8 0-5.040-2.24-5.040-5.040v-12.8c0-2.8 2.24-5.040 5.040-5.040h27.040z"></path>
<path fill="#4d4e4e" d="M278.56 168.96h-31.92c-2.8 0-5.040 2.24-5.040 5.040v10.64c0 2.8 2.24 5.040 5.040 5.040h26.88c2.8 0 5.040 2.24 5.040 5.040v14.88c0 2.8-2.24 5.040-5.040 5.040h-26.88c-2.8 0-5.040 2.24-5.040 5.040v10.64c0 2.8 2.24 5.040 5.040 5.040h26.88c2.8 0 5.040 2.24 5.040 5.040v12.8c0 2.8-2.24 5.040-5.040 5.040h-26.88c-2.8 0-5.040 2.24-5.040 5.040v10.32c0 2.8 2.24 5.040 5.040 5.040h47.44c2.8 0 5.040-2.24 5.040-4.96l0.080-48.72v-50.88c0-2.8-2.24-5.040-5.040-5.040h-15.6z"></path>
</svg>
