<!-- Generated by IcoMoon.io -->
<svg version="1.1" xmlns="http://www.w3.org/2000/svg" width="400" height="400" viewBox="0 0 400 400">
<title>ol-icon-5</title>
<path fill="#28aae1" d="M237.2 95.2c-6.16-3.68-12.48-4.56-16.56-2.4-6.32 3.36-10.32 2.96-10.32 2.96s-4.080 0.4-10.32-2.96c-4.080-2.16-10.4-1.28-16.56 2.4-13.84 8.32-17.52 38-2.16 55.52s20 10.4 29.040 10.4c9.040 0 13.68 7.040 29.040-10.4 15.36-17.52 11.68-47.2-2.16-55.52zM192.56 110.96c-2.72 5.040-7.52 7.68-10.8 5.92s-3.76-7.28-1.12-12.32c2.72-5.040 7.52-7.68 10.8-5.92 3.36 1.76 3.84 7.28 1.12 12.32z"></path>
<path fill="#28aae1" d="M206.96 91.2c0 0 0.96-8.16-8.8-13.68l2-2.24c0 0 10.24 5.040 12.080 16.56l-5.28-0.64z"></path>
<path fill="#28aae1" d="M214.32 85.6c0 0 4.96-14.080 17.36-20.56 0 0-14.080 16.8-17.36 20.56 16.8 10.32 20.080-22.96 20.080-22.96-26.24 2.32-20.080 22.96-20.080 22.96z"></path>
<path fill="#4d4e4e" d="M130.16 195.44h0.24c-1.2 3.6-3.040 5.84-5.040 5.84-3.76 0-6.8-7.76-6.8-17.28s3.040-17.28 6.8-17.28c2 0 3.84 2.24 5.040 5.84h-0.24c-1.84 0-3.36 1.52-3.36 3.36v16.16c0 1.84 1.52 3.36 3.36 3.36z"></path>
<path fill="#4d4e4e" d="M130.16 172.56h164c0.64-1.84 1.44-3.28 2.32-4.32v-1.52h-171.12v34.56h171.12v-1.52c-0.88-0.96-1.68-2.48-2.32-4.32h-164c-1.84 0-3.36-1.52-3.36-3.36v-16.16c0-1.84 1.52-3.36 3.36-3.36z"></path>
<path fill="#4d4e4e" d="M296.48 199.76c0.4 0.48 0.88 0.88 1.36 1.12-0.48 0.24-0.88 0.4-1.36 0.4-2 0-3.84-2.24-5.040-5.84-1.12-3.040-1.76-7.040-1.76-11.44s0.64-8.4 1.76-11.44c1.2-3.52 3.040-5.84 5.040-5.84 0.48 0 0.96 0.16 1.36 0.4-0.48 0.24-0.96 0.64-1.36 1.12-0.88 0.96-1.68 2.48-2.32 4.32-1.040 3.040-1.68 7.040-1.68 11.44s0.64 8.4 1.68 11.44c0.64 1.84 1.44 3.36 2.32 4.32z"></path>
<path fill="#4d4e4e" d="M137.2 176.4h146.16v1.68h-146.16v-1.68z"></path>
<path fill="#4d4e4e" d="M131.2 183.2h146.16v1.68h-146.16v-1.68z"></path>
<path fill="#4d4e4e" d="M140.32 188.88h146.16v1.68h-146.16v-1.68z"></path>
<path fill="#4d4e4e" d="M89.2 227.6h222.8v-20.88h-222.8v20.88zM310.24 223.6h-215.44c-0.88 0-1.6-0.72-1.6-1.6v-9.84c0-0.88 0.72-1.6 1.6-1.6h215.44v13.040z"></path>
<path fill="#4d4e4e" d="M92.64 217.12c0 4.64-1.52 10.48-3.44 10.48s-3.44-5.76-3.44-10.48c0-4.64 1.52-10.48 3.44-10.48 1.92 0.080 3.44 5.84 3.44 10.48z"></path>
<path fill="#4d4e4e" d="M294.64 256.16h-181.52c-1.2 0-2.24-1.040-2.24-2.24v-14.16c0-1.28 1.040-2.24 2.24-2.24h181.52c0.56-2.72 1.28-4.64 2.24-5.52 0.32-0.32 0.64-0.48 0.96-0.48h-192.96v30.64h192.88c-0.32 0-0.64-0.16-0.96-0.48-0.88-0.88-1.6-2.8-2.16-5.52z"></path>
<path fill="#4d4e4e" d="M110.32 246.8c0 8.48-2.4 15.28-5.44 15.28-2.96 0-5.44-6.88-5.44-15.28 0-8.48 2.4-15.28 5.44-15.28s5.44 6.88 5.44 15.28z"></path>
<path fill="#4d4e4e" d="M141.36 252.080l-7.040-6.48-7.040 6.48v-12.080h14.080v12.080z"></path>
</svg>
