<!-- Generated by IcoMoon.io -->
<svg version="1.1" xmlns="http://www.w3.org/2000/svg" width="400" height="400" viewBox="0 0 400 400">
<title>ol-icon-4</title>
<path fill="#4d4e4e" d="M247.76 161.84c1.6 5.28 3.36 9.68 4.24 12 0.16 0.32 0.16 0.72 0.24 1.040 0.72-0.8 1.36-1.2 1.36-1.2h18.56c0 0 0.4 0.24 0.88 0.72 0.080-0.16 0.080-0.4 0.16-0.56 0.88-2.4 2.72-7.040 4.4-12.56l1.92-1.92c0 0 4.96-5.6 2.96-9.92-0.56-1.12-1.28-1.76-2.080-2 0.080-0.72 0.080-1.44 0.080-2.080 1.52-1.52 0.96-7.6 0.24-10.16-1.6-5.28-4.56-7.12-9.28-9.76-4.16-2.32-7.28-0.88-8.96 0.48-0.24-0.56-0.72-1.040-1.44-1.36 0 0-20.96-0.96-17.76 17.92 0.32 2 0.72 3.6 1.12 4.96-0.8 0.24-1.6 0.88-2.080 2-1.92 4.32 2.96 9.92 2.96 9.92l2.48 2.48z"></path>
<path fill="#4d4e4e" d="M303.92 192.32c-3.12-2-21.36-6.64-28.32-12.56 0 0.080 0 0.16 0 0.24-0.080 4-1.52 15.28-1.52 15.28s-3.68-7.28-11.2-7.28v0c-7.68 0-11.28 7.28-11.28 7.28s-1.52-11.28-1.52-15.28c0-0.24 0.080-0.56 0.080-0.8-4 3.84-12.88 7.2-19.76 9.6 6.32 2.88 14 5.52 17.52 6.8 6.48 2.24 9.68 3.44 11.84 4.8 2.56 1.68 5.84 5.12 8.4 9.52h34.4c14.32 0 5.52-14.96 1.36-17.6z"></path>
<path fill="#4d4e4e" d="M252 173.92c0 0 3.28 11.2 10.48 11.2s10.64-11.2 10.64-11.2-16.56-5.040-21.12 0z"></path>
<path fill="#4d4e4e" d="M118.56 161.84c1.6 5.28 3.36 9.68 4.24 12 0.16 0.32 0.16 0.72 0.24 1.040 0.72-0.8 1.36-1.2 1.36-1.2h18.56c0 0 0.4 0.24 0.88 0.72 0.080-0.16 0.080-0.4 0.16-0.56 0.88-2.4 2.72-7.040 4.4-12.56l1.92-1.92c0 0 4.96-5.6 2.96-9.92-0.48-1.12-1.28-1.76-2.080-2 0.080-0.72 0.080-1.44 0.080-2.080 1.52-1.52 0.96-7.6 0.24-10.16-1.6-5.28-4.56-7.12-9.28-9.76-4.16-2.32-7.28-0.88-8.96 0.48-0.24-0.56-0.72-1.040-1.44-1.36 0 0-20.96-0.96-17.76 17.92 0.32 2 0.72 3.6 1.12 4.96-0.8 0.24-1.6 0.88-2.080 2-1.92 4.32 2.96 9.92 2.96 9.92l2.48 2.48z"></path>
<path fill="#4d4e4e" d="M146.48 179.76c0 0.080 0 0.16 0 0.24-0.080 4-1.52 15.28-1.52 15.28s-3.68-7.28-11.2-7.28v0c-7.68 0-11.28 7.28-11.28 7.28s-1.52-11.28-1.52-15.28c0-0.24 0.080-0.48 0.080-0.8-6.48 6.24-25.68 11.040-28.88 13.12-4.080 2.64-9.92 17.6 1.84 17.6h35.2c2-4.16 4.72-7.68 7.6-9.52 2.16-1.44 5.36-2.56 11.84-4.8 3.52-1.2 11.040-3.84 17.36-6.72-6.8-2.32-15.28-5.44-19.52-9.12z"></path>
<path fill="#4d4e4e" d="M122.8 173.92c0 0 3.28 11.2 10.48 11.2s10.64-11.2 10.64-11.2-16.56-5.040-21.12 0z"></path>
<path fill="#28aae1" d="M177.76 165.040c2.24 7.28 4.64 13.36 5.84 16.64 0.16 0.48 0.24 0.96 0.32 1.36 1.040-1.040 1.84-1.6 1.84-1.6h25.6c0 0 0.56 0.32 1.28 0.96 0.080-0.24 0.080-0.48 0.16-0.72 1.2-3.36 3.84-9.76 6.080-17.36l2.64-2.72c0 0 6.8-7.68 4.080-13.6-0.72-1.6-1.76-2.4-2.88-2.72 0.080-0.96 0.16-2 0.16-2.96 2.080-2.080 1.36-10.48 0.32-14-2.16-7.28-6.32-9.92-12.8-13.52-5.76-3.2-10-1.2-12.4 0.72-0.4-0.72-0.96-1.36-2-1.84 0 0-28.96-1.28-24.48 24.8 0.48 2.72 0.96 5.040 1.52 6.88-1.12 0.4-2.16 1.2-2.88 2.72-2.72 5.92 4.080 13.6 4.080 13.6l3.52 3.36z"></path>
<path fill="#28aae1" d="M255.36 207.2c-4.32-2.8-29.44-9.12-39.040-17.36 0 0.080 0 0.24 0 0.32-0.080 5.44-2.16 21.12-2.16 21.12s-5.12-10-15.44-10.080v0c-10.56 0-15.6 10.080-15.6 10.080s-2.080-15.6-2.16-21.12c0-0.32 0-0.64 0-0.96-8.96 8.56-35.36 15.2-39.84 18.080-5.68 3.68-13.76 24.32 2.56 24.32 2.4 0 54.56 0 54.56 0s41.2 0 55.12 0c19.76-0.080 7.6-20.72 2-24.4z"></path>
<path fill="#28aae1" d="M183.6 181.68c0 0 4.56 15.52 14.48 15.52s14.72-15.52 14.72-15.52-22.88-6.88-29.2 0z"></path>
</svg>
