<!-- Generated by IcoMoon.io -->
<svg version="1.1" xmlns="http://www.w3.org/2000/svg" width="400" height="400" viewBox="0 0 400 400">
<title>ol-icon-6</title>
<path fill="#28aae1" d="M259.12 206.48l-26.56 27.2 59.36 30.96 16.88-32.32-49.68-25.84zM258.4 214.8l-2.16-1.12 1.92-3.68 2.16 1.12-1.92 3.68zM264.56 218l-2.16-1.12 1.92-3.68 2.16 1.12-1.92 3.68zM269.76 223.040l-2.16-1.12 2.88-5.52 2.16 1.12-2.88 5.52zM276.8 224.4l-2.16-1.12 1.92-3.68 2.16 1.12-1.92 3.68zM282.96 227.6l-2.16-1.12 1.92-3.68 2.16 1.12-1.92 3.68zM289.12 230.8l-2.16-1.12 1.92-3.68 2.24 1.12-2 3.68zM295.28 234l-2.16-1.12 1.92-3.68 2.24 1.12-2 3.68zM297.28 239.76l3.84-7.44 2.16 1.12-3.84 7.44-2.16-1.12zM87.040 157.68l115.44 60.32 26.56-27.2-125.2-65.36-16.8 32.24zM221.36 190.72l2.16 1.12-1.92 3.68-2.24-1.12 2-3.68zM215.2 187.6l2.16 1.12-1.92 3.68-2.16-1.12 1.92-3.68zM209.040 184.32l2.24 1.12-2.88 5.52-2.16-1.12 2.8-5.52zM202.88 181.12l2.16 1.12-1.92 3.68-2.16-1.12 1.92-3.68zM196.8 178l2.16 1.12-1.92 3.68-2.24-1.12 2-3.68zM190.64 174.72l2.16 1.12-1.92 3.68-2.16-1.12 1.92-3.68zM184.48 171.52l2.16 1.12-1.92 3.68-2.16-1.12 1.92-3.68zM178.32 168.4l2.16 1.12-3.84 7.44-2.24-1.12 3.92-7.44zM172.24 165.12l2.24 1.12-1.92 3.68-2.16-1.12 1.84-3.68zM166.080 161.92l2.16 1.12-1.92 3.68-2.16-1.12 1.92-3.68zM159.92 158.72l2.24 1.12-1.92 3.68-2.24-1.12 1.92-3.68zM153.76 155.52l2.16 1.12-1.92 3.68-2.16-1.12 1.92-3.68zM147.68 152.32l2.16 1.12-2.88 5.52-2.16-1.12 2.88-5.52zM141.52 149.12l2.16 1.12-1.92 3.68-2.24-1.12 2-3.68zM135.36 145.92l2.16 1.12-1.92 3.68-2.16-1.12 1.92-3.68zM129.28 142.72l2.16 1.12-1.92 3.68-2.16-1.12 1.92-3.68zM123.12 139.52l2.24 1.12-1.92 3.68-2.16-1.12 1.84-3.68zM116.96 136.32l2.16 1.12-3.84 7.44-2.16-1.12 3.84-7.44zM107.36 146.4c-0.32 2-2.24 3.44-4.24 3.12s-3.44-2.24-3.12-4.24c0.32-2.080 2.24-3.44 4.24-3.12 2.080 0.24 3.44 2.16 3.12 4.24z"></path>
<path fill="#4d4e4e" d="M187.44 243.76c2 0 3.36 0.4 3.84 1.12 0 0.24-0.16 0.8-0.24 1.12-0.4 1.76-0.96 4.4 0.64 6.32 1.2 1.44 3.2 2.16 6.16 2.16h0.4c0 0 0.16 0 0.4 0 0.16 0 0.48 0 0.8 0.080 0.96 0.16 1.2 0.64 1.28 0.8 0.24 0.4 0.48 1.36-0.24 3.44l-21.12 6.48c-0.16 0.080-0.32 0.080-0.4 0.080 0-0.080 0-0.24 0.080-0.4l5.92-21.12c0.64 0.080 1.52-0.080 2.48-0.080zM187.44 242.24c-2 0-3.76 0.4-3.76 0.4l-5.36 19.12-0.8 2.88c-0.4 1.36 0.24 2.32 1.36 2.32 0.24 0 0.56-0.080 0.88-0.16l2.88-0.88 18.96-5.84c2.080-5.2-0.16-6.64-1.84-6.96-0.4-0.080-0.8-0.080-1.12-0.080s-0.56 0-0.56 0c-0.080 0-0.16 0-0.24 0-9.040 0-4.4-7.2-5.12-8.72-0.8-1.6-3.12-2.080-5.28-2.080z"></path>
<path fill="#4d4e4e" d="M279.28 180.88l-18.4-17.84 6.56-6.72 18.32 17.92-6.48 6.64z"></path>
<path fill="#4d4e4e" d="M280.080 183.84l-7.44 7.6-22.24-21.44 7.52-7.76 22.16 21.6z"></path>
<path fill="#4d4e4e" d="M285.76 174.24c-0.4 0.48-4.88-3.2-10-8.16-5.040-4.96-8.8-9.28-8.4-9.76s6.88 1.36 12 6.32c5.12 4.96 6.88 11.12 6.4 11.6z"></path>
<path fill="#4d4e4e" d="M255.76 177.28l-62.48 64.48c-2.64-1.76-8-0.64-8-0.64l66.24-68 4.24 4.16z"></path>
<path fill="#4d4e4e" d="M263.2 184.56l-64.96 66.96c-6-0.48-4.48-4.88-4-7.28l63.28-65.2 5.68 5.52z"></path>
<path fill="#4d4e4e" d="M264.96 186.24l4.4 4.32-66.24 68.080c2-4.96 0.080-6.48-1.68-6.88l63.52-65.52z"></path>
<path fill="#4d4e4e" d="M179.68 259.12l-1.36 6.32 0.4 0.88 7.12-2-5.92-5.76-0.24 0.56z"></path>
</svg>
