<!-- Generated by IcoMoon.io -->
<svg version="1.1" xmlns="http://www.w3.org/2000/svg" width="400" height="400" viewBox="0 0 400 400">
<title>ol-icon-3</title>
<path fill="#4d4e4e" d="M192.16 133.68h-18.72c-2 0-3.6-1.6-3.6-3.6v-10.4c0-2 1.6-3.6 3.6-3.6h18.72c2 0 3.6 1.6 3.6 3.6v10.4c0 2-1.6 3.6-3.6 3.6zM173.44 119.36c-0.16 0-0.32 0.16-0.32 0.32v10.4c0 0.16 0.16 0.32 0.32 0.32h18.72c0.16 0 0.32-0.16 0.32-0.32v-10.4c0-0.16-0.16-0.32-0.32-0.32h-18.72z"></path>
<path fill="#4d4e4e" d="M225.28 133.68h-18.72c-2 0-3.6-1.6-3.6-3.6v-10.4c0-2 1.6-3.6 3.6-3.6h18.72c2 0 3.6 1.6 3.6 3.6v10.4c-0.080 2-1.68 3.6-3.6 3.6zM206.56 119.36c-0.16 0-0.32 0.16-0.32 0.32v10.4c0 0.16 0.16 0.32 0.32 0.32h18.72c0.16 0 0.32-0.16 0.32-0.32v-10.4c0-0.16-0.16-0.32-0.32-0.32h-18.72z"></path>
<path fill="#4d4e4e" d="M194.16 123.28h10.48v3.28h-10.48v-3.28z"></path>
<path fill="#4d4e4e" d="M170.48 126.16l-14.080-12.16 2.16-2.48 14 12.16-2.080 2.48z"></path>
<path fill="#4d4e4e" d="M228.24 126.16l-2.080-2.48 14-12.16 2.16 2.48-14.080 12.16z"></path>
<path fill="#4d4e4e" d="M174.88 168.16c0.24 0.64 1.28 3.040 2.64 5.28 0 0.16 0 0.32-0.080 0.56-0.080 0.56-0.16 1.040-0.32 1.6-0.24 0.88-0.56 1.84-0.96 2.72-1.2 2.64-3.28 5.28-6.16 7.84l-0.16 0.16-0.24 0.16-0.4 0.4c-0.32 0.24-0.56 0.48-0.8 0.64-2.16 1.76-4.8 3.52-7.76 5.28-0.64 0.4-1.28 0.72-1.92 1.12-0.48-1.2-1.040-2.4-1.84-3.44 0.56-0.32 1.2-0.64 1.76-1.040 2.8-1.6 5.28-3.36 7.44-5.040 0.16-0.080 0.32-0.24 0.56-0.4 0.16-0.16 0.32-0.32 0.56-0.48 0.080-0.080 0.24-0.16 0.32-0.32 3.040-2.72 5.2-5.6 5.92-8.56 0-0.080 0.080-0.24 0.080-0.32 0.080-0.24 0.080-0.48 0.080-0.72 0.080-0.4 0.080-0.8 0.080-1.2-0.080-0.4-0.64-3.28-0.64-3.28 0.48-0.56 0.96-0.96 1.52-1.44 0.080 0.080 0.080 0.16 0.080 0.24l0.24 0.24z"></path>
<path fill="#4d4e4e" d="M241.92 190.72c-0.88 0.96-1.6 2.080-2.080 3.28-0.8-0.4-1.52-0.8-2.24-1.2-2.96-1.76-5.44-3.44-7.6-5.12-0.080-0.080-0.16-0.16-0.24-0.16l-0.56-0.48c-0.080-0.080-0.24-0.16-0.4-0.32l-0.16-0.080c-3.040-2.72-5.28-5.44-6.48-8.16-0.4-0.96-0.8-1.84-0.96-2.8-0.16-0.56-0.24-1.12-0.32-1.6 0-0.16 0-0.24 0-0.4 1.12-1.76 2-3.68 2.56-4.88 1.2 0.32 1.92 0.56 1.92 0.56s0 0 0 0.080c-0.080 0.080-0.080 0.16-0.16 0.4 0 0.080 0 0.16-0.080 0.24-0.24 0.8-0.4 1.6-0.4 2.4v0.32c0 0.32 0 0.64 0.080 0.96v0c0 0.24 0.080 0.48 0.16 0.72 0 0.080 0.080 0.16 0.080 0.32 0.72 3.12 2.96 6.080 6.24 8.88 0.16 0.16 0.32 0.32 0.56 0.48 0.16 0.16 0.4 0.24 0.56 0.4 0.080 0.080 0.16 0.16 0.24 0.16 2.080 1.68 4.48 3.28 7.12 4.88 0.64 0.24 1.36 0.64 2.16 1.12z"></path>
<path fill="#28aae1" d="M288.56 210.96c0.48 0.16 0.96 0.4 1.44 0.64 0.4 0.16 0.8 0.4 1.36 0.64 0.4 0.24 0.88 0.48 1.28 0.64 0.16 0.080 0.32 0.16 0.48 0.32l0.24 0.16c0.16 0.080 0.24 0.16 0.4 0.24l1.040 0.72c0.56 0.56 0.8 0.88 0.88 1.040 1.12 2.24 4.96 10.24 6 16.32 0.32 1.84 0.48 2.96 0.56 3.76 0.24 2.16 0.4 2.48 1.92 5.28 1.2 2.24 1.36 4.56 1.44 7.76 0.080 1.6 0.16 3.52 0.4 5.68 0.24 1.84 0.48 4.24 0.8 6.88l0.24 2.56c0.4 3.76 0.8 7.36 1.12 10h3.92c-0.32-2.72-0.72-6.72-1.12-10.4l-0.24-2.56c-0.32-2.64-0.56-5.040-0.72-6.88-0.24-2.080-0.32-3.84-0.4-5.44-0.16-3.44-0.32-6.4-1.92-9.44-1.28-2.4-1.28-2.4-1.52-3.92-0.080-0.8-0.24-2-0.56-3.92-1.12-6.48-4.8-14.32-6.32-17.36-0.4-0.8-0.96-1.52-1.84-2.24-0.080-0.080-0.32-0.24-0.56-0.4l-0.24-0.16c-0.16-0.16-0.32-0.32-0.56-0.4-0.16-0.080-0.4-0.24-0.72-0.4-0.24-0.16-0.48-0.32-0.72-0.4-0.48-0.32-0.96-0.56-1.52-0.88-0.48-0.24-0.96-0.48-1.36-0.64-0.48-0.24-1.040-0.48-1.6-0.72l-0.64-0.32c-0.72-0.32-1.44-0.56-2.080-0.8l-1.92-0.8c-3.44-1.28-10.080-4.8-11.84-6-0.16-0.080-0.4-0.24-0.8-0.4l-0.32-0.16c-0.24-0.16-0.48-0.24-0.8-0.32l-0.96-0.4-0.24-0.080-1.12-0.4c-0.4-0.16-0.8-0.32-1.040-0.4l-0.32-0.16c-0.080 0-0.16-0.080-0.16-0.080l-1.36-0.56c-0.16-0.080-0.32-0.080-0.48-0.16l-3.84-1.44c-0.16-0.080-0.32-0.16-0.56-0.16l-3.68-1.44-0.32-0.16-3.84-1.52-0.24-0.080-4-1.92c-0.080-0.080-0.24-0.16-0.4-0.24s-0.4-0.16-0.64-0.32c-0.24-0.080-0.4-0.16-0.64-0.32-0.16-0.080-0.4-0.16-0.56-0.24-0.24-0.080-0.56-0.24-0.8-0.4-0.16-0.080-0.4-0.16-0.64-0.24 0 0-0.48-0.16-1.2-0.48-1.84-0.72-4 0.080-5.040 1.76l-0.080 0.080-0.16 0.32c0.88 0.32 1.76 0.64 2.64 0.96l0.4 0.16 0.64-1.84-0.4 1.92 1.68 0.64h0.080c0.4 0.16 0.88 0.32 1.36 0.56 0.080 0.080 0.24 0.080 0.4 0.16 0.080 0 0.16 0.080 0.24 0.080 0.32 0.16 0.64 0.32 1.040 0.48l0.88 0.48c0.56 0.32 1.040 0.56 1.52 0.8 0.16 0.080 0.32 0.16 0.32 0.16l1.2 0.56 0.72-1.76-0.4 1.92 0.32 0.16 0.8-1.76-0.4 1.92c0.16 0.080 0.32 0.16 0.4 0.16l4.96 1.92 0.8-1.76-0.48 1.92 0.4 0.16 0.72-1.84-0.4 1.92 1.52 0.56c0.24 0.080 0.4 0.16 0.64 0.24l4.32 1.6c0.080 0.080 0.24 0.080 0.32 0.16l3.040 1.12 0.96-1.68-0.56 1.92 0.56 0.24 0.88-1.76-0.56 1.84 0.4 0.16c0.24 0.080 0.4 0.16 0.64 0.24l0.32 0.16c0.16 0.080 0.24 0.16 0.32 0.16 1.92 1.28 8.8 4.96 12.56 6.4l1.92 0.64c0.64 0.24 1.28 0.56 2 0.88l0.4 0.4zM121.68 204.96c3.040-1.6 5.76-3.040 8.8-4.16l4-1.52c0.16-0.080 0.32-0.080 0.56-0.16l6.56-2.56c0.96-0.4 1.84-0.72 2.72-1.12l3.36-1.44-0.88-1.76 1.12 1.6 0.4-0.24c0.16-0.080 0.32-0.16 0.4-0.24l1.84-0.88-0.56-1.84 1.040 1.68 0.24-0.080c0.080 0 0.16-0.080 0.24-0.080 0.4-0.16 0.88-0.32 1.12-0.48l0.88-0.32 0.96-0.32-0.64-1.84 1.040 1.68 1.36-0.48c0.4-0.16 0.8-0.32 1.2-0.48l1.12-0.32v-0.080l-0.24-0.48c-1.040-1.76-3.12-2.56-5.040-1.84l-1.76 0.64-0.080 0.080c-0.56 0.24-1.12 0.4-1.68 0.72l-0.24 0.080-1.36 0.64c-0.24 0.080-0.4 0.24-0.56 0.32l-1.36 0.8-0.4 0.24-0.8 0.32-0.72 0.32c-0.16 0.080-0.4 0.16-0.48 0.16l-1.040 0.4c-0.8 0.32-1.68 0.72-2.64 1.12l-6.48 2.48c-0.24 0.080-0.48 0.16-0.64 0.24-0.16 0-0.32 0.080-0.48 0.16l-2.88 1.040-0.32 0.080-0.32 0.16c-3.28 1.2-6.16 2.8-9.2 4.4-2.56 1.44-5.44 2.64-8.16 3.76-3.040 1.2-6.16 2.56-9.12 4.24-0.24 0.16-0.56 0.32-0.8 0.48l-0.32 0.16c-0.32 0.24-0.64 0.48-0.96 0.64-0.16 0.080-0.32 0.24-0.32 0.24l-0.48 0.4c-0.88 0.8-1.44 1.44-1.84 2.24-1.44 2.8-4.88 10.080-6.16 16.4l-0.16 1.040c-0.32 1.84-0.48 3.040-0.56 3.92-0.16 1.52-0.16 1.52-1.52 3.92-1.6 3.040-1.76 6-1.92 9.44-0.080 1.6-0.16 3.36-0.4 5.36-0.32 2.48-0.72 6.080-1.040 9.76-0.4 3.6-0.8 7.52-1.12 10.080h3.92c0.32-2.56 0.64-6.080 1.040-9.68s0.72-7.2 1.040-9.68c0.24-2.16 0.32-4 0.4-5.68 0.16-3.2 0.24-5.52 1.44-7.76 1.52-2.8 1.68-3.12 1.92-5.28 0.080-0.8 0.24-1.92 0.56-3.68l0.16-0.88c1.2-6 4.8-13.36 5.84-15.44 0.080-0.16 0.32-0.56 0.8-0.96 0.080-0.080 0.16-0.16 0.4-0.32l0.32-0.24c0.24-0.16 0.56-0.4 1.040-0.72 0.24-0.080 0.4-0.24 0.64-0.32 2.8-1.6 5.6-2.8 8.72-4.080 2.8-1.2 5.76-2.48 8.48-4z"></path>
<path fill="#4d4e4e" d="M168.96 152.24l-10.16-10.24c-0.56-0.64-12.16-14-7.2-24.8 1.36-2.96 3.44-4.88 6.24-5.68l2.32-0.64 0.16 2.4c0.72 9.2 2.88 19.84 6.4 31.6l2.24 7.36zM156.72 116.4c-0.64 0.56-1.12 1.36-1.6 2.32-3.28 7.2 3.52 16.8 5.76 19.68-2-7.92-3.44-15.28-4.16-22z"></path>
<path fill="#4d4e4e" d="M229.28 152.56l2.24-7.44c3.6-12 5.76-22.72 6.56-32.080l0.16-2.32 2.24 0.56c2.88 0.72 5.12 2.72 6.56 5.76 4.96 10.88-6.64 24.16-7.12 24.72l-0.080 0.080-10.56 10.72zM241.68 116.16c-0.72 6.88-2.24 14.48-4.4 22.64 1.76-2.16 9.68-12.48 6.16-20.16-0.48-0.96-1.040-1.84-1.76-2.48z"></path>
<path fill="#4d4e4e" d="M199.2 62.88c-14.72 0-25.84 3.92-33.040 11.84-7.84 8.48-11.040 21.52-9.68 38.72 0.8 9.52 2.96 20.4 6.56 32.4 2.56 8.64 5.36 16.4 8 23.36l0.16 0.4c0.32 0.8 1.12 2.56 2.24 4.56 0.8 1.36 1.68 2.8 2.8 4 0.080 0.080 0.16 0.24 0.32 0.32 1.52 1.68 3.52 3.36 5.44 5.040 1.84 1.6 3.6 3.040 4.56 4.24 2.24 2.72 6.4 4.72 10.72 5.2 0.4 0.080 0.72 0.080 1.040 0.080s0.56 0 0.88 0c4.96 0 10.080-2.080 12.64-5.28 0.96-1.12 2.72-2.64 4.56-4.24 1.92-1.6 3.92-3.36 5.44-5.040 0.080-0.16 0.24-0.24 0.32-0.4 1.040-1.2 1.92-2.64 2.72-4 0.96-1.76 1.76-3.44 2.24-4.64l0.16-0.4c2.64-6.88 5.36-14.48 7.92-23.040 3.68-12.24 5.92-23.28 6.72-32.88 0.16-2.56 0.32-5.12 0.32-7.52 0-27.84-14.88-42.72-43.040-42.72zM238.080 113.040c-0.8 9.28-2.96 20.080-6.56 32.080-2.56 8.48-5.28 15.92-7.84 22.72l-0.16 0.32c-0.080 0.16-0.080 0.32-0.16 0.4-0.56 1.2-1.44 3.12-2.56 4.88-0.56 0.96-1.2 1.84-1.92 2.56-1.36 1.52-3.28 3.12-5.12 4.72-1.92 1.68-3.84 3.28-5.040 4.72-1.6 1.92-5.44 3.92-9.68 3.92-0.24 0-0.4 0-0.72 0-0.24 0-0.56-0.080-0.8-0.080-3.76-0.4-6.8-2.16-8.16-3.84-1.12-1.36-3.040-3.040-4.96-4.72-1.84-1.6-3.76-3.2-5.12-4.72-0.64-0.8-1.28-1.68-1.92-2.56-1.36-2.24-2.4-4.64-2.64-5.28l-0.16-0.32c0-0.080-0.080-0.16-0.080-0.24-2.56-6.88-5.28-14.4-7.84-22.88-3.52-11.76-5.68-22.4-6.4-31.6-1.36-16.080 1.6-28.080 8.64-35.76 6.4-7.040 16.64-10.56 30.16-10.56 26.4 0 39.2 12.8 39.2 39.040 0.16 2.32 0 4.72-0.16 7.2z"></path>
<path fill="#4d4e4e" d="M166.48 97.52c-0.16-1.12-0.4-2.32-0.64-3.6-0.8-4.16-2.64-8.16-2.88-12.64 0-0.48 0-0.96 0-1.44-0.96 1.36-1.84 2.64-2.56 3.68-5.28 7.44-3.84 22.96-3.84 24.080s1.68 20.56 4.48 26.080c2.8 5.52 2.080-10.88 2.080-10.88-0.56-15.040 3.28-14.88 3.040-22.32 0.080-1.2 0.16-2.16 0.32-2.96z"></path>
<path fill="#4d4e4e" d="M231.36 97.52c0.16-1.12 0.4-2.32 0.64-3.6 0.8-4.16 2.64-8.16 2.88-12.64 0-0.48 0-0.96 0-1.44 0.96 1.36 1.84 2.64 2.56 3.68 5.28 7.44 3.84 22.96 3.84 24.080s-1.68 20.56-4.48 26.080c-2.8 5.52-2.080-10.88-2.080-10.88 0.56-15.040-3.28-14.88-3.12-22.32 0-1.2-0.080-2.16-0.24-2.96z"></path>
<path fill="#28aae1" d="M308.56 260.88c-0.32-2.56-0.56-5.040-0.8-6.88-0.8-6.48 0-10.24-2.16-14.16s-1.2-2.24-2.32-8.4c-1.12-6.16-4.8-13.84-6.32-16.88-0.32-0.56-0.8-1.12-1.44-1.6 0.080-0.16 0.080-0.32 0.080-0.32-0.080-0.080-0.16-0.16-0.32-0.16-0.16-0.16-0.32-0.24-0.56-0.4-0.16-0.16-0.4-0.32-0.64-0.4-0.16-0.16-0.4-0.24-0.64-0.4-1.28-0.72-2.8-1.44-4.24-2.080-0.24-0.080-0.4-0.16-0.64-0.32-0.72-0.32-1.44-0.56-2.080-0.8-0.72-0.32-1.36-0.48-1.92-0.72-3.6-1.36-10.32-4.96-12.16-6.16-0.16-0.080-0.32-0.16-0.56-0.24-0.080-0.080-0.24-0.080-0.32-0.16-0.24-0.16-0.56-0.24-0.8-0.4-0.080 0-0.080 0-0.16-0.080h-0.080c-0.080-0.080-0.16-0.080-0.24-0.080-0.080-0.080-0.16-0.080-0.32-0.080-0.080-0.080-0.080-0.080-0.16-0.080s-0.080-0.080-0.16-0.080h-0.080c-0.080 0-0.16-0.080-0.24-0.080v0c-0.16-0.080-0.4-0.16-0.64-0.24 0-0.080 0-0.080 0-0.080-0.080 0-0.080 0-0.080 0-0.4-0.16-0.8-0.32-1.12-0.4-0.080-0.080-0.080-0.080-0.16-0.080s-0.16-0.080-0.32-0.080-0.48-0.16-0.72-0.32c0 0-0.080 0-0.080 0-0.16-0.080-0.32-0.080-0.48-0.16 0 0-0.080 0-0.080-0.080-0.080 0-0.24-0.080-0.32-0.080-0.16-0.080-0.32-0.16-0.56-0.16-0.080-0.080-0.24-0.080-0.32-0.16-0.16-0.080-0.32-0.16-0.48-0.16-0.16-0.080-0.32-0.080-0.4-0.16-0.32-0.080-0.64-0.24-0.96-0.32-0.32-0.16-0.64-0.24-0.96-0.4-0.080 0-0.080-0.080-0.16-0.080-0.24-0.080-0.4-0.16-0.64-0.24-0.080 0-0.080-0.080-0.16-0.080-0.56-0.24-1.12-0.4-1.68-0.64-0.080-0.080-0.16-0.080-0.24-0.080s-0.16-0.080-0.24-0.080c-0.080 0-0.080-0.080-0.16-0.080-0.080-0.080-0.080-0.080-0.16-0.080l-1.12-0.4c-0.080 0-0.16-0.080-0.24-0.080-0.16-0.080-0.32-0.080-0.48-0.16-0.24-0.080-0.4-0.16-0.64-0.24-0.16-0.080-0.4-0.16-0.56-0.24-0.24-0.080-0.56-0.16-0.8-0.32-0.4-0.16-0.72-0.32-1.040-0.48-0.16-0.080-0.24-0.080-0.4-0.16s-0.24-0.080-0.4-0.16c-0.16-0.080-0.24-0.080-0.4-0.16-0.080-0.080-0.16-0.080-0.32-0.16 0 0-0.080 0-0.080-0.080-0.24-0.080-0.4-0.16-0.64-0.32-0.080-0.080-0.24-0.080-0.32-0.16s-0.16-0.16-0.32-0.16c-1.76-0.88-3.52-1.92-5.44-2.64-0.16-0.080-0.32-0.080-0.48-0.16-0.080 0-0.080 0-0.080 0-0.080-0.080-0.16-0.080-0.32-0.16s-0.32-0.16-0.56-0.16c-0.080 0-0.080-0.080-0.16-0.080 0 0 0 0 0 0-0.080-0.080-0.16-0.080-0.32-0.16-0.080 0-0.080 0-0.16-0.080-0.080 0-0.16 0-0.16-0.080 0 0 0 0 0 0-0.080 0-0.16-0.080-0.24-0.080s-0.080 0-0.16 0c0 0 0 0 0 0-0.080-0.080-0.24-0.080-0.32-0.080-0.32-0.16-0.64-0.24-0.96-0.4-0.32-0.080 0.16 0.080-0.16-0.080l-1.44 1.12-0.16 0.32-1.76 3.040-38.48 65.28-2.32-3.92-38.16-64.72-1.52-1.52c-0.24 0.080-0.080-0.080-0.32 0-0.4 0.16-0.88 0.32-1.28 0.48s-0.88 0.32-1.36 0.48c-0.080 0-0.080 0.080-0.16 0.080s-0.16 0.080-0.24 0.080c-0.080 0-0.24 0.080-0.32 0.080 0 0 0 0 0 0-0.4 0.16-0.8 0.32-1.12 0.4-0.24 0.080-0.48 0.16-0.64 0.32-0.48 0.16-0.96 0.32-1.36 0.56-0.080 0.080-0.080 0.080-0.16 0.080s-0.16 0.080-0.16 0.080-0.16 0.080-0.16 0.080-0.080 0-0.16 0.080-0.080 0.080-0.16 0.080c-0.080 0.080-0.24 0.16-0.4 0.16-0.24 0.080-0.4 0.16-0.64 0.32-0.080 0-0.080 0.080-0.16 0.080 0 0-0.080 0-0.080 0.080-0.080 0.080-0.16 0.080-0.32 0.16-0.080 0.080-0.16 0.080-0.32 0.16-0.080 0.080-0.16 0.080-0.16 0.080-0.16 0.080-0.24 0.16-0.4 0.24-0.080 0.080-0.16 0.080-0.32 0.16-0.080 0.080-0.080 0.080-0.16 0.080-0.24 0.080-0.4 0.24-0.72 0.32 0 0 0 0-0.080 0 0 0-0.080 0-0.080 0s0 0-0.080 0c-0.16 0.080-0.32 0.16-0.48 0.24-0.080 0.080-0.16 0.080-0.24 0.080-0.080 0.080-0.24 0.080-0.4 0.16-1.12 0.48-2.32 0.96-3.68 1.44-0.24 0.080-0.4 0.16-0.64 0.24s-0.56 0.24-0.8 0.32c-0.080 0-0.16 0.080-0.16 0.080-0.080 0-0.16 0.080-0.24 0.080s-0.080 0.080-0.16 0.080c-0.4 0.16-0.8 0.32-1.2 0.48-0.080 0-0.16 0.080-0.16 0.080-0.4 0.16-0.8 0.32-1.2 0.48-0.080 0-0.16 0.080-0.24 0.080-0.080 0.080-0.16 0.080-0.32 0.080-0.16 0.080-0.32 0.16-0.48 0.16-0.080 0-0.24 0.080-0.32 0.16-0.080 0-0.080 0.080-0.16 0.080-0.16 0.080-0.32 0.080-0.48 0.16s-0.4 0.16-0.56 0.24c-0.72 0.24-1.36 0.48-2 0.72-0.48 0.16-0.88 0.32-1.36 0.48-0.24 0.080-0.4 0.16-0.64 0.24-0.16 0.080-0.24 0.080-0.4 0.16-0.080 0-0.24 0.080-0.32 0.080-0.080 0.080-0.24 0.080-0.32 0.16-0.24 0.080-0.56 0.16-0.8 0.32-0.080 0-0.080 0-0.16 0.080-0.4 0.16-0.8 0.32-1.12 0.4-0.080 0.080-0.080 0.080-0.16 0.080 0 0-0.080 0.080-0.080 0.080s-0.080 0-0.080 0.080c-0.080 0-0.24 0.080-0.32 0.16-0.080 0-0.080 0.080-0.16 0.080s-0.080 0-0.080 0c-0.080 0.080-0.080 0.080-0.16 0.080-0.080 0.080-0.16 0.080-0.32 0.16 0 0-0.080 0.080-0.16 0.080 0 0-0.080 0.080-0.080 0.080 0 0.080-0.080 0.080-0.080 0.080-0.080 0-0.080 0.080-0.16 0.080 0 0.080-0.080 0.080-0.080 0.080s-0.080 0-0.080 0c-0.080 0.080-0.16 0.080-0.16 0.080-1.84 1.2-8.56 4.8-12.24 6.16-1.040 0.4-2.56 0.96-4.080 1.6-0.24 0.080-0.56 0.24-0.8 0.32-0.32 0.080-0.56 0.24-0.8 0.4-0.16 0.080-0.32 0.16-0.4 0.16-0.080 0.080-0.24 0.080-0.4 0.16s-0.32 0.16-0.4 0.16c-0.16 0.080-0.24 0.080-0.4 0.16-0.48 0.24-1.040 0.56-1.44 0.8-0.24 0.16-0.48 0.32-0.72 0.4-0.4 0.24-0.8 0.56-1.12 0.8-0.16 0.080-0.24 0.16-0.32 0.24s-0.080 0.080-0.16 0.080c-0.080 0.080-0.16 0.16-0.24 0.24 0 0.080 0 0.16 0 0.4-0.4 0.4-0.8 0.8-1.040 1.2-1.44 2.88-4.88 9.92-6.16 15.92-0.080 0.32-0.080 0.64-0.16 0.96-1.12 6.16-0.16 4.56-2.32 8.4-2.16 3.92-1.36 7.68-2.16 14.16-0.64 5.040-1.52 14.48-2.16 19.6h39.52l1.36-16.8 1.36 16.8h140l1.36-16.8 1.36 16.8h38c-0.16-3.040-0.72-8.080-1.2-12.56zM199.2 269.92l-47.52-77.92c0.4-0.16 0.88-0.32 1.12-0.48l0.88-0.32 45.52 74.64 45.2-74.24h0.080c0.4 0.16 0.88 0.32 1.36 0.56 0.080 0.080 0.24 0.080 0.4 0.16 0.080 0 0.16 0.080 0.24 0.080l-47.28 77.52z"></path>
<path fill="#28aae1" d="M151.6 187.76l2.080 3.36-0.88 0.32c-0.32 0.16-0.72 0.32-1.12 0.48l-2.080-3.36 0.24-0.080c0.56-0.24 1.12-0.48 1.68-0.72h0.080z"></path>
<path fill="#28aae1" d="M248.48 189.12l-2.080 3.36c-0.080-0.080-0.16-0.080-0.24-0.080-0.16-0.080-0.24-0.16-0.4-0.16-0.48-0.24-0.96-0.4-1.36-0.56h-0.080l2.080-3.36c0.32 0.16 0.56 0.24 0.8 0.4 0.16 0.080 0.32 0.16 0.56 0.24 0.32 0 0.48 0.080 0.72 0.16z"></path>
<path fill="#4d4e4e" d="M208.72 203.44h-18.32l4.72-8.32h8.8l4.8 8.32z"></path>
<path fill="#4d4e4e" d="M203.36 206.8h-7.76l-6.56 26 10.16 17.36 10.080-17.36-5.92-26z"></path>
</svg>
