<!-- Generated by IcoMoon.io -->
<svg version="1.1" xmlns="http://www.w3.org/2000/svg" width="400" height="400" viewBox="0 0 400 400">
<title>ol-icon-2</title>
<path fill="#4d4e4e" d="M167.68 238.4v2.48h-7.28v54.88h-9.6v-48.8h-50.080v48.8h-9.6v-134.4h9.6v2.88h4.72v42.56h-4.72v24.56h35.2l31.44 4.72 0.32 2.32z"></path>
<path fill="#4d4e4e" d="M262.4 175.36h22.24v120.080h-22.24v-120.080z"></path>
<path fill="#4d4e4e" d="M204.8 286.56h105.6v8.8h-105.6v-8.8z"></path>
<path fill="#4d4e4e" d="M298.56 167.92v7.92h-131.040v-5.84c3.2 1.2 6.56 1.84 10 1.84 0.56 0 1.2 0 1.76-0.080l26.8-1.68c2.4-0.16 4.72-0.96 6.56-2.24h85.92z"></path>
<path fill="#4d4e4e" d="M202.16 175.36h61.28v14.56h-61.28v-14.56z"></path>
<path fill="#28aae1" d="M204.64 147.84l-26.8 1.68c-1.36 0.080-2.72-0.32-3.84-1.2l-16.96-13.040c-2.48-3.84-6.56-6.72-11.52-7.52l-4.56-0.72c-9.2-1.44-17.84 4.8-19.28 14l-10.4 65.6c-1.44 9.2 4.8 17.84 14 19.28l4.56 0.72c2 0.32 3.92 0.24 5.84-0.080l34 5.12c0.96 0.16 1.68 0.88 1.84 1.84l8.96 52.16c0.8 4.48 4.72 7.68 9.12 7.68 0.56 0 1.040-0.080 1.6-0.16 5.040-0.88 8.48-5.68 7.6-10.72l-8.96-52.16c-1.52-8.8-8.48-15.68-17.36-17.040l-22.88-3.44 8.24-51.76 5.44 4.16c4.080 3.12 9.12 4.8 14.24 4.8 0.48 0 0.96 0 1.44-0.080l26.8-1.68c4.88-0.32 8.56-4.48 8.24-9.36-0.32-4.64-4.48-8.32-9.36-8.080z"></path>
<path fill="#28aae1" d="M166.64 103.84c0 10.56-8.56 19.12-19.12 19.12s-19.12-8.56-19.12-19.12c0-10.56 8.56-19.12 19.12-19.12 10.48 0 19.12 8.56 19.12 19.12z"></path>
</svg>
