<!-- Generated by IcoMoon.io -->
<svg version="1.1" xmlns="http://www.w3.org/2000/svg" width="400" height="400" viewBox="0 0 400 400">
<title>ol-icon-1</title>
<path fill="#4d4e4e" d="M199.12 165.2c15.36 0 27.84-12.48 27.84-27.84s-12.48-27.84-27.84-27.84c-15.36 0-27.84 12.48-27.84 27.84-0.080 15.36 12.4 27.84 27.84 27.84z"></path>
<path fill="#28aae1" d="M277.68 188.8l-0.32 0.16-26.88 14.48c-1.76 0.56-15.92 5.76-16.24 21.36 0 0.080 0 0.16 0 0.24v30.16h-70.32v-30.16c0-2.56-1.76-4.56-4-4.56s-4 2.080-4 4.56v30.16h-19.36v-50.32c0-15.36 12.96-27.92 28.32-27.92h68.32c0.32 0 0.56 0 0.88 0.080v0c0 0 0.16 0 0.32 0 0.8 0.080 1.52 0.080 2.24 0.16 4.88 0.4 15.36 0.96 18.72-0.24 0.080 0 0.16 0 0.24-0.080l11.6-6.24c1.44-0.96 2.16-2.64 1.76-4.32l-0.16-1.12-4.64-41.52c-0.64-5.76 3.52-10.88 9.2-11.52 5.76-0.64 10.88 3.52 11.6 9.2l4.56 41.040c2 10.48-2.64 20.96-11.84 26.4z"></path>
<path fill="#4d4e4e" d="M83.76 264.8h230.64v10.24h-230.64v-10.24z"></path>
</svg>
