<?xml version="1.0" encoding="utf-8"?>
<!-- Generator: Adobe Illustrator 21.0.0, SVG Export Plug-In . SVG Version: 6.00 Build 0)  -->
<svg version="1.1" id="Layer_1" xmlns="http://www.w3.org/2000/svg" xmlns:xlink="http://www.w3.org/1999/xlink" x="0px" y="0px"
	 viewBox="0 0 395 118" style="enable-background:new 0 0 395 118;" xml:space="preserve">
<style type="text/css">
	.st0{fill:none;}
	.st1{fill:#0E53A0;}
	.st2{clip-path:url(#XMLID_91_);fill:#0E53A0;}
	.st3{clip-path:url(#XMLID_94_);fill:#0E53A0;}
	.st4{clip-path:url(#XMLID_94_);fill:#EAEAE9;}
	.st5{clip-path:url(#XMLID_94_);fill:#E31E26;}
	.st6{fill:#FFFFFF;}
	.st7{fill:#E31E26;}
</style>
<rect id="XMLID_85_" x="-34.1" y="-214.2" class="st0" width="519.1" height="581.4"/>
<rect id="XMLID_84_" x="-34.1" y="-214.2" class="st0" width="519.1" height="581.4"/>
<g id="XMLID_87_">
	<polygon id="XMLID_83_" class="st1" points="112,58.3 123.1,58.3 123.1,96.9 147,96.9 147,105.9 112,105.9 	"/>
	<path id="XMLID_216_" class="st1" d="M159.2,104.1c-3.1-1.6-5.5-3.8-7.2-6.7c-1.7-2.9-2.6-6.1-2.6-9.7c0-3.6,0.9-6.9,2.6-9.7
		c1.7-2.9,4.1-5.1,7.2-6.7c3.1-1.6,6.5-2.4,10.4-2.4c3.9,0,7.3,0.8,10.3,2.4c3,1.6,5.4,3.8,7.1,6.7c1.7,2.9,2.6,6.1,2.6,9.7
		c0,3.6-0.9,6.9-2.6,9.7c-1.7,2.9-4.1,5.1-7.1,6.7c-3,1.6-6.5,2.4-10.3,2.4C165.7,106.5,162.3,105.7,159.2,104.1 M176.3,95
		c1.7-1.8,2.6-4.3,2.6-7.4c0-3.1-0.9-5.5-2.6-7.4c-1.7-1.8-4-2.8-6.7-2.8c-2.7,0-5,0.9-6.7,2.8c-1.8,1.8-2.7,4.3-2.7,7.4
		c0,3.1,0.9,5.5,2.7,7.4c1.8,1.8,4,2.8,6.7,2.8C172.3,97.8,174.5,96.8,176.3,95"/>
	<path id="XMLID_80_" class="st1" d="M230,72.8c2.8,2.7,4.2,6.8,4.2,12.1v21h-10.6V86.6c0-2.9-0.6-5.1-1.9-6.5
		c-1.3-1.4-3.1-2.1-5.5-2.1c-2.7,0-4.8,0.8-6.4,2.5c-1.6,1.7-2.4,4.1-2.4,7.4v18.1h-10.6V69.3h10.1v4.3c1.4-1.5,3.2-2.7,5.2-3.6
		c2.1-0.8,4.4-1.3,6.9-1.3C223.5,68.8,227.2,70.1,230,72.8"/>
	<path id="XMLID_212_" class="st1" d="M281.5,55.4v50.5h-10.1v-4.2c-2.6,3.2-6.4,4.8-11.4,4.8c-3.5,0-6.6-0.8-9.4-2.3
		c-2.8-1.5-5-3.7-6.6-6.6c-1.6-2.9-2.4-6.2-2.4-9.9c0-3.8,0.8-7.1,2.4-9.9c1.6-2.9,3.8-5.1,6.6-6.6c2.8-1.5,5.9-2.3,9.4-2.3
		c4.7,0,8.3,1.5,11,4.4V55.4H281.5z M268.4,95c1.8-1.8,2.7-4.3,2.7-7.4c0-3.1-0.9-5.5-2.7-7.4c-1.8-1.8-4-2.8-6.7-2.8
		c-2.7,0-5,0.9-6.7,2.8c-1.8,1.8-2.7,4.3-2.7,7.4c0,3.1,0.9,5.5,2.7,7.4c1.8,1.8,4,2.8,6.7,2.8C264.4,97.8,266.7,96.8,268.4,95"/>
	<path id="XMLID_209_" class="st1" d="M298.3,104.1c-3.1-1.6-5.5-3.8-7.2-6.7c-1.7-2.9-2.6-6.1-2.6-9.7c0-3.6,0.9-6.9,2.6-9.7
		c1.7-2.9,4.1-5.1,7.2-6.7c3.1-1.6,6.5-2.4,10.4-2.4c3.9,0,7.3,0.8,10.3,2.4c3,1.6,5.4,3.8,7.1,6.7c1.7,2.9,2.6,6.1,2.6,9.7
		c0,3.6-0.9,6.9-2.6,9.7c-1.7,2.9-4.1,5.1-7.1,6.7c-3,1.6-6.5,2.4-10.3,2.4C304.9,106.5,301.4,105.7,298.3,104.1 M315.4,95
		c1.7-1.8,2.6-4.3,2.6-7.4c0-3.1-0.9-5.5-2.6-7.4c-1.7-1.8-4-2.8-6.7-2.8c-2.7,0-5,0.9-6.7,2.8c-1.8,1.8-2.7,4.3-2.7,7.4
		c0,3.1,0.9,5.5,2.7,7.4c1.8,1.8,4,2.8,6.7,2.8C311.4,97.8,313.7,96.8,315.4,95"/>
	<path id="XMLID_75_" class="st1" d="M369.1,72.8c2.8,2.7,4.2,6.8,4.2,12.1v21h-10.6V86.6c0-2.9-0.6-5.1-1.9-6.5
		c-1.3-1.4-3.1-2.1-5.5-2.1c-2.7,0-4.8,0.8-6.4,2.5c-1.6,1.7-2.4,4.1-2.4,7.4v18.1h-10.6V69.3H346v4.3c1.4-1.5,3.2-2.7,5.2-3.6
		c2.1-0.8,4.4-1.3,6.9-1.3C362.7,68.8,366.4,70.1,369.1,72.8"/>
	<rect id="XMLID_74_" x="-24.7" y="-177.1" class="st0" width="448.7" height="502.5"/>
	<g id="XMLID_176_">
		<defs>
			<rect id="XMLID_50_" x="-24.7" y="-177.1" width="448.7" height="502.5"/>
		</defs>
		<clipPath id="XMLID_91_">
			<use xlink:href="#XMLID_50_"  style="overflow:visible;"/>
		</clipPath>
		<path id="XMLID_73_" class="st2" d="M116,46.1c-1.4-0.4-2.5-0.9-3.4-1.6l1.7-4.2c0.8,0.6,1.8,1.1,2.9,1.4c1.1,0.4,2.1,0.5,3.2,0.5
			c2,0,3-0.5,3-1.6c0-0.6-0.3-1-0.9-1.3c-0.6-0.3-1.5-0.6-2.7-0.9c-1.4-0.3-2.5-0.7-3.5-1c-0.9-0.4-1.7-1-2.4-1.8
			c-0.7-0.8-1-1.9-1-3.3c0-1.2,0.3-2.3,0.9-3.3c0.6-1,1.5-1.8,2.7-2.3c1.2-0.6,2.7-0.9,4.5-0.9c1.2,0,2.4,0.1,3.6,0.4
			c1.2,0.3,2.2,0.7,3.1,1.3l-1.6,4.2c-1.7-1-3.4-1.5-5.1-1.5c-1,0-1.8,0.2-2.2,0.5c-0.5,0.3-0.7,0.8-0.7,1.3c0,0.5,0.3,0.9,0.8,1.2
			c0.6,0.3,1.5,0.5,2.7,0.8c1.4,0.3,2.6,0.7,3.5,1c0.9,0.4,1.7,1,2.4,1.8c0.7,0.8,1,1.9,1,3.3c0,1.2-0.3,2.3-0.9,3.3
			c-0.6,1-1.5,1.7-2.7,2.3c-1.2,0.6-2.7,0.9-4.4,0.9C118.8,46.7,117.4,46.5,116,46.1"/>
		<path id="XMLID_72_" class="st2" d="M133.6,45.5c-1.2-0.7-2.2-1.6-2.9-2.9c-0.7-1.2-1-2.6-1-4.1s0.3-2.9,1-4.1
			c0.7-1.2,1.7-2.2,2.9-2.8c1.2-0.7,2.6-1,4.2-1c1.6,0,3,0.4,4.2,1.1c1.2,0.8,2,1.8,2.5,3.1l-3.8,2.1c-0.6-1.4-1.6-2.1-2.8-2.1
			c-0.9,0-1.6,0.3-2.2,1c-0.6,0.6-0.9,1.5-0.9,2.7c0,1.2,0.3,2.1,0.9,2.7c0.6,0.7,1.3,1,2.2,1c1.2,0,2.2-0.7,2.8-2.1l3.8,2.1
			c-0.5,1.3-1.3,2.4-2.5,3.1c-1.2,0.8-2.6,1.1-4.2,1.1C136.2,46.6,134.8,46.2,133.6,45.5"/>
		<path id="XMLID_71_" class="st2" d="M159.8,32.3c1.1,1.1,1.6,2.9,1.6,5.2v8.9h-5v-8c0-2.1-0.8-3.2-2.3-3.2c-0.9,0-1.5,0.3-2.1,0.9
			c-0.5,0.6-0.8,1.5-0.8,2.7v7.5h-5V25.1h5v7.1c0.5-0.6,1.2-1,1.9-1.3c0.7-0.3,1.5-0.4,2.4-0.4C157.3,30.5,158.7,31.1,159.8,32.3"/>
		<path id="XMLID_201_" class="st2" d="M167.7,45.5c-1.2-0.7-2.2-1.6-2.9-2.9c-0.7-1.2-1-2.6-1-4.1c0-1.5,0.3-2.9,1-4.1
			c0.7-1.2,1.6-2.2,2.9-2.8c1.2-0.7,2.6-1,4.1-1s2.9,0.3,4.1,1c1.2,0.7,2.2,1.6,2.9,2.8c0.7,1.2,1,2.6,1,4.1c0,1.5-0.3,2.9-1,4.1
			c-0.7,1.2-1.6,2.2-2.9,2.9c-1.2,0.7-2.6,1-4.1,1C170.3,46.6,168.9,46.2,167.7,45.5 M174,41.2c0.6-0.7,0.8-1.6,0.8-2.7
			c0-1.1-0.3-2-0.8-2.7c-0.6-0.6-1.3-1-2.1-1c-0.9,0-1.6,0.3-2.1,1c-0.6,0.6-0.8,1.5-0.8,2.7c0,1.2,0.3,2.1,0.8,2.7
			c0.6,0.7,1.3,1,2.1,1C172.7,42.2,173.4,41.9,174,41.2"/>
		<path id="XMLID_198_" class="st2" d="M185.1,45.5c-1.2-0.7-2.2-1.6-2.9-2.9c-0.7-1.2-1-2.6-1-4.1c0-1.5,0.3-2.9,1-4.1
			c0.7-1.2,1.6-2.2,2.9-2.8c1.2-0.7,2.6-1,4.1-1c1.5,0,2.9,0.3,4.1,1c1.2,0.7,2.2,1.6,2.9,2.8c0.7,1.2,1,2.6,1,4.1
			c0,1.5-0.3,2.9-1,4.1c-0.7,1.2-1.6,2.2-2.9,2.9c-1.2,0.7-2.6,1-4.1,1C187.7,46.6,186.3,46.2,185.1,45.5 M191.4,41.2
			c0.6-0.7,0.8-1.6,0.8-2.7c0-1.1-0.3-2-0.8-2.7c-0.6-0.6-1.3-1-2.1-1s-1.6,0.3-2.1,1c-0.6,0.6-0.8,1.5-0.8,2.7
			c0,1.2,0.3,2.1,0.8,2.7c0.6,0.7,1.3,1,2.1,1S190.8,41.9,191.4,41.2"/>
		<rect id="XMLID_66_" x="199.5" y="25.1" class="st2" width="5" height="21.2"/>
		<path id="XMLID_194_" class="st2" d="M218.3,45.5c-1.2-0.7-2.2-1.6-2.9-2.9c-0.7-1.2-1-2.6-1-4.1c0-1.5,0.3-2.9,1-4.1
			c0.7-1.2,1.6-2.2,2.9-2.8c1.2-0.7,2.6-1,4.1-1c1.5,0,2.9,0.3,4.1,1c1.2,0.7,2.2,1.6,2.9,2.8c0.7,1.2,1,2.6,1,4.1
			c0,1.5-0.3,2.9-1,4.1c-0.7,1.2-1.6,2.2-2.9,2.9c-1.2,0.7-2.6,1-4.1,1C220.9,46.6,219.6,46.2,218.3,45.5 M224.6,41.2
			c0.6-0.7,0.8-1.6,0.8-2.7c0-1.1-0.3-2-0.8-2.7c-0.6-0.6-1.3-1-2.1-1c-0.9,0-1.6,0.3-2.1,1c-0.6,0.6-0.8,1.5-0.8,2.7
			c0,1.2,0.3,2.1,0.8,2.7c0.6,0.7,1.3,1,2.1,1C223.3,42.2,224,41.9,224.6,41.2"/>
		<path id="XMLID_63_" class="st2" d="M238.2,31.4h3.4v4.1h-3.2v10.9h-5V35.4h-2.1v-4.1h2.1V31c0-1.9,0.5-3.4,1.6-4.5
			c1-1.1,2.5-1.7,4.4-1.7c0.6,0,1.2,0.1,1.8,0.2c0.6,0.1,1.1,0.3,1.5,0.6l-1.2,3.8c-0.5-0.3-1-0.5-1.5-0.5c-0.5,0-0.9,0.2-1.2,0.5
			c-0.3,0.3-0.4,0.8-0.4,1.5V31.4z"/>
		<path id="XMLID_189_" class="st2" d="M267.7,37.7c0.6,0.8,0.9,1.9,0.9,3.1c0,1.8-0.6,3.1-1.9,4.1c-1.3,1-3.2,1.4-5.6,1.4h-9.9v-20
			h9.4c2.3,0,4.1,0.5,5.3,1.4c1.2,0.9,1.8,2.2,1.8,3.8c0,1-0.2,1.8-0.6,2.6c-0.4,0.8-1,1.3-1.8,1.8
			C266.3,36.3,267.2,36.9,267.7,37.7 M256.3,30.4v3.9h3.6c1.7,0,2.6-0.6,2.6-1.9c0-1.3-0.9-1.9-2.6-1.9H256.3z M263.4,40.2
			c0-1.4-0.9-2-2.7-2h-4.3v4.1h4.3C262.5,42.2,263.4,41.5,263.4,40.2"/>
		<path id="XMLID_59_" class="st2" d="M286,30.8v15.5h-4.7v-1.7c-0.5,0.6-1.2,1.1-1.9,1.4c-0.7,0.3-1.5,0.5-2.3,0.5
			c-1.8,0-3.3-0.6-4.4-1.8c-1.1-1.2-1.6-3-1.6-5.3v-8.7h5v7.8c0,1.2,0.2,2,0.6,2.5c0.4,0.5,1,0.8,1.8,0.8c0.8,0,1.4-0.3,1.9-0.9
			c0.5-0.6,0.7-1.5,0.7-2.8v-7.5H286z"/>
		<path id="XMLID_58_" class="st2" d="M290.8,46.1c-1.2-0.3-2.1-0.7-2.8-1.2l1.5-3.7c0.6,0.4,1.4,0.8,2.3,1c0.9,0.3,1.8,0.4,2.6,0.4
			c0.8,0,1.4-0.1,1.7-0.3c0.3-0.2,0.5-0.4,0.5-0.8c0-0.3-0.2-0.6-0.6-0.7c-0.4-0.1-1.1-0.3-1.9-0.4c-1.1-0.2-2.1-0.4-2.9-0.6
			c-0.8-0.2-1.5-0.7-2.1-1.4c-0.6-0.7-0.9-1.6-0.9-2.8c0-1,0.3-1.9,0.8-2.6c0.5-0.8,1.3-1.4,2.4-1.8c1-0.4,2.3-0.7,3.7-0.7
			c1,0,2,0.1,3.1,0.3c1,0.2,1.9,0.6,2.5,1l-1.5,3.7c-1.3-0.8-2.6-1.1-4.1-1.1c-0.8,0-1.4,0.1-1.7,0.3c-0.4,0.2-0.5,0.5-0.5,0.8
			c0,0.4,0.2,0.6,0.6,0.8c0.4,0.1,1.1,0.3,2,0.4c1.2,0.2,2.1,0.4,2.9,0.7c0.8,0.2,1.4,0.7,2,1.4c0.6,0.7,0.8,1.6,0.8,2.8
			c0,1-0.3,1.8-0.8,2.6c-0.5,0.8-1.3,1.4-2.4,1.8c-1.1,0.4-2.3,0.7-3.8,0.7C293.2,46.6,292,46.4,290.8,46.1"/>
		<path id="XMLID_184_" class="st2" d="M303.8,28.3c-0.6-0.6-0.8-1.2-0.8-2.1c0-0.8,0.3-1.5,0.8-2.1c0.6-0.6,1.3-0.8,2.2-0.8
			c0.9,0,1.6,0.3,2.2,0.8c0.6,0.5,0.8,1.2,0.8,2c0,0.9-0.3,1.6-0.8,2.1c-0.6,0.6-1.3,0.8-2.2,0.8C305.1,29.1,304.3,28.8,303.8,28.3
			 M303.5,30.8h5v15.5h-5V30.8z"/>
		<path id="XMLID_55_" class="st2" d="M325.2,32.3c1.1,1.1,1.6,2.9,1.6,5.2v8.9h-5v-8c0-2.1-0.8-3.2-2.3-3.2c-0.9,0-1.5,0.3-2.1,0.9
			c-0.5,0.6-0.8,1.5-0.8,2.7v7.5h-5V30.8h4.7v1.7c0.6-0.6,1.2-1.1,2-1.4c0.8-0.3,1.6-0.5,2.5-0.5C322.7,30.5,324.1,31.1,325.2,32.3"
			/>
		<path id="XMLID_180_" class="st2" d="M344.5,39.9h-10.3c0.2,0.8,0.6,1.4,1.2,1.8c0.6,0.4,1.4,0.6,2.3,0.6c0.7,0,1.3-0.1,1.8-0.3
			c0.5-0.2,1-0.6,1.5-1l2.6,3c-1.4,1.7-3.4,2.5-6,2.5c-1.7,0-3.1-0.3-4.4-1c-1.3-0.7-2.2-1.6-2.9-2.9c-0.7-1.2-1-2.6-1-4.1
			c0-1.5,0.3-2.9,1-4.1c0.7-1.2,1.6-2.2,2.8-2.8c1.2-0.7,2.5-1,4-1c1.4,0,2.7,0.3,3.8,1c1.2,0.6,2.1,1.6,2.7,2.8
			c0.7,1.2,1,2.6,1,4.3C344.6,38.6,344.6,39.1,344.5,39.9 M335.1,35.1c-0.5,0.5-0.8,1.1-1,1.9h5.8c-0.1-0.8-0.5-1.5-1-1.9
			c-0.5-0.5-1.2-0.7-1.9-0.7C336.3,34.4,335.6,34.6,335.1,35.1"/>
		<path id="XMLID_52_" class="st2" d="M348.5,46.1c-1.2-0.3-2.1-0.7-2.8-1.2l1.5-3.7c0.6,0.4,1.4,0.8,2.3,1c0.9,0.3,1.8,0.4,2.6,0.4
			c0.8,0,1.4-0.1,1.7-0.3s0.5-0.4,0.5-0.8c0-0.3-0.2-0.6-0.6-0.7c-0.4-0.1-1.1-0.3-1.9-0.4c-1.1-0.2-2.1-0.4-2.9-0.6
			c-0.8-0.2-1.5-0.7-2.1-1.4c-0.6-0.7-0.9-1.6-0.9-2.8c0-1,0.3-1.9,0.8-2.6c0.5-0.8,1.3-1.4,2.4-1.8c1-0.4,2.3-0.7,3.7-0.7
			c1,0,2,0.1,3.1,0.3c1,0.2,1.9,0.6,2.5,1l-1.5,3.7c-1.3-0.8-2.6-1.1-4.1-1.1c-0.8,0-1.4,0.1-1.7,0.3c-0.4,0.2-0.5,0.5-0.5,0.8
			c0,0.4,0.2,0.6,0.6,0.8c0.4,0.1,1.1,0.3,2,0.4c1.2,0.2,2.1,0.4,2.9,0.7c0.8,0.2,1.4,0.7,2,1.4c0.6,0.7,0.8,1.6,0.8,2.8
			c0,1-0.3,1.8-0.8,2.6c-0.5,0.8-1.3,1.4-2.4,1.8c-1.1,0.4-2.3,0.7-3.8,0.7C350.9,46.6,349.7,46.4,348.5,46.1"/>
		<path id="XMLID_51_" class="st2" d="M362.9,46.1c-1.2-0.3-2.1-0.7-2.8-1.2l1.5-3.7c0.6,0.4,1.4,0.8,2.3,1c0.9,0.3,1.8,0.4,2.6,0.4
			c0.8,0,1.4-0.1,1.7-0.3s0.5-0.4,0.5-0.8c0-0.3-0.2-0.6-0.6-0.7c-0.4-0.1-1.1-0.3-1.9-0.4c-1.1-0.2-2.1-0.4-2.9-0.6
			c-0.8-0.2-1.5-0.7-2.1-1.4c-0.6-0.7-0.9-1.6-0.9-2.8c0-1,0.3-1.9,0.8-2.6c0.5-0.8,1.3-1.4,2.4-1.8c1-0.4,2.3-0.7,3.7-0.7
			c1,0,2,0.1,3.1,0.3c1,0.2,1.9,0.6,2.5,1l-1.5,3.7c-1.3-0.8-2.6-1.1-4.1-1.1c-0.8,0-1.4,0.1-1.7,0.3c-0.4,0.2-0.5,0.5-0.5,0.8
			c0,0.4,0.2,0.6,0.6,0.8c0.4,0.1,1.1,0.3,2,0.4c1.2,0.2,2.1,0.4,2.9,0.7c0.8,0.2,1.4,0.7,2,1.4c0.6,0.7,0.8,1.6,0.8,2.8
			c0,1-0.3,1.8-0.8,2.6c-0.5,0.8-1.3,1.4-2.4,1.8c-1.1,0.4-2.3,0.7-3.8,0.7C365.2,46.6,364,46.4,362.9,46.1"/>
	</g>
	<g id="XMLID_88_">
		<g id="XMLID_169_">
			<defs>
				<rect id="XMLID_44_" x="-34.1" y="-214.2" width="519.1" height="581.4"/>
			</defs>
			<clipPath id="XMLID_94_">
				<use xlink:href="#XMLID_44_"  style="overflow:visible;"/>
			</clipPath>
			<path id="XMLID_49_" class="st3" d="M60.9,21.2H22.8v43c0,11.2,2.6,24.4,13.2,31.7c10.8,7.4,24.2,15,24.9,17.5
				c0.7-2.5,14.1-10,24.9-17.5c10.6-7.3,13.2-20.5,13.2-31.7v-43H60.9z"/>
			<path id="XMLID_48_" class="st4" d="M60.9,103.6c-2.4-1.7-5.6-3.8-9.9-6.5c-3.7-2.3-7.5-4.8-11-7.2c-8.4-5.8-10.1-17.2-10.1-25.8
				V28.3h62v35.8c0,8.6-1.8,20-10.1,25.8c-3.5,2.4-7.3,4.9-11,7.2C66.5,99.8,63.3,101.9,60.9,103.6"/>
			<path id="XMLID_47_" class="st5" d="M61.2,29.4v27.1c2.5,0.3,4.5,2.4,4.5,5c0,0.5-0.1,1-0.2,1.5l23.8,13.4
				c1-3.6,1.5-7.7,1.5-12.3V29.4H61.2z"/>
			<path id="XMLID_46_" class="st5" d="M60.6,66.6c-1.9,0-3.5-1-4.4-2.5L32.9,77.7c1.6,5,4.2,8.8,7.8,11.3c3.5,2.4,7.3,4.8,11,7.2
				c3.8,2.4,6.9,4.4,9.3,6.1c2.4-1.7,5.5-3.7,9.3-6.1c3.6-2.3,7.4-4.7,10.9-7.2c3.6-2.5,6.3-6.4,7.9-11.5L65,64
				C64.2,65.5,62.5,66.6,60.6,66.6"/>
			<path id="XMLID_45_" class="st5" d="M60.1,56.5V29.4H31v34.7c0,4.7,0.5,8.9,1.5,12.5L55.8,63c-0.2-0.5-0.2-1-0.2-1.5
				C55.6,58.9,57.6,56.8,60.1,56.5"/>
		</g>
		<path id="XMLID_43_" class="st1" d="M65.8,61.5c0,2.8-2.3,5.1-5.1,5.1s-5.1-2.3-5.1-5.1c0-2.8,2.3-5.1,5.1-5.1
			S65.8,58.6,65.8,61.5"/>
		<path id="XMLID_165_" class="st6" d="M64.8,60.3h-3.2l-1-3l-1,3h-3.2l2.6,1.9l-1,3l2.6-1.9l2.6,1.9l-1-3L64.8,60.3z M60.7,62.6
			l-1.5,1.1l0.6-1.8l-1.5-1.1h1.9l0.6-1.8l0.6,1.8h1.9l-1.5,1.1l0.6,1.8L60.7,62.6z"/>
		<path id="XMLID_159_" class="st7" d="M98.8,19.2H66.3c1-1.9,2.3-3.9,3.4-5c0.2,0.2,0.5,0.2,0.7,0c0.3-0.2,0.3-0.9,1.2-1.7
			c-0.9,0.8-1.5,0.7-1.8,0.9c-0.3,0.2-0.4,0.5-0.2,0.8c-0.6,0.3-2.1,1-3,0c-1.1-1.2-1.1-2.6-0.5-4.2c0.4,0.2,0.7,0,0.9-0.4
			c0.2-0.4-0.1-1.2,0.7-2.7c-0.8,1.4-1.6,1.6-1.8,2c-0.2,0.4-0.2,0.8,0.1,1c-0.4,0.5-1.4,1.7-3.1,1.3c-1.4-0.3-1.9-2.1-2-3
			c0.6,0,0.8-0.5,0.8-1.1c0-0.6-0.8-1.4-0.9-3.5c-0.1,2.2-0.9,2.9-0.9,3.5c0,0.6,0.2,1.1,0.8,1.1c-0.1,0.8-0.6,2.6-2,3
			c-1.7,0.4-2.7-0.8-3.1-1.3c0.4-0.2,0.4-0.6,0.1-1c-0.2-0.4-1-0.6-1.8-2c0.7,1.4,0.4,2.2,0.7,2.7c0.2,0.4,0.5,0.6,0.9,0.4
			c0.5,1.6,0.6,3-0.5,4.2c-1,1-2.4,0.3-3,0c0.2-0.3,0.1-0.5-0.2-0.8c-0.3-0.2-0.9-0.1-1.8-0.9c0.9,0.8,0.9,1.4,1.2,1.7
			c0.3,0.2,0.5,0.3,0.7,0c1.1,1.1,2.4,3,3.4,5H22.9c-0.2,0-0.4,0.2-0.4,0.4c0,0.2,0.2,0.4,0.4,0.4h33.6c0.2,0,0.3-0.1,0.4-0.2
			c0.1-0.3,1-1.6,4-1.6s3.8,1.4,4,1.6c0.1,0.1,0.2,0.2,0.4,0.2h33.6c0.2,0,0.4-0.2,0.4-0.4C99.2,19.4,99.1,19.2,98.8,19.2
			 M64.1,13.2c-0.6,1.4-1,2.9-1.3,4.4c-0.5-0.1-1-0.2-1.5-0.2c0-1.4,0-3.1,0-4.5C62,13.5,63.2,13.6,64.1,13.2 M60.4,12.8
			c0,1.4,0,3.1,0,4.6c-0.6,0-1.1,0.1-1.5,0.2c-0.4-1.5-0.7-3-1.4-4.4C58.4,13.6,59.6,13.5,60.4,12.8 M56.3,19.2
			c-0.7-1.2-1.6-2.6-2.2-3.4c0.8,0.1,2.3-0.1,2.7-1.9c0.5,1.3,0.9,2.7,1.2,4.1C57.2,18.2,56.7,18.7,56.3,19.2 M63.6,17.8
			c0.3-1.4,0.7-2.7,1.2-4c0.4,1.9,2,2.1,2.7,1.9c-0.6,0.8-1.5,2.2-2.1,3.3C65,18.6,64.4,18.1,63.6,17.8"/>
		<g id="XMLID_106_">
			<path id="XMLID_157_" class="st6" d="M30.6,24.3c-0.1,0-0.1,0.1-0.1,0.2c0,0.1,0,0.1,0.1,0.2c0.1,0,0.2,0.1,0.5,0.2
				c0.2,0.1,0.4,0.2,0.6,0.3c0.1,0.1,0.2,0.3,0.2,0.5s-0.1,0.4-0.3,0.6c-0.2,0.1-0.4,0.2-0.7,0.2c-0.4,0-0.8-0.2-1.1-0.5l0.3-0.4
				c0.3,0.2,0.5,0.4,0.8,0.4c0.1,0,0.2,0,0.3-0.1c0.1,0,0.1-0.1,0.1-0.2c0-0.1,0-0.1-0.1-0.2c-0.1,0-0.2-0.1-0.4-0.1
				c-0.3-0.1-0.5-0.2-0.7-0.3c-0.1-0.1-0.2-0.3-0.2-0.5s0.1-0.4,0.3-0.6c0.2-0.1,0.4-0.2,0.7-0.2c0.2,0,0.3,0,0.5,0.1
				c0.2,0.1,0.3,0.1,0.5,0.3l-0.3,0.4c-0.2-0.2-0.5-0.3-0.7-0.3C30.7,24.2,30.6,24.2,30.6,24.3z"/>
			<path id="XMLID_155_" class="st6" d="M33.5,25.8c0.3,0,0.5-0.1,0.7-0.3l0.4,0.4c-0.3,0.3-0.6,0.5-1,0.5c-0.4,0-0.7-0.1-1-0.4
				c-0.3-0.3-0.4-0.6-0.4-1c0-0.4,0.1-0.7,0.4-1c0.3-0.3,0.6-0.4,1-0.4c0.4,0,0.8,0.2,1.1,0.5l-0.4,0.4c-0.2-0.2-0.4-0.3-0.7-0.3
				c-0.2,0-0.4,0.1-0.6,0.2c-0.2,0.1-0.2,0.3-0.2,0.6c0,0.2,0.1,0.4,0.2,0.6C33.1,25.8,33.3,25.8,33.5,25.8z"/>
			<path id="XMLID_153_" class="st6" d="M36.6,23.7h0.6v2.6h-0.6v-1h-1v1H35v-2.6h0.6v1.1h1V23.7z"/>
			<path id="XMLID_150_" class="st6" d="M40,26c-0.3,0.3-0.6,0.4-1,0.4s-0.7-0.1-1-0.4c-0.3-0.3-0.4-0.6-0.4-1c0-0.4,0.1-0.7,0.4-1
				c0.3-0.3,0.6-0.4,1-0.4s0.7,0.1,1,0.4c0.3,0.3,0.4,0.6,0.4,1C40.4,25.4,40.3,25.7,40,26z M39.8,25c0-0.2-0.1-0.4-0.2-0.6
				c-0.1-0.2-0.3-0.2-0.5-0.2c-0.2,0-0.4,0.1-0.5,0.2c-0.1,0.2-0.2,0.4-0.2,0.6c0,0.2,0.1,0.4,0.2,0.6c0.1,0.2,0.3,0.2,0.5,0.2
				c0.2,0,0.4-0.1,0.5-0.2C39.8,25.5,39.8,25.3,39.8,25z"/>
			<path id="XMLID_147_" class="st6" d="M43.1,26c-0.3,0.3-0.6,0.4-1,0.4s-0.7-0.1-1-0.4c-0.3-0.3-0.4-0.6-0.4-1
				c0-0.4,0.1-0.7,0.4-1c0.3-0.3,0.6-0.4,1-0.4s0.7,0.1,1,0.4c0.3,0.3,0.4,0.6,0.4,1C43.5,25.4,43.4,25.7,43.1,26z M42.9,25
				c0-0.2-0.1-0.4-0.2-0.6c-0.1-0.2-0.3-0.2-0.5-0.2c-0.2,0-0.4,0.1-0.5,0.2c-0.1,0.2-0.2,0.4-0.2,0.6c0,0.2,0.1,0.4,0.2,0.6
				c0.1,0.2,0.3,0.2,0.5,0.2c0.2,0,0.4-0.1,0.5-0.2C42.8,25.5,42.9,25.3,42.9,25z"/>
			<path id="XMLID_145_" class="st6" d="M44,26.3v-2.6h0.6v2.1h1.1v0.5H44z"/>
			<path id="XMLID_142_" class="st6" d="M49.2,26c-0.3,0.3-0.6,0.4-1,0.4c-0.4,0-0.7-0.1-1-0.4c-0.3-0.3-0.4-0.6-0.4-1
				c0-0.4,0.1-0.7,0.4-1c0.3-0.3,0.6-0.4,1-0.4c0.4,0,0.7,0.1,1,0.4c0.3,0.3,0.4,0.6,0.4,1C49.6,25.4,49.5,25.7,49.2,26z M49,25
				c0-0.2-0.1-0.4-0.2-0.6c-0.1-0.2-0.3-0.2-0.5-0.2c-0.2,0-0.4,0.1-0.5,0.2c-0.1,0.2-0.2,0.4-0.2,0.6c0,0.2,0.1,0.4,0.2,0.6
				c0.1,0.2,0.3,0.2,0.5,0.2c0.2,0,0.4-0.1,0.5-0.2C49,25.5,49,25.3,49,25z"/>
			<path id="XMLID_140_" class="st6" d="M51.9,23.7v0.5h-1.2v0.6h1.1v0.5h-1.1v1h-0.6v-2.6H51.9z"/>
			<path id="XMLID_136_" class="st6" d="M54.5,26.3h-1.1v-2.6h1c0.2,0,0.3,0,0.5,0.1c0.1,0,0.2,0.1,0.3,0.2c0.1,0.1,0.2,0.3,0.2,0.5
				c0,0.2-0.1,0.4-0.2,0.5c0,0-0.1,0.1-0.1,0.1c0,0,0,0-0.1,0c0.2,0,0.3,0.1,0.4,0.2c0.1,0.1,0.1,0.2,0.1,0.4c0,0.2-0.1,0.3-0.2,0.5
				C55.1,26.3,54.9,26.3,54.5,26.3z M54,24.8h0.3c0.2,0,0.3,0,0.4-0.1c0.1,0,0.1-0.1,0.1-0.2c0-0.1,0-0.2-0.1-0.2
				c-0.1,0-0.2-0.1-0.4-0.1H54V24.8z M54,25.8h0.4c0.2,0,0.3,0,0.4-0.1c0.1,0,0.1-0.1,0.1-0.2c0-0.1,0-0.2-0.1-0.2
				c-0.1,0-0.2-0.1-0.4-0.1H54V25.8z"/>
			<path id="XMLID_134_" class="st6" d="M56.6,25.7c0.1,0.1,0.2,0.2,0.4,0.2s0.3-0.1,0.4-0.2c0.1-0.1,0.1-0.3,0.1-0.5v-1.4h0.6v1.5
				c0,0.4-0.1,0.7-0.3,0.9c-0.2,0.2-0.5,0.3-0.8,0.3c-0.3,0-0.6-0.1-0.8-0.3c-0.2-0.2-0.3-0.5-0.3-0.9v-1.5h0.6v1.4
				C56.5,25.4,56.5,25.5,56.6,25.7z"/>
			<path id="XMLID_132_" class="st6" d="M59.3,24.3c-0.1,0-0.1,0.1-0.1,0.2c0,0.1,0,0.1,0.1,0.2c0.1,0,0.2,0.1,0.5,0.2
				c0.2,0.1,0.4,0.2,0.6,0.3c0.1,0.1,0.2,0.3,0.2,0.5s-0.1,0.4-0.3,0.6c-0.2,0.1-0.4,0.2-0.7,0.2c-0.4,0-0.8-0.2-1.1-0.5l0.3-0.4
				c0.3,0.2,0.5,0.4,0.8,0.4c0.1,0,0.2,0,0.3-0.1c0.1,0,0.1-0.1,0.1-0.2c0-0.1,0-0.1-0.1-0.2c-0.1,0-0.2-0.1-0.4-0.1
				c-0.3-0.1-0.5-0.2-0.7-0.3c-0.1-0.1-0.2-0.3-0.2-0.5s0.1-0.4,0.3-0.6c0.2-0.1,0.4-0.2,0.7-0.2c0.2,0,0.3,0,0.5,0.1
				c0.2,0.1,0.3,0.1,0.5,0.3l-0.3,0.4c-0.2-0.2-0.5-0.3-0.7-0.3C59.4,24.2,59.4,24.2,59.3,24.3z"/>
			<path id="XMLID_130_" class="st6" d="M61.1,23.7h0.6v2.6h-0.6V23.7z"/>
			<path id="XMLID_128_" class="st6" d="M64.1,23.7h0.6v2.6h-0.6l-1.2-1.6v1.6h-0.6v-2.6h0.5l1.3,1.7V23.7z"/>
			<path id="XMLID_126_" class="st6" d="M67.2,23.7v0.5h-1.3v0.5h1.2v0.5h-1.2v0.5h1.3v0.5h-1.9v-2.6H67.2z"/>
			<path id="XMLID_124_" class="st6" d="M68.3,24.3c-0.1,0-0.1,0.1-0.1,0.2c0,0.1,0,0.1,0.1,0.2c0.1,0,0.2,0.1,0.5,0.2
				c0.2,0.1,0.4,0.2,0.6,0.3c0.1,0.1,0.2,0.3,0.2,0.5s-0.1,0.4-0.3,0.6c-0.2,0.1-0.4,0.2-0.7,0.2c-0.4,0-0.8-0.2-1.1-0.5l0.3-0.4
				c0.3,0.2,0.5,0.4,0.8,0.4c0.1,0,0.2,0,0.3-0.1c0.1,0,0.1-0.1,0.1-0.2c0-0.1,0-0.1-0.1-0.2c-0.1,0-0.2-0.1-0.4-0.1
				c-0.3-0.1-0.5-0.2-0.7-0.3c-0.1-0.1-0.2-0.3-0.2-0.5s0.1-0.4,0.3-0.6c0.2-0.1,0.4-0.2,0.7-0.2c0.2,0,0.3,0,0.5,0.1
				c0.2,0.1,0.3,0.1,0.5,0.3l-0.3,0.4c-0.2-0.2-0.5-0.3-0.7-0.3C68.5,24.2,68.4,24.2,68.3,24.3z"/>
			<path id="XMLID_122_" class="st6" d="M70.7,24.3c-0.1,0-0.1,0.1-0.1,0.2c0,0.1,0,0.1,0.1,0.2c0.1,0,0.2,0.1,0.5,0.2
				c0.2,0.1,0.4,0.2,0.6,0.3c0.1,0.1,0.2,0.3,0.2,0.5s-0.1,0.4-0.3,0.6c-0.2,0.1-0.4,0.2-0.7,0.2c-0.4,0-0.8-0.2-1.1-0.5l0.3-0.4
				c0.3,0.2,0.5,0.4,0.8,0.4c0.1,0,0.2,0,0.3-0.1c0.1,0,0.1-0.1,0.1-0.2c0-0.1,0-0.1-0.1-0.2c-0.1,0-0.2-0.1-0.4-0.1
				c-0.3-0.1-0.5-0.2-0.7-0.3c-0.1-0.1-0.2-0.3-0.2-0.5s0.1-0.4,0.3-0.6c0.2-0.1,0.4-0.2,0.7-0.2c0.2,0,0.3,0,0.5,0.1
				c0.2,0.1,0.3,0.1,0.5,0.3l-0.3,0.4c-0.2-0.2-0.5-0.3-0.7-0.3C70.8,24.2,70.8,24.2,70.7,24.3z"/>
			<path id="XMLID_120_" class="st6" d="M73.5,26.3v-2.6H74v2.1h1.1v0.5H73.5z"/>
			<path id="XMLID_117_" class="st6" d="M77.7,26c-0.3,0.3-0.6,0.4-1,0.4c-0.4,0-0.7-0.1-1-0.4c-0.3-0.3-0.4-0.6-0.4-1
				c0-0.4,0.1-0.7,0.4-1c0.3-0.3,0.6-0.4,1-0.4c0.4,0,0.7,0.1,1,0.4c0.3,0.3,0.4,0.6,0.4,1C78.1,25.4,78,25.7,77.7,26z M77.5,25
				c0-0.2-0.1-0.4-0.2-0.6c-0.1-0.2-0.3-0.2-0.5-0.2c-0.2,0-0.4,0.1-0.5,0.2C76,24.6,76,24.8,76,25c0,0.2,0.1,0.4,0.2,0.6
				c0.1,0.2,0.3,0.2,0.5,0.2c0.2,0,0.4-0.1,0.5-0.2C77.4,25.5,77.5,25.3,77.5,25z"/>
			<path id="XMLID_115_" class="st6" d="M80.4,23.7H81v2.6h-0.6l-1.2-1.6v1.6h-0.6v-2.6h0.5l1.3,1.7V23.7z"/>
			<path id="XMLID_112_" class="st6" d="M83.6,24.1c0.2,0.2,0.4,0.5,0.4,0.9s-0.1,0.7-0.4,1c-0.2,0.2-0.6,0.4-1.1,0.4h-0.9v-2.6h0.9
				C83,23.7,83.3,23.8,83.6,24.1z M83.2,25.6c0.1-0.1,0.2-0.3,0.2-0.6c0-0.3-0.1-0.5-0.2-0.6c-0.1-0.1-0.4-0.2-0.7-0.2h-0.3v1.6h0.4
				C82.8,25.8,83,25.8,83.2,25.6z"/>
			<path id="XMLID_109_" class="st6" d="M86.6,26c-0.3,0.3-0.6,0.4-1,0.4s-0.7-0.1-1-0.4c-0.3-0.3-0.4-0.6-0.4-1
				c0-0.4,0.1-0.7,0.4-1c0.3-0.3,0.6-0.4,1-0.4s0.7,0.1,1,0.4c0.3,0.3,0.4,0.6,0.4,1C87,25.4,86.9,25.7,86.6,26z M86.4,25
				c0-0.2-0.1-0.4-0.2-0.6c-0.1-0.2-0.3-0.2-0.5-0.2c-0.2,0-0.4,0.1-0.5,0.2c-0.1,0.2-0.2,0.4-0.2,0.6c0,0.2,0.1,0.4,0.2,0.6
				c0.1,0.2,0.3,0.2,0.5,0.2c0.2,0,0.4-0.1,0.5-0.2C86.4,25.5,86.4,25.3,86.4,25z"/>
			<path id="XMLID_107_" class="st6" d="M89.3,23.7h0.6v2.6h-0.6l-1.2-1.6v1.6h-0.6v-2.6h0.5l1.3,1.7V23.7z"/>
		</g>
		<g id="XMLID_97_">
			<path id="XMLID_98_" class="st6" d="M39.5,51.2c0.9,1,1.8,1.8,2.6,2.2c0.9,0.5,1.7,0.7,2.6,0.7c0.8,0,1.4-0.2,1.9-0.6
				c0.5-0.4,0.8-1,0.8-1.6c0-0.7-0.2-1.3-0.6-1.7c-0.5-0.4-1.5-0.8-3-1.2c-2.1-0.6-3.6-1.3-4.5-2.2c-0.9-0.9-1.3-2.2-1.3-3.8
				c0-2.1,0.7-3.8,2.1-5.1c1.4-1.3,3.2-2,5.4-2c1.3,0,2.4,0.2,3.4,0.5c1.1,0.3,2.1,0.8,3.1,1.5l-1.9,4.3c-0.7-0.6-1.3-1-2.1-1.3
				c-0.7-0.3-1.4-0.4-2.1-0.4c-0.7,0-1.3,0.2-1.7,0.5c-0.4,0.3-0.7,0.8-0.7,1.3c0,0.5,0.2,1,0.6,1.3c0.4,0.3,1.2,0.6,2.3,0.9
				c0,0,0.1,0,0.1,0c0,0,0.1,0,0.1,0c2.4,0.6,4,1.4,4.8,2.2c0.5,0.5,0.9,1.1,1.2,1.9c0.3,0.7,0.4,1.6,0.4,2.5c0,2.3-0.8,4.2-2.3,5.6
				c-1.5,1.4-3.6,2.1-6.1,2.1c-1.5,0-2.9-0.3-4.1-0.8c-1.2-0.5-2.4-1.3-3.6-2.4L39.5,51.2z"/>
		</g>
		<g id="XMLID_92_">
			<path id="XMLID_93_" class="st6" d="M68.1,58.3V37.1h5.8c2.3,0,4,0.1,5,0.2c0.9,0.1,1.8,0.4,2.5,0.8c0.8,0.5,1.4,1,1.8,1.7
				c0.4,0.7,0.6,1.6,0.6,2.5c0,1.2-0.3,2.2-0.9,2.9c-0.6,0.7-1.6,1.2-2.9,1.6c1.5,0.1,2.6,0.6,3.5,1.6c0.8,0.9,1.3,2.2,1.3,3.8
				c0,1.1-0.2,2.1-0.7,3c-0.5,0.9-1.2,1.6-2,2c-0.7,0.4-1.6,0.6-2.7,0.8c-1.1,0.2-2.9,0.2-5.2,0.2H68.1z M73.4,45.6h1.2
				c1.4,0,2.4-0.2,2.9-0.5c0.5-0.3,0.8-0.9,0.8-1.6c0-0.8-0.2-1.4-0.7-1.7c-0.5-0.3-1.5-0.5-2.9-0.5h-1.2V45.6z M73.4,54h2
				c1.4,0,2.3-0.2,2.9-0.5c0.6-0.3,0.9-0.9,0.9-1.7c0-0.9-0.3-1.5-0.8-1.9c-0.5-0.3-1.5-0.5-2.9-0.5h-2.1V54z"/>
		</g>
		<g id="XMLID_89_">
			<path id="XMLID_90_" class="st6" d="M55.7,92.2V70.4h5.9v16.7h7.4v5.1H55.7z"/>
		</g>
	</g>
</g>
</svg>
