<svg aria-hidden="true" style="position: absolute; width: 0; height: 0; overflow: hidden;" version="1.1" xmlns="http://www.w3.org/2000/svg" xmlns:xlink="http://www.w3.org/1999/xlink">
<defs>
<symbol id="icon-bl-icon-1" viewBox="0 0 400 400">
<path fill="#4d4e4e" style="fill: var(--color1, #4d4e4e)" d="M313.6 314.16l-0.16-0.64c-0.16-0.64-0.4-1.68-0.56-2.88l-0.24-1.28c0-0.16 0-0.32 0-0.48l-0.48-2.88c-0.24-1.44-0.4-2.64-0.56-3.44-0.24-1.44-0.96-7.76-1.52-13.28l-0.24-2.4c-0.24-2.56-0.56-4.96-0.72-6.8-0.24-2-0.32-3.76-0.4-5.36-0.16-3.36-0.32-6.32-1.92-9.28-1.28-2.4-1.28-2.4-1.44-3.84-0.080-0.8-0.24-2-0.56-3.84-1.12-6.4-4.72-14.16-6.24-17.12-0.4-0.72-0.96-1.52-1.84-2.16-0.16-0.16-0.32-0.32-0.56-0.4l-0.16-0.16c-0.16-0.16-0.4-0.32-0.56-0.4-0.16-0.16-0.4-0.32-0.72-0.48-0.24-0.16-0.48-0.32-0.72-0.4-0.4-0.24-0.8-0.48-1.28-0.64l-0.24-0.16c-0.48-0.24-0.88-0.48-1.36-0.72l-0.32-0.16c-0.4-0.16-0.8-0.4-1.2-0.56l-0.64-0.24c-0.72-0.32-1.44-0.56-2.080-0.8l-1.92-0.72c-3.44-1.28-10-4.8-11.68-5.92-0.16-0.080-0.4-0.24-0.72-0.4l-0.32-0.16c-0.24-0.080-0.48-0.24-0.8-0.32l-3.36-1.36c-0.16-0.080-0.32-0.16-0.4-0.16l-1.36-0.56c-0.16-0.080-0.32-0.16-0.56-0.24l-3.68-1.36c-0.16-0.080-0.32-0.16-0.56-0.16l-3.92-1.52-0.4-0.16-5.6-2.32c-0.48-0.24-0.96-0.48-1.28-0.64-0.080-0.080-0.24-0.16-0.32-0.24l-0.4-0.24c-0.080-0.080-0.24-0.16-0.48-0.24-0.4-0.16-0.8-0.4-1.2-0.56-0.16-0.080-0.4-0.16-0.48-0.24-0.48-0.16-0.88-0.4-1.44-0.64l-0.56-0.24c-0.080 0-0.16-0.080-0.24-0.080l-1.040-0.4-0.4-0.16c-1.92-0.72-3.76-1.28-5.040-1.68l-1.2-0.16c-0.080 0-0.24 0-0.32 0h-0.32c-0.16 0-0.4 0.080-0.48 0.080-0.16 0-0.32 0.080-0.24 0.080l-0.32 0.16c-0.16 0.080-0.32 0.16-0.24 0.16l-0.48 0.32c-0.080 0.080-0.080 0.080-0.16 0.16-0.8-0.56-1.52-1.12-2.24-1.6-0.080-0.080-0.16-0.080-0.24-0.16-0.16-0.16-0.32-0.24-0.48-0.4s-0.32-0.32-0.48-0.4c-3.2-2.8-5.44-5.76-6.16-8.8 0-0.080-0.080-0.16-0.080-0.24 0.96-1.76 1.76-3.44 2.24-4.56l0.16-0.4c2.56-6.72 5.2-14 7.68-22.24l4.72-4.8c0.48-0.56 11.92-13.68 7.040-24.4-1.12-2.48-2.8-4.16-4.88-5.12 0.16-2 0.24-4.080 0.24-6 0-5.36-0.64-10.080-1.68-14.48-1.92 1.36-5.6 2.64-10.56 3.68 3.2 3.84 5.36 8.8 7.36 10.4 0.48 0.4 0.88 1.36 1.040 2.56-0.080 1.6-0.16 3.2-0.24 4.88v0c0 0.16 0 0.32-0.080 0.48-0.8 9.12-2.96 19.6-6.4 31.2-2.48 8.32-5.2 15.68-7.76 22.48l-0.080 0.24c-0.080 0.080-0.080 0.24-0.16 0.4-0.48 1.12-1.36 3.040-2.48 4.8-0.56 0.96-1.2 1.84-1.84 2.56-1.36 1.44-3.2 3.040-5.040 4.64-1.92 1.68-3.76 3.28-4.96 4.64-1.6 1.92-5.36 3.84-9.52 3.84-0.24 0-0.4 0-0.72 0-0.24 0-0.56 0-0.8-0.080-3.76-0.4-6.72-2.16-8-3.76-1.12-1.36-2.96-2.96-4.96-4.64-1.84-1.52-3.68-3.2-5.040-4.64-0.72-0.72-1.28-1.68-1.92-2.56-1.36-2.24-2.4-4.56-2.64-5.2l-0.080-0.24c0-0.080-0.080-0.16-0.080-0.24-2.48-6.72-5.2-14.16-7.76-22.56-1.44-4.72-2.56-9.2-3.52-13.6 0.24-3.44 0-8 0-8-0.56-14.88 3.28-14.64 3.040-22s2.64-6.64 14.32 0.080c6.48 3.68 14.88 0.56 22.64-3.2-1.52 0-2.96 0.080-4.56 0.080-20 0-36.72-2.72-41.12-6.4-0.56 2.48-0.8 5.040-0.96 7.44-0.4 4.080-0.48 8.56-0.16 13.36-2 0.96-3.6 2.64-4.72 5.040-4.88 10.72 6.56 23.84 7.12 24.48l4.32 4.32c2.56 8.4 5.2 15.84 7.76 22.56l0.16 0.48c0.32 0.8 1.12 2.56 2.24 4.48 0 0.080 0 0.24-0.080 0.32-0.72 2.96-2.8 5.76-5.84 8.48-0.080 0.080-0.24 0.16-0.32 0.32-0.16 0.16-0.32 0.32-0.48 0.48s-0.32 0.24-0.48 0.4c-1.040 0.8-2.16 1.6-3.36 2.4-0.4-0.56-0.88-1.040-1.36-1.28l-0.4-0.16c-0.24-0.080-0.48-0.16-0.72-0.16-0.16 0-0.24 0-0.48 0h-0.4c-0.16 0-0.32 0-0.4 0.080l-0.96 0.24-1.52 0.48c-0.4 0.16-0.88 0.32-1.36 0.48l-1.2 0.48c-0.080 0-0.24 0.080-0.32 0.16h-0.080c-0.16 0.080-0.32 0.080-0.4 0.16l-1.36 0.48c-0.56 0.24-1.12 0.48-1.68 0.72l-1.52 0.72c-0.24 0.080-0.4 0.24-0.64 0.32l-0.8 0.48-0.24 0.16-0.32 0.16-0.24 0.16-0.4 0.16-1.2 0.56c-0.16 0.080-0.4 0.16-0.48 0.24l-1.040 0.4c-0.8 0.32-1.68 0.72-2.64 1.040l-1.12 0.48c-0.080 0-0.24 0.080-0.48 0.16l-2.8 1.12h-0.080l-1.12 0.4-0.8 0.32c-0.24 0.080-0.48 0.16-0.64 0.24s-0.32 0.080-0.48 0.16l-2.8 1.040-0.64 0.16c-3.2 1.2-6.16 2.72-9.12 4.4-2.56 1.36-5.36 2.56-8.080 3.68-3.040 1.28-6.080 2.56-9.040 4.16-0.24 0.16-0.56 0.32-0.8 0.48l-0.24 0.16c-0.32 0.24-0.64 0.4-0.96 0.64-0.16 0.080-0.32 0.24-0.32 0.24l-0.48 0.4c-0.88 0.72-1.44 1.44-1.84 2.16-1.36 2.8-4.8 9.92-6.080 16.16l-0.16 0.96c-0.32 1.84-0.48 3.040-0.56 3.84-0.16 1.52-0.16 1.52-1.44 3.92-1.6 2.96-1.76 5.92-1.92 9.28-0.080 1.6-0.16 3.36-0.4 5.36-0.32 2.48-0.64 6-1.040 9.52-0.56 5.36-1.2 11.44-1.44 12.88-0.16 0.88-0.4 2.32-0.64 3.92l-0.64 4.080c-0.080 0.4-0.16 0.8-0.24 1.2l-0.16 0.72c-0.080 0.4-0.16 0.8-0.24 1.040-0.32 1.12-0.72 2.56-0.48 4.080 0.32 1.92 1.68 3.52 4 4.56 0.16 0.080 0.32 0.16 0.4 0.16v22.4h36.080v-11.12c0.32 0 0.56 0.080 0.72 0.080l1.040 0.080c0 0 0.080 0 0.080 0l0.16 1.2 0.080 0.4 0.24 1.6c0 0.080 0 0.24 0.080 0.56l0.16 0.88 0.080 0.48 0.16 0.8 0.24 1.12 0.080 0.32c0.080 0.32 0.16 0.56 0.24 0.88l0.64 2h140.48l0.64-2.080c0.080-0.32 0.16-0.72 0.24-0.96l0.32-1.44c0.080-0.4 0.16-0.8 0.24-1.12l0.4-2.16c0.080-0.56 0.16-1.12 0.24-1.6l0.080-0.8c0 0 0 0 0-0.080 0 0 0.080 0 0.080 0h0.88l0.64-0.080c0.24 0 0.56-0.080 0.88-0.080v11.040h36.080v-22.48c0.88-0.4 1.6-0.88 2.24-1.44 0.24-0.24 0.48-0.48 0.64-0.72 0.080-0.16 0.16-0.24 0.32-0.4 0.080-0.16 0.24-0.32 0.32-0.56 0.080-0.080 0.080-0.24 0.16-0.4 0.080-0.24 0.16-0.48 0.24-0.88l0.080-0.4c-0.24-1.2-0.48-2.32-0.72-3.28zM237.68 166.080c0.24-0.8 0.4-1.6 0.56-2.4 0.48-1.84 0.88-3.6 1.2-5.28 0.16-0.8 0.32-1.52 0.48-2.32 0.48-2.24 0.88-4.48 1.2-6.64 0.080-0.56 0.16-1.12 0.24-1.68 0.16-1.12 0.32-2.24 0.4-3.36 0.72 0.64 1.28 1.44 1.76 2.48 3.44 7.52-4.32 17.76-6.080 19.84 0.080-0.16 0.16-0.4 0.24-0.64zM156.4 146.88c0.4-0.96 0.96-1.68 1.52-2.32 0.16 1.2 0.32 2.4 0.48 3.68 0.080 0.32 0.080 0.64 0.16 0.96 0.32 2.24 0.72 4.64 1.2 7.040 0.080 0.48 0.16 0.96 0.32 1.36 0.48 2.16 0.96 4.4 1.52 6.64 0.080 0.32 0.16 0.72 0.24 1.040s0.16 0.64 0.24 0.96c-2.16-2.8-8.88-12.24-5.68-19.36zM121.2 340.96h-28.4v-16.96c0.16 0.080 0.4 0.16 0.56 0.24l11.6 4.4c2.080 0.8 3.92 1.44 5.2 2l2.080 0.72c0.080 0 0.16 0.080 0.48 0.16l2.72 0.64 0.8 0.16 0.32 0.080 0.8 0.16c0.72 0.16 1.44 0.24 2.32 0.4l1.52 0.24v7.76zM128.8 333.6v0 0 0zM129.12 336.56v0zM233.040 217.76l-0.16 0.4c-0.16 0.4-0.4 0.88-0.64 1.44l-0.56 0.96c-0.080 0.16-0.24 0.32-0.4 0.72-0.32 0.48-0.64 1.040-1.040 1.6-0.24 0.32-0.56 0.72-0.8 1.040-0.32 0.4-0.72 0.88-1.12 1.28-0.24 0.24-0.48 0.48-0.72 0.72-0.16 0.16-0.32 0.32-0.56 0.48-0.72 0.64-1.52 1.28-2.24 1.76-0.24 0.16-0.4 0.32-0.64 0.4l-0.64 0.4c-0.16 0.080-0.32 0.16-0.48 0.32-0.24 0.16-0.48 0.24-0.72 0.4l-0.24 0.16c-0.32 0.16-0.64 0.32-1.040 0.48-0.32 0.16-0.72 0.32-1.040 0.48-0.24 0.080-0.48 0.24-0.8 0.32l-0.32 0.16c-0.48 0.24-1.040 0.4-1.6 0.56-0.4 0.16-0.8 0.24-1.28 0.4l-1.76 0.48c-0.96 0.24-1.92 0.48-3.040 0.64l-1.36 0.24c-1.040 0.16-2.16 0.24-3.28 0.4l-1.040 0.080c-0.56 0-1.2 0.080-2 0.080-1.36 0.080-2.72 0.080-4.4 0-1.44 0-2.8 0.080-4.4 0-2.96-0.080-5.76-0.4-8.4-0.96-0.56-0.080-1.12-0.24-1.92-0.4-0.48-0.080-0.88-0.24-1.36-0.32-0.64-0.16-1.28-0.4-1.92-0.56-10.080-3.44-14.16-9.92-15.84-14.16 1.52-1.040 2.96-2 4.24-3.040 0.24-0.16 0.48-0.4 0.8-0.64l0.64-0.56 0.16-0.16c2.8-2.48 4.88-5.12 6.080-7.68 0.080 0.080 0.16 0.24 0.24 0.32 1.52 1.68 3.44 3.36 5.36 4.96 1.84 1.52 3.52 3.040 4.48 4.16 2.24 2.64 6.32 4.64 10.64 5.12 0.32 0 0.72 0.080 1.040 0.080 0.24 0 0.56 0 0.88 0 4.88 0 9.92-2.080 12.48-5.2 0.96-1.12 2.64-2.56 4.48-4.16 1.92-1.68 3.84-3.36 5.36-4.96 0.080-0.080 0.24-0.24 0.32-0.32 1.28 2.72 3.36 5.44 6.48 8.080l0.16 0.16c0.16 0.080 0.32 0.24 0.4 0.32l0.56 0.48c0.080 0.080 0.16 0.16 0.24 0.16 0.96 0.72 1.92 1.44 3.040 2.24-0.16 0.16-0.24 0.4-0.32 0.64zM243.36 216.32v0 0 0zM252.72 220.56c0 0 0 0 0 0v0 0zM268.72 339.36v0zM306.16 340.8h-28.4v-7.76l3.52-0.56 1.28-0.32c0.4-0.080 0.72-0.16 1.12-0.24l0.48-0.080 10.56-3.68 7.28-2.72 4-1.6v16.96z"></path>
<path fill="#28aae1" style="fill: var(--color2, #28aae1)" d="M199.84 106.8l-42.24-13.76v18.32c0 4.56 18.88 8.32 42.24 8.32s42.24-3.68 42.24-8.32v-18.32l-42.24 13.76z"></path>
<path fill="#28aae1" style="fill: var(--color2, #28aae1)" d="M200.16 74.080l-0.64-3.44v-0.080c0.080 0 0.24 0 0.32 0 1.36 0 2.64 0.24 3.6 0.72 0.72 0.32 1.12 0.8 1.12 1.12s-0.4 0.8-1.12 1.12c-0.88 0.4-2.080 0.64-3.28 0.64v-0.080z"></path>
<path fill="#28aae1" style="fill: var(--color2, #28aae1)" d="M279.52 74.64l-79.68 25.92-48.24-15.68 48.24-8.88c1.68 0 3.2-0.32 4.4-0.88 1.36-0.72 2.16-1.68 2.16-2.72 0-1.12-0.8-2.080-2.16-2.72-2.32-1.12-6.16-1.12-8.56-0.080l-53.040 9.84-0.8 1.040c-0.24 0.24-0.4 0.48-0.64 1.12l-21.040-6.88 79.68-30.56 79.68 30.48z"></path>
<path fill="#28aae1" style="fill: var(--color2, #28aae1)" d="M195.28 74.96l-49.28 9.2c-0.24 1.28-0.56 4.64-0.56 12.64h-3.52c0-13.68 0.96-14.88 1.28-15.28l0.4-0.48 49.76-9.28c-0.080 0.16-0.080 0.4-0.080 0.64 0.080 0.96 0.72 1.92 2 2.56z"></path>
<path fill="#28aae1" style="fill: var(--color2, #28aae1)" d="M200.24 74.080v0l-0.48 0.080c-1.28 0-2.56-0.24-3.44-0.72-0.72-0.32-1.2-0.8-1.2-1.12s0.48-0.8 1.12-1.12c0 0 0 0 0 0l3.28-0.64 0.72 3.52z"></path>
<path fill="#28aae1" style="fill: var(--color2, #28aae1)" d="M204.64 72.32c0 0.32-0.4 0.8-1.12 1.12-0.88 0.4-2.080 0.64-3.28 0.64-0.16 0-0.32 0-0.48 0-1.28 0-2.56-0.24-3.44-0.72-0.72-0.32-1.2-0.8-1.2-1.12s0.48-0.8 1.12-1.12c0 0 0 0 0 0 0.88-0.4 2-0.64 3.28-0.72 0.080 0 0.24 0 0.32 0 1.36 0 2.64 0.24 3.6 0.72 0.8 0.4 1.2 0.88 1.2 1.2z"></path>
<path fill="#28aae1" style="fill: var(--color2, #28aae1)" d="M141.92 95.76l-5.6 41.92c0 0 1.6 2 6.32 2s7.040-2.16 7.040-2.16l-4.24-41.76h-3.52z"></path>
<path fill="#28aae1" style="fill: var(--color2, #28aae1)" d="M148 96.32c0 2.32-1.92 4.24-4.24 4.24s-4.24-1.92-4.24-4.24c0-2.32 1.92-4.24 4.24-4.24s4.24 1.92 4.24 4.24z"></path>
</symbol>
<symbol id="icon-bl-icon-2" viewBox="0 0 400 400">
<path fill="#4d4e4e" style="fill: var(--color1, #4d4e4e)" d="M92.16 243.2h212.56v-124.64h-212.56v124.64zM98.56 125.040h199.76v111.76h-199.76v-111.76z"></path>
<path fill="#4d4e4e" style="fill: var(--color1, #4d4e4e)" d="M83.36 236.72h230.16v9.68h-230.16v-9.68z"></path>
<path fill="#28aae1" style="fill: var(--color2, #28aae1)" d="M102.24 233.040h192.4v-104.4h-192.4v104.4zM164.080 199.28c-0.080 1.040-0.32 2.32-1.12 3.44-0.8 1.2-1.92 1.92-3.040 2.56-2.48 1.52-5.2 2.96-8.24 3.28-0.48 0.080-0.88 0.080-1.36 0.080-2.48 0-4.88-0.8-6.48-2.32-0.48-0.48-0.8-1.12-0.72-1.84s0.4-1.36 1.040-1.76l1.12-0.72c0.64-0.4 1.52-0.24 1.92 0.4s0.24 1.52-0.4 1.92l-0.56 0.4c1.36 0.96 3.28 1.36 5.2 1.12 2.56-0.32 4.96-1.6 7.12-2.96 0.88-0.56 1.68-1.040 2.16-1.76 0.4-0.64 0.56-1.52 0.64-2.24 0.32-2.96-0.080-5.92-1.28-8.72-0.56-1.28-1.12-2-1.76-2.24-0.56-0.24-1.28-0.16-1.92-0.080-1.76 0.24-3.52 0.8-5.040 1.68-0.64 0.4-1.44 0.32-2-0.16s-0.72-1.28-0.48-1.92c0.96-2.56 1.52-5.28 1.6-8 0-1.76-0.24-2.56-1.12-3.040-0.72-0.4-1.6-0.32-2.4 0.16-1.44 0.88-2.24 2.64-2.4 5.28 0 0.72-0.72 1.36-1.44 1.28-0.8 0-1.36-0.72-1.28-1.44 0.16-3.52 1.44-6.16 3.68-7.52 1.6-0.96 3.52-1.040 5.12-0.24 2.64 1.44 2.56 4.32 2.56 5.52 0 2.24-0.4 4.48-0.96 6.56 1.2-0.48 2.48-0.8 3.76-0.96 0.96-0.16 2.16-0.16 3.28 0.32 1.84 0.72 2.72 2.48 3.28 3.76 1.44 3.28 1.92 6.8 1.52 10.16zM185.76 186.32c-1.92 0.96-3.84 1.68-5.76 2.4 0.32 2.32 0.56 4.72 0.64 7.040 0 0.72-0.56 1.44-1.28 1.44 0 0-0.080 0-0.080 0-0.72 0-1.36-0.56-1.36-1.28-0.080-2.080-0.32-4.16-0.56-6.16l-3.6 1.36c-0.16 0.080-0.32 0.080-0.48 0.080-0.56 0-1.12-0.32-1.28-0.88-0.24-0.72 0.080-1.52 0.8-1.76l4.16-1.6c-0.4-2.48-0.88-4.88-1.52-7.28-0.16-0.72 0.24-1.52 0.96-1.68s1.52 0.24 1.68 0.96c0.64 2.32 1.12 4.64 1.52 7.040 1.68-0.64 3.36-1.28 4.96-2.080 0.64-0.32 1.52-0.080 1.84 0.64 0.24 0.56 0 1.36-0.64 1.76zM214.56 200.080c-0.24 0.4-0.72 0.64-1.12 0.64-0.24 0-0.56-0.080-0.8-0.24-1.040-0.72-1.68-1.44-2.24-2.080-0.48-0.64-0.96-1.12-1.68-1.6-1.52-0.96-3.92-0.56-7.28 1.28-0.72 0.4-1.52 0.16-2-0.48s-0.4-1.52 0.16-2.080c1.6-1.6 2.64-3.76 3.6-5.84 1.6-3.68 2.88-7.52 3.76-11.36 0.8-3.44 1.36-7.040 0.080-10-0.32-0.72-0.8-1.6-1.68-2-1.12-0.48-2.56 0.080-3.44 0.8-1.040 0.8-1.92 2.16-2.080 3.44-0.080 0.8 0.080 1.52 0.48 2.080 0.48 0.56 0.4 1.44-0.24 1.92-0.56 0.48-1.44 0.4-1.92-0.24-0.88-1.12-1.28-2.56-1.12-4.16 0.24-2 1.44-4 3.12-5.28 2-1.52 4.32-1.92 6.16-1.040 1.28 0.56 2.32 1.76 3.040 3.44 1.52 3.68 0.96 7.76 0 11.68-0.96 4.080-2.24 8.080-3.92 11.92-0.48 1.040-0.96 2.080-1.52 3.040 2-0.56 4.080-0.64 6 0.56 1.12 0.72 1.76 1.44 2.32 2.16 0.48 0.56 0.88 1.12 1.6 1.6 0.96 0.32 1.2 1.2 0.72 1.84zM220.24 176.72c-0.32-0.64-0.080-1.52 0.56-1.84 3.52-1.92 7.28-3.52 11.12-4.8 0.72-0.24 1.52 0.16 1.76 0.88s-0.16 1.52-0.88 1.76c-3.68 1.2-7.28 2.8-10.64 4.56-0.24 0.080-0.4 0.16-0.64 0.16-0.56 0-1.040-0.24-1.28-0.72zM233.12 183.6c-0.88 0.080-1.84 0.56-2.72 0.96l-6.72 3.2c-0.16 0.080-0.4 0.16-0.56 0.16-0.48 0-1.040-0.32-1.28-0.8-0.32-0.72 0-1.52 0.64-1.84l6.72-3.2c1.040-0.48 2.24-1.040 3.6-1.2 0.72-0.080 1.44 0.48 1.52 1.2s-0.48 1.44-1.2 1.52zM261.84 223.12l-0.72 0.96c-0.8 1.040-2.32 1.28-3.36 0.48l-16.4-12.16c-1.040-0.8-1.28-2.32-0.48-3.36l0.72-0.96c0.8-1.040 2.32-1.28 3.36-0.48l16.4 12.16c1.040 0.72 1.28 2.24 0.48 3.36z"></path>
</symbol>
<symbol id="icon-bl-icon-3" viewBox="0 0 400 400">
<path fill="#4d4e4e" style="fill: var(--color1, #4d4e4e)" d="M258.56 144.080v-46.8h-153.76v90.16h153.84v-22.16c-0.56-0.24-1.12-0.56-1.6-0.96l-3.040-2.24v20.72h-144.56v-80.88h144.48v38.72l4.64 3.44z"></path>
<path fill="#4d4e4e" style="fill: var(--color1, #4d4e4e)" d="M98.4 182.8h166.56v6.96h-166.56v-6.96z"></path>
<path fill="#4d4e4e" style="fill: var(--color1, #4d4e4e)" d="M244.080 135.44c1.84 0 3.6 0.56 5.12 1.68l2.080 1.52v-34.080h-139.2v75.52h139.2v-20.080l-12.32-9.12c-3.84-2.8-4.64-8.24-1.84-12 1.68-2.16 4.24-3.44 6.96-3.44zM143.28 141.52c-0.080 0.64-0.24 1.52-0.72 2.32-0.56 0.8-1.28 1.28-2 1.68-1.52 0.88-3.12 1.76-5.040 2-0.32 0-0.56 0.080-0.88 0.080-1.6 0-3.12-0.56-4.24-1.52-0.48-0.4-0.72-1.040-0.64-1.68s0.4-1.2 0.96-1.52l0.64-0.4c0.72-0.48 1.68-0.24 2.16 0.4 0.32 0.48 0.32 1.040 0.080 1.52 0.48 0.16 1.040 0.16 1.6 0.16 1.28-0.16 2.56-0.88 3.76-1.6 0.4-0.24 0.8-0.48 0.96-0.8 0.16-0.24 0.24-0.64 0.24-0.96 0.16-1.52-0.080-3.12-0.64-4.56-0.32-0.72-0.56-0.88-0.64-0.88s-0.24-0.080-0.72 0c-0.88 0.16-1.84 0.4-2.56 0.88-0.64 0.4-1.44 0.32-2-0.16s-0.72-1.28-0.48-1.92c0.56-1.36 0.8-2.8 0.88-4.32 0-0.96-0.16-1.040-0.24-1.040-0.16-0.080-0.4-0.080-0.64 0.080-0.72 0.48-0.96 1.52-0.96 2.4-0.080 0.88-0.72 1.52-1.6 1.44s-1.52-0.8-1.44-1.6c0.16-2.88 1.44-4.24 2.48-4.88 1.12-0.72 2.56-0.72 3.68-0.16 1.92 1.040 1.92 3.12 1.84 3.84 0 0.88-0.080 1.76-0.24 2.64 0.32-0.080 0.72-0.16 1.040-0.16 0.56-0.080 1.44-0.16 2.24 0.24 1.44 0.56 2.080 2.080 2.24 2.56 0.8 1.68 1.12 3.84 0.88 5.92zM155.28 134.64c-0.96 0.48-1.84 0.88-2.8 1.2 0.16 1.2 0.24 2.32 0.32 3.52 0.080 0.88-0.64 1.6-1.44 1.6 0 0-0.080 0-0.080 0-0.8 0-1.52-0.64-1.52-1.44 0-0.88-0.080-1.68-0.16-2.56l-1.2 0.48c-0.16 0.080-0.4 0.080-0.56 0.080-0.64 0-1.2-0.4-1.44-0.96-0.32-0.8 0.080-1.68 0.88-2l1.84-0.64c-0.24-1.2-0.48-2.32-0.72-3.52-0.24-0.8 0.24-1.68 1.12-1.84 0.8-0.24 1.68 0.24 1.84 1.12 0.24 1.040 0.48 2.080 0.72 3.2 0.64-0.24 1.28-0.56 1.92-0.88 0.72-0.4 1.68-0.080 2.080 0.64 0.24 0.72-0.080 1.6-0.8 2zM172 142.24c-0.32 0.48-0.8 0.72-1.28 0.72-0.32 0-0.56-0.080-0.88-0.24-0.72-0.48-1.12-0.96-1.44-1.36-0.24-0.32-0.48-0.56-0.8-0.72-0.64-0.4-1.76-0.16-3.44 0.72l-1.2 0.64-0.96-1.12c-0.48-0.64-0.4-1.6 0.16-2.16 0.8-0.8 1.36-2 1.92-3.12 0.88-2.080 1.6-4.16 2.16-6.4 0.4-1.84 0.72-3.76 0.080-5.28-0.16-0.4-0.4-0.64-0.56-0.72-0.24-0.080-0.8 0-1.2 0.4-0.48 0.32-0.8 0.96-0.88 1.44 0 0.24 0 0.48 0.16 0.64 0.56 0.64 0.4 1.6-0.24 2.16s-1.6 0.4-2.16-0.24c-0.64-0.8-0.88-1.84-0.8-2.96 0.16-1.36 0.96-2.64 2.080-3.52 1.36-1.040 2.96-1.28 4.32-0.72 0.88 0.4 1.68 1.2 2.16 2.32 0.96 2.32 0.64 4.8 0.080 7.12-0.56 2.4-1.36 4.72-2.32 6.96-0.080 0.16-0.16 0.32-0.24 0.48 0.88-0.080 1.68 0.16 2.48 0.64 0.72 0.48 1.12 0.96 1.52 1.36 0.24 0.32 0.48 0.56 0.8 0.72 0.8 0.56 0.96 1.52 0.48 2.24zM174 128.8c-0.4-0.72-0.080-1.68 0.64-2.080 2.080-1.12 4.24-2.080 6.48-2.8 0.8-0.24 1.68 0.16 1.92 0.96s-0.16 1.68-0.96 1.92c-2.080 0.72-4.080 1.52-6 2.56-0.24 0.16-0.48 0.16-0.72 0.16-0.56 0.080-1.12-0.16-1.36-0.72zM182.080 133.12c-0.4 0.080-0.88 0.24-1.36 0.48l-3.84 1.84c-0.24 0.080-0.4 0.16-0.64 0.16-0.56 0-1.12-0.32-1.36-0.88-0.4-0.8-0.080-1.68 0.72-2.080l3.84-1.84c0.64-0.32 1.36-0.64 2.32-0.8 0.88-0.080 1.6 0.48 1.68 1.36 0.080 0.96-0.48 1.68-1.36 1.76z"></path>
<path fill="#28aae1" style="fill: var(--color2, #28aae1)" d="M277.84 115.76c0 6.16 4.96 11.12 11.12 11.12s11.12-4.96 11.12-11.12c0-6.16-4.96-11.12-11.12-11.12s-11.12 5.040-11.12 11.12z"></path>
<path fill="#28aae1" style="fill: var(--color2, #28aae1)" d="M300.72 131.28h-22.4c-8.88 0-10.16 3.6-13.28 9.76l-4.56 9.84-13.92-10.24c-1.92-1.44-4.56-1.040-6 0.88s-1.040 4.56 0.88 6l18 13.28c0.8 0.56 1.68 0.88 2.56 0.88 1.28 0 2.64-0.56 3.44-1.76 0.24-0.32 0.4-0.64 0.56-0.96l4.24-8.88c0.4-0.96 1.040-1.52 1.92-1.52s1.12 0.8 1.12 1.84v82.96c0 9.68 12.16 9.68 12.16 0v-39.44c0-1.44 0.8-2.64 1.76-2.64s1.76 1.2 1.76 2.64v39.44c0 9.68 12.16 9.68 12.16 0v-83.040c0-1.040 0.72-1.84 1.6-1.84s1.6 0.8 1.6 1.84v33.2c0 5.36 7.68 4.88 7.68 0v-41.2c0-6.080-5.12-11.040-11.28-11.040z"></path>
<path fill="#28aae1" style="fill: var(--color2, #28aae1)" d="M139.92 244.080v23.52h-7.6v-15.6c0-1.040-0.72-1.84-1.52-1.84-0.88 0-1.6 0.8-1.6 1.84v15.6h-27.52v-15.6c0-1.040-0.72-1.84-1.52-1.84-0.88 0-1.6 0.8-1.6 1.84v15.6h-7.6v-23.52c0-6 5.040-10.88 11.12-10.88h26.72c6.080 0 11.12 4.88 11.12 10.88z"></path>
<path fill="#28aae1" style="fill: var(--color2, #28aae1)" d="M126.4 217.68c0 6-4.88 10.88-10.88 10.88s-10.88-4.88-10.88-10.88c0-6 4.88-10.88 10.88-10.88s10.88 4.88 10.88 10.88z"></path>
<path fill="#28aae1" style="fill: var(--color2, #28aae1)" d="M206.4 244.080v23.52h-7.6v-15.6c0-1.040-0.72-1.84-1.6-1.84s-1.52 0.8-1.52 1.84v15.6h-27.52v-15.6c0-1.040-0.72-1.84-1.6-1.84s-1.52 0.8-1.52 1.84v15.6h-7.6v-23.52c0-6 5.040-10.88 11.040-10.88h26.72c6.080 0 11.2 4.88 11.2 10.88z"></path>
<path fill="#28aae1" style="fill: var(--color2, #28aae1)" d="M192.8 217.68c0 6-4.88 10.88-10.88 10.88s-10.88-4.88-10.88-10.88c0-6 4.88-10.88 10.88-10.88s10.88 4.88 10.88 10.88z"></path>
<path fill="#28aae1" style="fill: var(--color2, #28aae1)" d="M272.8 244.080v23.52h-7.6v-15.6c0-1.040-0.72-1.84-1.52-1.84-0.88 0-1.6 0.8-1.6 1.84v15.6h-27.52v-15.6c0-1.040-0.72-1.84-1.52-1.84-0.88 0-1.6 0.8-1.6 1.84v15.6h-7.6v-23.52c0-6 5.040-10.88 11.12-10.88h26.72c6.080 0 11.12 4.88 11.12 10.88z"></path>
<path fill="#28aae1" style="fill: var(--color2, #28aae1)" d="M259.28 217.68c0 6-4.88 10.88-10.88 10.88s-10.88-4.88-10.88-10.88c0-6 4.88-10.88 10.88-10.88s10.88 4.88 10.88 10.88z"></path>
<path fill="#28aae1" style="fill: var(--color2, #28aae1)" d="M81.92 271.44h200v4.32h-200v-4.32z"></path>
</symbol>
<symbol id="icon-bl-icon-4" viewBox="0 0 400 400">
<path fill="#4d4e4e" style="fill: var(--color1, #4d4e4e)" d="M198 104.96h33.2v-3.44h-33.2v3.44zM269.12 101.52h-12v3.44h12c4.64 0 8.4 3.76 8.4 8.4v62.24c1.12 0.32 2.32 0.72 3.44 1.12v-63.36c0-6.56-5.36-11.84-11.84-11.84zM100.24 243.12c-4.64 0-8.4-3.76-8.4-8.4v-121.36c0-4.64 3.76-8.4 8.4-8.4h12.8v-3.44h-12.8c-6.56 0-11.84 5.28-11.84 11.84v121.36c0 6.56 5.36 11.84 11.84 11.84h114.96c-0.48-1.12-0.88-2.24-1.28-3.44h-113.68zM138.96 104.96h33.2v-3.44h-33.2v3.44z"></path>
<path fill="#4d4e4e" style="fill: var(--color1, #4d4e4e)" d="M110.4 131.6h27.52v16.16h-27.52v-16.16z"></path>
<path fill="#4d4e4e" style="fill: var(--color1, #4d4e4e)" d="M150.72 131.6h27.52v16.16h-27.52v-16.16z"></path>
<path fill="#4d4e4e" style="fill: var(--color1, #4d4e4e)" d="M191.12 131.6h27.52v16.16h-27.52v-16.16z"></path>
<path fill="#4d4e4e" style="fill: var(--color1, #4d4e4e)" d="M231.44 131.6h27.52v16.16h-27.52v-16.16z"></path>
<path fill="#4d4e4e" style="fill: var(--color1, #4d4e4e)" d="M110.4 158.88h27.52v16.16h-27.52v-16.16z"></path>
<path fill="#4d4e4e" style="fill: var(--color1, #4d4e4e)" d="M150.72 158.88h27.52v16.16h-27.52v-16.16z"></path>
<path fill="#28aae1" style="fill: var(--color2, #28aae1)" d="M194.24 162h21.2v9.84h-21.2v-9.84zM191.12 175.040h27.52v-16.16h-27.52v16.16z"></path>
<path fill="#4d4e4e" style="fill: var(--color1, #4d4e4e)" d="M258.96 158.88v15.040c-2.48 0.16-4.88 0.56-7.28 1.12h-20.24v-16.16h27.52z"></path>
<path fill="#4d4e4e" style="fill: var(--color1, #4d4e4e)" d="M110.4 186.080h27.52v16.16h-27.52v-16.16z"></path>
<path fill="#4d4e4e" style="fill: var(--color1, #4d4e4e)" d="M150.72 186.080h27.52v16.16h-27.52v-16.16z"></path>
<path fill="#4d4e4e" style="fill: var(--color1, #4d4e4e)" d="M218.56 186.080v12.88c-0.64 1.040-1.28 2.16-1.84 3.28h-25.68v-16.16h27.52z"></path>
<path fill="#28aae1" style="fill: var(--color2, #28aae1)" d="M113.52 216.8h21.2v9.92h-21.2v-9.92zM110.4 229.84h27.52v-16.16h-27.52v16.16z"></path>
<path fill="#4d4e4e" style="fill: var(--color1, #4d4e4e)" d="M150.72 213.68h27.52v16.16h-27.52v-16.16z"></path>
<path fill="#4d4e4e" style="fill: var(--color1, #4d4e4e)" d="M211.040 226.080c0 1.28 0.080 2.56 0.16 3.76h-20.080v-16.16h21.44c-0.96 3.92-1.52 8.080-1.52 12.4z"></path>
<path fill="#4d4e4e" style="fill: var(--color1, #4d4e4e)" d="M279.2 113.36v4.56h-189.040v-4.56c0-5.6 4.56-10.16 10.16-10.16h12.8v1.68c0.080 4.56 3.84 8.24 8.4 8.24h9.12c4.56 0 8.32-3.68 8.4-8.24v-1.68h33.2v1.68c0.080 4.56 3.84 8.24 8.4 8.24h9.12c4.56 0 8.32-3.68 8.4-8.24v-1.68h33.2v1.68c0.080 4.56 3.84 8.24 8.4 8.24h9.12c4.56 0 8.32-3.68 8.4-8.24v-1.68h12c5.44 0 9.92 4.56 9.92 10.16z"></path>
<path fill="#28aae1" style="fill: var(--color2, #28aae1)" d="M130.56 109.92h-9.12c-2.8 0-5.12-2.24-5.12-5.12v-8.64c0-2.8 2.24-5.12 5.12-5.12h9.12c2.8 0 5.12 2.24 5.12 5.12v8.64c-0.080 2.8-2.32 5.12-5.12 5.12z"></path>
<path fill="#28aae1" style="fill: var(--color2, #28aae1)" d="M248.72 109.92h-9.12c-2.8 0-5.12-2.24-5.12-5.12v-8.64c0-2.8 2.24-5.12 5.12-5.12h9.12c2.8 0 5.12 2.24 5.12 5.12v8.64c0 2.8-2.24 5.12-5.12 5.12z"></path>
<path fill="#28aae1" style="fill: var(--color2, #28aae1)" d="M189.68 109.92h-9.12c-2.8 0-5.12-2.24-5.12-5.12v-8.64c0-2.8 2.24-5.12 5.12-5.12h9.12c2.8 0 5.12 2.24 5.12 5.12v8.64c-0.080 2.8-2.32 5.12-5.12 5.12z"></path>
<path fill="#28aae1" style="fill: var(--color2, #28aae1)" d="M263.44 179.040c-25.92 0-46.96 21.040-46.96 46.96s21.040 46.96 46.96 46.96c25.92 0 46.96-21.040 46.96-46.96s-21.040-46.96-46.96-46.96zM263.44 268.88c-23.6 0-42.8-19.12-42.8-42.8 0-23.6 19.12-42.8 42.8-42.8 23.6 0 42.8 19.12 42.8 42.8-0.080 23.6-19.2 42.8-42.8 42.8z"></path>
<path fill="#28aae1" style="fill: var(--color2, #28aae1)" d="M263.36 193.2c-1.84-0.080-3.28-1.6-3.2-3.44s1.52-3.2 3.36-3.2c0.96 0 1.84 0.4 2.4 1.040 0.64 0.64 0.96 1.52 0.88 2.4-0.080 1.84-1.52 3.2-3.36 3.2h-0.080z"></path>
<path fill="#28aae1" style="fill: var(--color2, #28aae1)" d="M265.68 189.92c0 1.2-1.040 2.16-2.24 2.16s-2.16-1.040-2.16-2.24c0-1.2 1.040-2.16 2.24-2.16s2.16 1.040 2.16 2.24z"></path>
<path fill="#28aae1" style="fill: var(--color2, #28aae1)" d="M245.28 197.12c-0.88 0-1.68-0.56-2.080-1.28-0.32-0.56-0.4-1.28-0.16-1.92 0.16-0.64 0.64-1.12 1.2-1.44 0.4-0.16 0.8-0.32 1.2-0.32 0.96 0 1.76 0.56 2.16 1.28 0.32 0.56 0.4 1.28 0.16 1.92-0.16 0.64-0.64 1.12-1.2 1.44-0.4 0.24-0.8 0.32-1.28 0.32v0z"></path>
<path fill="#28aae1" style="fill: var(--color2, #28aae1)" d="M245.28 196c-0.48 0-0.96-0.32-1.12-0.72-0.32-0.64-0.080-1.44 0.56-1.84 0.24-0.080 0.48-0.16 0.64-0.16 0.48 0 0.96 0.32 1.12 0.72 0.16 0.32 0.24 0.72 0.080 1.040-0.080 0.32-0.32 0.64-0.64 0.8-0.16 0.16-0.4 0.16-0.64 0.16z"></path>
<path fill="#28aae1" style="fill: var(--color2, #28aae1)" d="M232 210.4c-0.4 0-0.88-0.16-1.2-0.4-0.56-0.32-0.96-0.88-1.12-1.52s-0.080-1.28 0.32-1.84c0.48-0.72 1.28-1.2 2.080-1.2 0.48 0 0.96 0.16 1.28 0.4 0.56 0.32 0.96 0.88 1.12 1.52s0.080 1.28-0.32 1.84c-0.48 0.72-1.28 1.2-2.16 1.2v0z"></path>
<path fill="#28aae1" style="fill: var(--color2, #28aae1)" d="M232 209.28c-0.24 0-0.48-0.080-0.64-0.24-0.64-0.4-0.8-1.2-0.48-1.84 0.24-0.4 0.72-0.64 1.2-0.64 0.24 0 0.48 0.080 0.64 0.24 0.64 0.4 0.8 1.2 0.48 1.84-0.24 0.4-0.72 0.64-1.2 0.64z"></path>
<path fill="#28aae1" style="fill: var(--color2, #28aae1)" d="M227.12 229.36c-0.88 0-1.68-0.4-2.32-1.040s-0.96-1.52-0.88-2.4c0.080-1.84 1.52-3.2 3.36-3.2 1.92 0.080 3.36 1.6 3.36 3.44-0.080 1.84-1.52 3.2-3.36 3.2h-0.16z"></path>
<path fill="#28aae1" style="fill: var(--color2, #28aae1)" d="M227.28 223.84c1.2 0 2.16 1.040 2.16 2.24s-1.040 2.16-2.24 2.16c-1.2 0-2.16-1.040-2.16-2.24 0-1.28 0.96-2.24 2.24-2.16z"></path>
<path fill="#28aae1" style="fill: var(--color2, #28aae1)" d="M232 246.64c-0.88 0-1.68-0.48-2.080-1.28-0.64-1.2-0.16-2.72 1.040-3.36 0.32-0.16 0.8-0.32 1.2-0.32 0.96 0 1.76 0.56 2.16 1.28 0.64 1.2 0.16 2.72-1.040 3.36-0.4 0.16-0.8 0.32-1.28 0.32v0z"></path>
<path fill="#28aae1" style="fill: var(--color2, #28aae1)" d="M232 245.52c-0.48 0-0.96-0.32-1.12-0.72-0.32-0.64-0.080-1.44 0.56-1.84 0.24-0.080 0.48-0.16 0.64-0.16 0.48 0 0.96 0.32 1.12 0.72 0.32 0.64 0.080 1.44-0.56 1.84-0.16 0.080-0.4 0.16-0.64 0.16z"></path>
<path fill="#28aae1" style="fill: var(--color2, #28aae1)" d="M245.2 259.84c-0.4 0-0.88-0.16-1.2-0.4-0.56-0.32-0.96-0.88-1.12-1.52s-0.080-1.28 0.32-1.84c0.48-0.72 1.28-1.2 2.080-1.2 0.48 0 0.96 0.16 1.28 0.4 0.56 0.32 0.96 0.88 1.12 1.52s0.080 1.28-0.32 1.84c-0.4 0.8-1.2 1.2-2.16 1.2v0z"></path>
<path fill="#28aae1" style="fill: var(--color2, #28aae1)" d="M245.2 258.72c-0.24 0-0.48-0.080-0.64-0.24-0.64-0.4-0.8-1.2-0.48-1.84 0.24-0.4 0.72-0.64 1.2-0.64 0.24 0 0.48 0.080 0.64 0.24 0.64 0.4 0.8 1.2 0.48 1.84-0.24 0.48-0.72 0.72-1.2 0.64z"></path>
<path fill="#28aae1" style="fill: var(--color2, #28aae1)" d="M263.28 265.6c-1.84-0.080-3.28-1.6-3.2-3.44s1.52-3.2 3.36-3.2c1.92 0.080 3.36 1.6 3.36 3.44-0.080 1.84-1.52 3.2-3.36 3.2h-0.16z"></path>
<path fill="#28aae1" style="fill: var(--color2, #28aae1)" d="M261.2 262.24c0-1.2 1.040-2.16 2.24-2.16s2.16 1.040 2.16 2.24c0 1.2-1.040 2.16-2.24 2.16-1.28 0-2.24-1.040-2.16-2.24z"></path>
<path fill="#28aae1" style="fill: var(--color2, #28aae1)" d="M281.44 259.92c-0.88 0-1.68-0.56-2.080-1.28-0.32-0.56-0.4-1.28-0.16-1.92 0.16-0.64 0.64-1.12 1.2-1.44 0.4-0.16 0.8-0.32 1.2-0.32 0.96 0 1.76 0.56 2.16 1.28 0.64 1.2 0.16 2.72-0.96 3.36-0.4 0.16-0.8 0.32-1.2 0.32h-0.16z"></path>
<path fill="#28aae1" style="fill: var(--color2, #28aae1)" d="M281.44 258.8c-0.48 0-0.96-0.32-1.12-0.72-0.32-0.64-0.080-1.44 0.56-1.84 0.24-0.080 0.48-0.16 0.64-0.16 0.48 0 0.96 0.32 1.12 0.72 0.32 0.64 0.080 1.44-0.56 1.84-0.16 0.080-0.4 0.16-0.64 0.16z"></path>
<path fill="#28aae1" style="fill: var(--color2, #28aae1)" d="M294.72 246.64c-0.4 0-0.88-0.16-1.2-0.4-0.56-0.32-0.96-0.88-1.12-1.52s-0.080-1.28 0.32-1.84c0.48-0.72 1.28-1.2 2.080-1.2 0.48 0 0.96 0.16 1.28 0.4 0.56 0.32 0.96 0.88 1.12 1.52s0.080 1.28-0.32 1.84c-0.48 0.8-1.28 1.2-2.16 1.2v0z"></path>
<path fill="#28aae1" style="fill: var(--color2, #28aae1)" d="M294.72 245.52c-0.24 0-0.48-0.080-0.64-0.24-0.32-0.16-0.56-0.48-0.64-0.8s0-0.72 0.16-1.040c0.24-0.4 0.72-0.64 1.2-0.64 0.24 0 0.48 0.080 0.64 0.24 0.32 0.16 0.56 0.48 0.64 0.8s0 0.72-0.16 1.040c-0.24 0.4-0.72 0.64-1.2 0.64z"></path>
<path fill="#28aae1" style="fill: var(--color2, #28aae1)" d="M299.52 229.44c-1.84-0.080-3.28-1.6-3.2-3.44s1.52-3.2 3.36-3.2c1.92 0.080 3.36 1.6 3.36 3.44-0.080 1.84-1.52 3.28-3.36 3.28h-0.16z"></path>
<path fill="#28aae1" style="fill: var(--color2, #28aae1)" d="M299.6 228.32c-1.2 0-2.16-1.040-2.16-2.24s1.040-2.16 2.24-2.16c1.2 0 2.16 1.040 2.16 2.24s-1.040 2.16-2.24 2.16z"></path>
<path fill="#28aae1" style="fill: var(--color2, #28aae1)" d="M294.72 210.48c-0.88 0-1.68-0.56-2.080-1.28-0.64-1.2-0.16-2.72 1.040-3.36 0.32-0.16 0.8-0.32 1.2-0.32 0.96 0 1.76 0.56 2.16 1.28 0.32 0.56 0.4 1.28 0.16 1.92-0.16 0.64-0.64 1.12-1.2 1.44-0.4 0.16-0.8 0.32-1.28 0.32v0z"></path>
<path fill="#28aae1" style="fill: var(--color2, #28aae1)" d="M294.72 209.36c-0.48 0-0.96-0.32-1.12-0.72-0.32-0.64-0.080-1.44 0.56-1.84 0.24-0.080 0.48-0.16 0.64-0.16 0.48 0 0.96 0.32 1.12 0.72 0.32 0.64 0.080 1.44-0.56 1.84-0.16 0.080-0.4 0.16-0.64 0.16z"></path>
<path fill="#28aae1" style="fill: var(--color2, #28aae1)" d="M281.44 197.2c-0.48 0-0.88-0.16-1.2-0.4-0.56-0.32-0.96-0.88-1.12-1.52s-0.080-1.28 0.32-1.84c0.48-0.72 1.28-1.2 2.080-1.2 0.48 0 0.96 0.16 1.28 0.4 0.56 0.32 0.96 0.88 1.12 1.52s0.080 1.28-0.32 1.84c-0.4 0.72-1.2 1.2-2.16 1.2v0z"></path>
<path fill="#28aae1" style="fill: var(--color2, #28aae1)" d="M281.52 196.080c-0.24 0-0.48-0.080-0.64-0.24-0.32-0.16-0.56-0.48-0.64-0.8s0-0.72 0.16-1.040c0.24-0.4 0.72-0.64 1.2-0.64 0.24 0 0.48 0.080 0.64 0.24 0.32 0.16 0.56 0.48 0.64 0.8s0 0.72-0.16 1.040c-0.32 0.4-0.72 0.64-1.2 0.64z"></path>
<path fill="#28aae1" style="fill: var(--color2, #28aae1)" d="M261.44 229.84l-20.64 10.96 18.32-14.16c0.24 1.36 1.12 2.56 2.32 3.2z"></path>
<path fill="#28aae1" style="fill: var(--color2, #28aae1)" d="M264.64 222c-0.4-0.16-0.8-0.16-1.2-0.16-1.040 0-1.92 0.32-2.64 0.88l-2.8-28.080 6.64 27.36z"></path>
<path fill="#28aae1" style="fill: var(--color2, #28aae1)" d="M291.12 252.4l-25.2-22.88c0.48-0.32 0.8-0.72 1.12-1.2l24.080 24.080z"></path>
<path fill="#28aae1" style="fill: var(--color2, #28aae1)" d="M266.080 226.080c0 1.44-1.2 2.64-2.64 2.64s-2.64-1.2-2.64-2.64c0-1.44 1.2-2.64 2.64-2.64 1.44-0.080 2.64 1.12 2.64 2.64z"></path>
</symbol>
<symbol id="icon-bl-icon-5" viewBox="0 0 400 400">
<path fill="#28aae1" style="fill: var(--color2, #28aae1)" d="M260.64 186.4v38.56c0 6.4-26.56 20.48-59.36 20.48s-59.36-14-59.36-20.48v-38.56l59.36 19.28 59.36-19.28z"></path>
<path fill="#4d4e4e" style="fill: var(--color1, #4d4e4e)" d="M201.76 159.76l-0.88-4.88v-0.16c0.16 0 0.32 0 0.48 0 1.92 0 3.76 0.4 5.040 0.96 0.96 0.48 1.6 1.12 1.6 1.6s-0.64 1.12-1.68 1.6c-1.2 0.56-2.88 0.88-4.56 0.96v-0.080z"></path>
<path fill="#4d4e4e" style="fill: var(--color1, #4d4e4e)" d="M313.28 160.64l-111.92 36.4-67.84-22.080 67.84-12.56c2.32 0 4.48-0.48 6.16-1.28 1.92-0.96 3.040-2.32 3.040-3.84s-1.12-2.88-3.040-3.84c-3.28-1.6-8.8-1.6-12.16-0.080l-74.32 13.84-1.12 1.44c-0.32 0.32-0.56 0.72-0.88 1.6l-29.6-9.6 112-43.040 111.84 43.040z"></path>
<path fill="#28aae1" style="fill: var(--color2, #28aae1)" d="M194.96 161.040l-69.28 12.88c-0.32 1.84-0.8 6.56-0.8 17.68h-4.96c0-19.12 1.36-20.88 1.84-21.44l0.56-0.72 70-13.040c-0.080 0.24-0.16 0.56-0.16 0.88 0 1.52 0.96 2.8 2.8 3.76z"></path>
<path fill="#4d4e4e" style="fill: var(--color1, #4d4e4e)" d="M201.76 159.76l-0.72 0.16c-1.76 0-3.6-0.32-4.8-0.96-0.96-0.48-1.68-1.12-1.68-1.6s0.56-1.12 1.52-1.52l4.72-0.88 0.96 4.8z"></path>
<path fill="#28aae1" style="fill: var(--color2, #28aae1)" d="M208 157.36c0 0.48-0.64 1.12-1.68 1.6-2.64 1.28-7.52 1.28-10.16 0-0.96-0.48-1.68-1.12-1.68-1.6s0.64-1.12 1.68-1.6c1.28-0.64 3.2-0.96 5.040-0.96 1.92 0 3.76 0.4 5.040 0.96 1.12 0.48 1.76 1.040 1.76 1.6z"></path>
<path fill="#28aae1" style="fill: var(--color2, #28aae1)" d="M119.92 190.32l-7.92 58.96c0 0 2.24 2.8 8.88 2.8s9.92-3.040 9.92-3.040l-6-58.72h-4.88z"></path>
<path fill="#28aae1" style="fill: var(--color2, #28aae1)" d="M128.32 191.040c0 3.28-2.64 6-6 6-3.28 0-6-2.64-6-6 0-3.28 2.64-6 6-6 3.36 0.080 6 2.72 6 6z"></path>
</symbol>
<symbol id="icon-ol-icon-1" viewBox="0 0 400 400">
<path fill="#4d4e4e" style="fill: var(--color1, #4d4e4e)" d="M199.12 165.2c15.36 0 27.84-12.48 27.84-27.84s-12.48-27.84-27.84-27.84c-15.36 0-27.84 12.48-27.84 27.84-0.080 15.36 12.4 27.84 27.84 27.84z"></path>
<path fill="#28aae1" style="fill: var(--color2, #28aae1)" d="M277.68 188.8l-0.32 0.16-26.88 14.48c-1.76 0.56-15.92 5.76-16.24 21.36 0 0.080 0 0.16 0 0.24v30.16h-70.32v-30.16c0-2.56-1.76-4.56-4-4.56s-4 2.080-4 4.56v30.16h-19.36v-50.32c0-15.36 12.96-27.92 28.32-27.92h68.32c0.32 0 0.56 0 0.88 0.080v0c0 0 0.16 0 0.32 0 0.8 0.080 1.52 0.080 2.24 0.16 4.88 0.4 15.36 0.96 18.72-0.24 0.080 0 0.16 0 0.24-0.080l11.6-6.24c1.44-0.96 2.16-2.64 1.76-4.32l-0.16-1.12-4.64-41.52c-0.64-5.76 3.52-10.88 9.2-11.52 5.76-0.64 10.88 3.52 11.6 9.2l4.56 41.040c2 10.48-2.64 20.96-11.84 26.4z"></path>
<path fill="#4d4e4e" style="fill: var(--color1, #4d4e4e)" d="M83.76 264.8h230.64v10.24h-230.64v-10.24z"></path>
</symbol>
<symbol id="icon-ol-icon-2" viewBox="0 0 400 400">
<path fill="#4d4e4e" style="fill: var(--color1, #4d4e4e)" d="M167.68 238.4v2.48h-7.28v54.88h-9.6v-48.8h-50.080v48.8h-9.6v-134.4h9.6v2.88h4.72v42.56h-4.72v24.56h35.2l31.44 4.72 0.32 2.32z"></path>
<path fill="#4d4e4e" style="fill: var(--color1, #4d4e4e)" d="M262.4 175.36h22.24v120.080h-22.24v-120.080z"></path>
<path fill="#4d4e4e" style="fill: var(--color1, #4d4e4e)" d="M204.8 286.56h105.6v8.8h-105.6v-8.8z"></path>
<path fill="#4d4e4e" style="fill: var(--color1, #4d4e4e)" d="M298.56 167.92v7.92h-131.040v-5.84c3.2 1.2 6.56 1.84 10 1.84 0.56 0 1.2 0 1.76-0.080l26.8-1.68c2.4-0.16 4.72-0.96 6.56-2.24h85.92z"></path>
<path fill="#4d4e4e" style="fill: var(--color1, #4d4e4e)" d="M202.16 175.36h61.28v14.56h-61.28v-14.56z"></path>
<path fill="#28aae1" style="fill: var(--color2, #28aae1)" d="M204.64 147.84l-26.8 1.68c-1.36 0.080-2.72-0.32-3.84-1.2l-16.96-13.040c-2.48-3.84-6.56-6.72-11.52-7.52l-4.56-0.72c-9.2-1.44-17.84 4.8-19.28 14l-10.4 65.6c-1.44 9.2 4.8 17.84 14 19.28l4.56 0.72c2 0.32 3.92 0.24 5.84-0.080l34 5.12c0.96 0.16 1.68 0.88 1.84 1.84l8.96 52.16c0.8 4.48 4.72 7.68 9.12 7.68 0.56 0 1.040-0.080 1.6-0.16 5.040-0.88 8.48-5.68 7.6-10.72l-8.96-52.16c-1.52-8.8-8.48-15.68-17.36-17.040l-22.88-3.44 8.24-51.76 5.44 4.16c4.080 3.12 9.12 4.8 14.24 4.8 0.48 0 0.96 0 1.44-0.080l26.8-1.68c4.88-0.32 8.56-4.48 8.24-9.36-0.32-4.64-4.48-8.32-9.36-8.080z"></path>
<path fill="#28aae1" style="fill: var(--color2, #28aae1)" d="M166.64 103.84c0 10.56-8.56 19.12-19.12 19.12s-19.12-8.56-19.12-19.12c0-10.56 8.56-19.12 19.12-19.12 10.48 0 19.12 8.56 19.12 19.12z"></path>
</symbol>
<symbol id="icon-ol-icon-3" viewBox="0 0 400 400">
<path fill="#4d4e4e" style="fill: var(--color1, #4d4e4e)" d="M192.16 133.68h-18.72c-2 0-3.6-1.6-3.6-3.6v-10.4c0-2 1.6-3.6 3.6-3.6h18.72c2 0 3.6 1.6 3.6 3.6v10.4c0 2-1.6 3.6-3.6 3.6zM173.44 119.36c-0.16 0-0.32 0.16-0.32 0.32v10.4c0 0.16 0.16 0.32 0.32 0.32h18.72c0.16 0 0.32-0.16 0.32-0.32v-10.4c0-0.16-0.16-0.32-0.32-0.32h-18.72z"></path>
<path fill="#4d4e4e" style="fill: var(--color1, #4d4e4e)" d="M225.28 133.68h-18.72c-2 0-3.6-1.6-3.6-3.6v-10.4c0-2 1.6-3.6 3.6-3.6h18.72c2 0 3.6 1.6 3.6 3.6v10.4c-0.080 2-1.68 3.6-3.6 3.6zM206.56 119.36c-0.16 0-0.32 0.16-0.32 0.32v10.4c0 0.16 0.16 0.32 0.32 0.32h18.72c0.16 0 0.32-0.16 0.32-0.32v-10.4c0-0.16-0.16-0.32-0.32-0.32h-18.72z"></path>
<path fill="#4d4e4e" style="fill: var(--color1, #4d4e4e)" d="M194.16 123.28h10.48v3.28h-10.48v-3.28z"></path>
<path fill="#4d4e4e" style="fill: var(--color1, #4d4e4e)" d="M170.48 126.16l-14.080-12.16 2.16-2.48 14 12.16-2.080 2.48z"></path>
<path fill="#4d4e4e" style="fill: var(--color1, #4d4e4e)" d="M228.24 126.16l-2.080-2.48 14-12.16 2.16 2.48-14.080 12.16z"></path>
<path fill="#4d4e4e" style="fill: var(--color1, #4d4e4e)" d="M174.88 168.16c0.24 0.64 1.28 3.040 2.64 5.28 0 0.16 0 0.32-0.080 0.56-0.080 0.56-0.16 1.040-0.32 1.6-0.24 0.88-0.56 1.84-0.96 2.72-1.2 2.64-3.28 5.28-6.16 7.84l-0.16 0.16-0.24 0.16-0.4 0.4c-0.32 0.24-0.56 0.48-0.8 0.64-2.16 1.76-4.8 3.52-7.76 5.28-0.64 0.4-1.28 0.72-1.92 1.12-0.48-1.2-1.040-2.4-1.84-3.44 0.56-0.32 1.2-0.64 1.76-1.040 2.8-1.6 5.28-3.36 7.44-5.040 0.16-0.080 0.32-0.24 0.56-0.4 0.16-0.16 0.32-0.32 0.56-0.48 0.080-0.080 0.24-0.16 0.32-0.32 3.040-2.72 5.2-5.6 5.92-8.56 0-0.080 0.080-0.24 0.080-0.32 0.080-0.24 0.080-0.48 0.080-0.72 0.080-0.4 0.080-0.8 0.080-1.2-0.080-0.4-0.64-3.28-0.64-3.28 0.48-0.56 0.96-0.96 1.52-1.44 0.080 0.080 0.080 0.16 0.080 0.24l0.24 0.24z"></path>
<path fill="#4d4e4e" style="fill: var(--color1, #4d4e4e)" d="M241.92 190.72c-0.88 0.96-1.6 2.080-2.080 3.28-0.8-0.4-1.52-0.8-2.24-1.2-2.96-1.76-5.44-3.44-7.6-5.12-0.080-0.080-0.16-0.16-0.24-0.16l-0.56-0.48c-0.080-0.080-0.24-0.16-0.4-0.32l-0.16-0.080c-3.040-2.72-5.28-5.44-6.48-8.16-0.4-0.96-0.8-1.84-0.96-2.8-0.16-0.56-0.24-1.12-0.32-1.6 0-0.16 0-0.24 0-0.4 1.12-1.76 2-3.68 2.56-4.88 1.2 0.32 1.92 0.56 1.92 0.56s0 0 0 0.080c-0.080 0.080-0.080 0.16-0.16 0.4 0 0.080 0 0.16-0.080 0.24-0.24 0.8-0.4 1.6-0.4 2.4v0.32c0 0.32 0 0.64 0.080 0.96v0c0 0.24 0.080 0.48 0.16 0.72 0 0.080 0.080 0.16 0.080 0.32 0.72 3.12 2.96 6.080 6.24 8.88 0.16 0.16 0.32 0.32 0.56 0.48 0.16 0.16 0.4 0.24 0.56 0.4 0.080 0.080 0.16 0.16 0.24 0.16 2.080 1.68 4.48 3.28 7.12 4.88 0.64 0.24 1.36 0.64 2.16 1.12z"></path>
<path fill="#28aae1" style="fill: var(--color2, #28aae1)" d="M288.56 210.96c0.48 0.16 0.96 0.4 1.44 0.64 0.4 0.16 0.8 0.4 1.36 0.64 0.4 0.24 0.88 0.48 1.28 0.64 0.16 0.080 0.32 0.16 0.48 0.32l0.24 0.16c0.16 0.080 0.24 0.16 0.4 0.24l1.040 0.72c0.56 0.56 0.8 0.88 0.88 1.040 1.12 2.24 4.96 10.24 6 16.32 0.32 1.84 0.48 2.96 0.56 3.76 0.24 2.16 0.4 2.48 1.92 5.28 1.2 2.24 1.36 4.56 1.44 7.76 0.080 1.6 0.16 3.52 0.4 5.68 0.24 1.84 0.48 4.24 0.8 6.88l0.24 2.56c0.4 3.76 0.8 7.36 1.12 10h3.92c-0.32-2.72-0.72-6.72-1.12-10.4l-0.24-2.56c-0.32-2.64-0.56-5.040-0.72-6.88-0.24-2.080-0.32-3.84-0.4-5.44-0.16-3.44-0.32-6.4-1.92-9.44-1.28-2.4-1.28-2.4-1.52-3.92-0.080-0.8-0.24-2-0.56-3.92-1.12-6.48-4.8-14.32-6.32-17.36-0.4-0.8-0.96-1.52-1.84-2.24-0.080-0.080-0.32-0.24-0.56-0.4l-0.24-0.16c-0.16-0.16-0.32-0.32-0.56-0.4-0.16-0.080-0.4-0.24-0.72-0.4-0.24-0.16-0.48-0.32-0.72-0.4-0.48-0.32-0.96-0.56-1.52-0.88-0.48-0.24-0.96-0.48-1.36-0.64-0.48-0.24-1.040-0.48-1.6-0.72l-0.64-0.32c-0.72-0.32-1.44-0.56-2.080-0.8l-1.92-0.8c-3.44-1.28-10.080-4.8-11.84-6-0.16-0.080-0.4-0.24-0.8-0.4l-0.32-0.16c-0.24-0.16-0.48-0.24-0.8-0.32l-0.96-0.4-0.24-0.080-1.12-0.4c-0.4-0.16-0.8-0.32-1.040-0.4l-0.32-0.16c-0.080 0-0.16-0.080-0.16-0.080l-1.36-0.56c-0.16-0.080-0.32-0.080-0.48-0.16l-3.84-1.44c-0.16-0.080-0.32-0.16-0.56-0.16l-3.68-1.44-0.32-0.16-3.84-1.52-0.24-0.080-4-1.92c-0.080-0.080-0.24-0.16-0.4-0.24s-0.4-0.16-0.64-0.32c-0.24-0.080-0.4-0.16-0.64-0.32-0.16-0.080-0.4-0.16-0.56-0.24-0.24-0.080-0.56-0.24-0.8-0.4-0.16-0.080-0.4-0.16-0.64-0.24 0 0-0.48-0.16-1.2-0.48-1.84-0.72-4 0.080-5.040 1.76l-0.080 0.080-0.16 0.32c0.88 0.32 1.76 0.64 2.64 0.96l0.4 0.16 0.64-1.84-0.4 1.92 1.68 0.64h0.080c0.4 0.16 0.88 0.32 1.36 0.56 0.080 0.080 0.24 0.080 0.4 0.16 0.080 0 0.16 0.080 0.24 0.080 0.32 0.16 0.64 0.32 1.040 0.48l0.88 0.48c0.56 0.32 1.040 0.56 1.52 0.8 0.16 0.080 0.32 0.16 0.32 0.16l1.2 0.56 0.72-1.76-0.4 1.92 0.32 0.16 0.8-1.76-0.4 1.92c0.16 0.080 0.32 0.16 0.4 0.16l4.96 1.92 0.8-1.76-0.48 1.92 0.4 0.16 0.72-1.84-0.4 1.92 1.52 0.56c0.24 0.080 0.4 0.16 0.64 0.24l4.32 1.6c0.080 0.080 0.24 0.080 0.32 0.16l3.040 1.12 0.96-1.68-0.56 1.92 0.56 0.24 0.88-1.76-0.56 1.84 0.4 0.16c0.24 0.080 0.4 0.16 0.64 0.24l0.32 0.16c0.16 0.080 0.24 0.16 0.32 0.16 1.92 1.28 8.8 4.96 12.56 6.4l1.92 0.64c0.64 0.24 1.28 0.56 2 0.88l0.4 0.4zM121.68 204.96c3.040-1.6 5.76-3.040 8.8-4.16l4-1.52c0.16-0.080 0.32-0.080 0.56-0.16l6.56-2.56c0.96-0.4 1.84-0.72 2.72-1.12l3.36-1.44-0.88-1.76 1.12 1.6 0.4-0.24c0.16-0.080 0.32-0.16 0.4-0.24l1.84-0.88-0.56-1.84 1.040 1.68 0.24-0.080c0.080 0 0.16-0.080 0.24-0.080 0.4-0.16 0.88-0.32 1.12-0.48l0.88-0.32 0.96-0.32-0.64-1.84 1.040 1.68 1.36-0.48c0.4-0.16 0.8-0.32 1.2-0.48l1.12-0.32v-0.080l-0.24-0.48c-1.040-1.76-3.12-2.56-5.040-1.84l-1.76 0.64-0.080 0.080c-0.56 0.24-1.12 0.4-1.68 0.72l-0.24 0.080-1.36 0.64c-0.24 0.080-0.4 0.24-0.56 0.32l-1.36 0.8-0.4 0.24-0.8 0.32-0.72 0.32c-0.16 0.080-0.4 0.16-0.48 0.16l-1.040 0.4c-0.8 0.32-1.68 0.72-2.64 1.12l-6.48 2.48c-0.24 0.080-0.48 0.16-0.64 0.24-0.16 0-0.32 0.080-0.48 0.16l-2.88 1.040-0.32 0.080-0.32 0.16c-3.28 1.2-6.16 2.8-9.2 4.4-2.56 1.44-5.44 2.64-8.16 3.76-3.040 1.2-6.16 2.56-9.12 4.24-0.24 0.16-0.56 0.32-0.8 0.48l-0.32 0.16c-0.32 0.24-0.64 0.48-0.96 0.64-0.16 0.080-0.32 0.24-0.32 0.24l-0.48 0.4c-0.88 0.8-1.44 1.44-1.84 2.24-1.44 2.8-4.88 10.080-6.16 16.4l-0.16 1.040c-0.32 1.84-0.48 3.040-0.56 3.92-0.16 1.52-0.16 1.52-1.52 3.92-1.6 3.040-1.76 6-1.92 9.44-0.080 1.6-0.16 3.36-0.4 5.36-0.32 2.48-0.72 6.080-1.040 9.76-0.4 3.6-0.8 7.52-1.12 10.080h3.92c0.32-2.56 0.64-6.080 1.040-9.68s0.72-7.2 1.040-9.68c0.24-2.16 0.32-4 0.4-5.68 0.16-3.2 0.24-5.52 1.44-7.76 1.52-2.8 1.68-3.12 1.92-5.28 0.080-0.8 0.24-1.92 0.56-3.68l0.16-0.88c1.2-6 4.8-13.36 5.84-15.44 0.080-0.16 0.32-0.56 0.8-0.96 0.080-0.080 0.16-0.16 0.4-0.32l0.32-0.24c0.24-0.16 0.56-0.4 1.040-0.72 0.24-0.080 0.4-0.24 0.64-0.32 2.8-1.6 5.6-2.8 8.72-4.080 2.8-1.2 5.76-2.48 8.48-4z"></path>
<path fill="#4d4e4e" style="fill: var(--color1, #4d4e4e)" d="M168.96 152.24l-10.16-10.24c-0.56-0.64-12.16-14-7.2-24.8 1.36-2.96 3.44-4.88 6.24-5.68l2.32-0.64 0.16 2.4c0.72 9.2 2.88 19.84 6.4 31.6l2.24 7.36zM156.72 116.4c-0.64 0.56-1.12 1.36-1.6 2.32-3.28 7.2 3.52 16.8 5.76 19.68-2-7.92-3.44-15.28-4.16-22z"></path>
<path fill="#4d4e4e" style="fill: var(--color1, #4d4e4e)" d="M229.28 152.56l2.24-7.44c3.6-12 5.76-22.72 6.56-32.080l0.16-2.32 2.24 0.56c2.88 0.72 5.12 2.72 6.56 5.76 4.96 10.88-6.64 24.16-7.12 24.72l-0.080 0.080-10.56 10.72zM241.68 116.16c-0.72 6.88-2.24 14.48-4.4 22.64 1.76-2.16 9.68-12.48 6.16-20.16-0.48-0.96-1.040-1.84-1.76-2.48z"></path>
<path fill="#4d4e4e" style="fill: var(--color1, #4d4e4e)" d="M199.2 62.88c-14.72 0-25.84 3.92-33.040 11.84-7.84 8.48-11.040 21.52-9.68 38.72 0.8 9.52 2.96 20.4 6.56 32.4 2.56 8.64 5.36 16.4 8 23.36l0.16 0.4c0.32 0.8 1.12 2.56 2.24 4.56 0.8 1.36 1.68 2.8 2.8 4 0.080 0.080 0.16 0.24 0.32 0.32 1.52 1.68 3.52 3.36 5.44 5.040 1.84 1.6 3.6 3.040 4.56 4.24 2.24 2.72 6.4 4.72 10.72 5.2 0.4 0.080 0.72 0.080 1.040 0.080s0.56 0 0.88 0c4.96 0 10.080-2.080 12.64-5.28 0.96-1.12 2.72-2.64 4.56-4.24 1.92-1.6 3.92-3.36 5.44-5.040 0.080-0.16 0.24-0.24 0.32-0.4 1.040-1.2 1.92-2.64 2.72-4 0.96-1.76 1.76-3.44 2.24-4.64l0.16-0.4c2.64-6.88 5.36-14.48 7.92-23.040 3.68-12.24 5.92-23.28 6.72-32.88 0.16-2.56 0.32-5.12 0.32-7.52 0-27.84-14.88-42.72-43.040-42.72zM238.080 113.040c-0.8 9.28-2.96 20.080-6.56 32.080-2.56 8.48-5.28 15.92-7.84 22.72l-0.16 0.32c-0.080 0.16-0.080 0.32-0.16 0.4-0.56 1.2-1.44 3.12-2.56 4.88-0.56 0.96-1.2 1.84-1.92 2.56-1.36 1.52-3.28 3.12-5.12 4.72-1.92 1.68-3.84 3.28-5.040 4.72-1.6 1.92-5.44 3.92-9.68 3.92-0.24 0-0.4 0-0.72 0-0.24 0-0.56-0.080-0.8-0.080-3.76-0.4-6.8-2.16-8.16-3.84-1.12-1.36-3.040-3.040-4.96-4.72-1.84-1.6-3.76-3.2-5.12-4.72-0.64-0.8-1.28-1.68-1.92-2.56-1.36-2.24-2.4-4.64-2.64-5.28l-0.16-0.32c0-0.080-0.080-0.16-0.080-0.24-2.56-6.88-5.28-14.4-7.84-22.88-3.52-11.76-5.68-22.4-6.4-31.6-1.36-16.080 1.6-28.080 8.64-35.76 6.4-7.040 16.64-10.56 30.16-10.56 26.4 0 39.2 12.8 39.2 39.040 0.16 2.32 0 4.72-0.16 7.2z"></path>
<path fill="#4d4e4e" style="fill: var(--color1, #4d4e4e)" d="M166.48 97.52c-0.16-1.12-0.4-2.32-0.64-3.6-0.8-4.16-2.64-8.16-2.88-12.64 0-0.48 0-0.96 0-1.44-0.96 1.36-1.84 2.64-2.56 3.68-5.28 7.44-3.84 22.96-3.84 24.080s1.68 20.56 4.48 26.080c2.8 5.52 2.080-10.88 2.080-10.88-0.56-15.040 3.28-14.88 3.040-22.32 0.080-1.2 0.16-2.16 0.32-2.96z"></path>
<path fill="#4d4e4e" style="fill: var(--color1, #4d4e4e)" d="M231.36 97.52c0.16-1.12 0.4-2.32 0.64-3.6 0.8-4.16 2.64-8.16 2.88-12.64 0-0.48 0-0.96 0-1.44 0.96 1.36 1.84 2.64 2.56 3.68 5.28 7.44 3.84 22.96 3.84 24.080s-1.68 20.56-4.48 26.080c-2.8 5.52-2.080-10.88-2.080-10.88 0.56-15.040-3.28-14.88-3.12-22.32 0-1.2-0.080-2.16-0.24-2.96z"></path>
<path fill="#28aae1" style="fill: var(--color2, #28aae1)" d="M308.56 260.88c-0.32-2.56-0.56-5.040-0.8-6.88-0.8-6.48 0-10.24-2.16-14.16s-1.2-2.24-2.32-8.4c-1.12-6.16-4.8-13.84-6.32-16.88-0.32-0.56-0.8-1.12-1.44-1.6 0.080-0.16 0.080-0.32 0.080-0.32-0.080-0.080-0.16-0.16-0.32-0.16-0.16-0.16-0.32-0.24-0.56-0.4-0.16-0.16-0.4-0.32-0.64-0.4-0.16-0.16-0.4-0.24-0.64-0.4-1.28-0.72-2.8-1.44-4.24-2.080-0.24-0.080-0.4-0.16-0.64-0.32-0.72-0.32-1.44-0.56-2.080-0.8-0.72-0.32-1.36-0.48-1.92-0.72-3.6-1.36-10.32-4.96-12.16-6.16-0.16-0.080-0.32-0.16-0.56-0.24-0.080-0.080-0.24-0.080-0.32-0.16-0.24-0.16-0.56-0.24-0.8-0.4-0.080 0-0.080 0-0.16-0.080h-0.080c-0.080-0.080-0.16-0.080-0.24-0.080-0.080-0.080-0.16-0.080-0.32-0.080-0.080-0.080-0.080-0.080-0.16-0.080s-0.080-0.080-0.16-0.080h-0.080c-0.080 0-0.16-0.080-0.24-0.080v0c-0.16-0.080-0.4-0.16-0.64-0.24 0-0.080 0-0.080 0-0.080-0.080 0-0.080 0-0.080 0-0.4-0.16-0.8-0.32-1.12-0.4-0.080-0.080-0.080-0.080-0.16-0.080s-0.16-0.080-0.32-0.080-0.48-0.16-0.72-0.32c0 0-0.080 0-0.080 0-0.16-0.080-0.32-0.080-0.48-0.16 0 0-0.080 0-0.080-0.080-0.080 0-0.24-0.080-0.32-0.080-0.16-0.080-0.32-0.16-0.56-0.16-0.080-0.080-0.24-0.080-0.32-0.16-0.16-0.080-0.32-0.16-0.48-0.16-0.16-0.080-0.32-0.080-0.4-0.16-0.32-0.080-0.64-0.24-0.96-0.32-0.32-0.16-0.64-0.24-0.96-0.4-0.080 0-0.080-0.080-0.16-0.080-0.24-0.080-0.4-0.16-0.64-0.24-0.080 0-0.080-0.080-0.16-0.080-0.56-0.24-1.12-0.4-1.68-0.64-0.080-0.080-0.16-0.080-0.24-0.080s-0.16-0.080-0.24-0.080c-0.080 0-0.080-0.080-0.16-0.080-0.080-0.080-0.080-0.080-0.16-0.080l-1.12-0.4c-0.080 0-0.16-0.080-0.24-0.080-0.16-0.080-0.32-0.080-0.48-0.16-0.24-0.080-0.4-0.16-0.64-0.24-0.16-0.080-0.4-0.16-0.56-0.24-0.24-0.080-0.56-0.16-0.8-0.32-0.4-0.16-0.72-0.32-1.040-0.48-0.16-0.080-0.24-0.080-0.4-0.16s-0.24-0.080-0.4-0.16c-0.16-0.080-0.24-0.080-0.4-0.16-0.080-0.080-0.16-0.080-0.32-0.16 0 0-0.080 0-0.080-0.080-0.24-0.080-0.4-0.16-0.64-0.32-0.080-0.080-0.24-0.080-0.32-0.16s-0.16-0.16-0.32-0.16c-1.76-0.88-3.52-1.92-5.44-2.64-0.16-0.080-0.32-0.080-0.48-0.16-0.080 0-0.080 0-0.080 0-0.080-0.080-0.16-0.080-0.32-0.16s-0.32-0.16-0.56-0.16c-0.080 0-0.080-0.080-0.16-0.080 0 0 0 0 0 0-0.080-0.080-0.16-0.080-0.32-0.16-0.080 0-0.080 0-0.16-0.080-0.080 0-0.16 0-0.16-0.080 0 0 0 0 0 0-0.080 0-0.16-0.080-0.24-0.080s-0.080 0-0.16 0c0 0 0 0 0 0-0.080-0.080-0.24-0.080-0.32-0.080-0.32-0.16-0.64-0.24-0.96-0.4-0.32-0.080 0.16 0.080-0.16-0.080l-1.44 1.12-0.16 0.32-1.76 3.040-38.48 65.28-2.32-3.92-38.16-64.72-1.52-1.52c-0.24 0.080-0.080-0.080-0.32 0-0.4 0.16-0.88 0.32-1.28 0.48s-0.88 0.32-1.36 0.48c-0.080 0-0.080 0.080-0.16 0.080s-0.16 0.080-0.24 0.080c-0.080 0-0.24 0.080-0.32 0.080 0 0 0 0 0 0-0.4 0.16-0.8 0.32-1.12 0.4-0.24 0.080-0.48 0.16-0.64 0.32-0.48 0.16-0.96 0.32-1.36 0.56-0.080 0.080-0.080 0.080-0.16 0.080s-0.16 0.080-0.16 0.080-0.16 0.080-0.16 0.080-0.080 0-0.16 0.080-0.080 0.080-0.16 0.080c-0.080 0.080-0.24 0.16-0.4 0.16-0.24 0.080-0.4 0.16-0.64 0.32-0.080 0-0.080 0.080-0.16 0.080 0 0-0.080 0-0.080 0.080-0.080 0.080-0.16 0.080-0.32 0.16-0.080 0.080-0.16 0.080-0.32 0.16-0.080 0.080-0.16 0.080-0.16 0.080-0.16 0.080-0.24 0.16-0.4 0.24-0.080 0.080-0.16 0.080-0.32 0.16-0.080 0.080-0.080 0.080-0.16 0.080-0.24 0.080-0.4 0.24-0.72 0.32 0 0 0 0-0.080 0 0 0-0.080 0-0.080 0s0 0-0.080 0c-0.16 0.080-0.32 0.16-0.48 0.24-0.080 0.080-0.16 0.080-0.24 0.080-0.080 0.080-0.24 0.080-0.4 0.16-1.12 0.48-2.32 0.96-3.68 1.44-0.24 0.080-0.4 0.16-0.64 0.24s-0.56 0.24-0.8 0.32c-0.080 0-0.16 0.080-0.16 0.080-0.080 0-0.16 0.080-0.24 0.080s-0.080 0.080-0.16 0.080c-0.4 0.16-0.8 0.32-1.2 0.48-0.080 0-0.16 0.080-0.16 0.080-0.4 0.16-0.8 0.32-1.2 0.48-0.080 0-0.16 0.080-0.24 0.080-0.080 0.080-0.16 0.080-0.32 0.080-0.16 0.080-0.32 0.16-0.48 0.16-0.080 0-0.24 0.080-0.32 0.16-0.080 0-0.080 0.080-0.16 0.080-0.16 0.080-0.32 0.080-0.48 0.16s-0.4 0.16-0.56 0.24c-0.72 0.24-1.36 0.48-2 0.72-0.48 0.16-0.88 0.32-1.36 0.48-0.24 0.080-0.4 0.16-0.64 0.24-0.16 0.080-0.24 0.080-0.4 0.16-0.080 0-0.24 0.080-0.32 0.080-0.080 0.080-0.24 0.080-0.32 0.16-0.24 0.080-0.56 0.16-0.8 0.32-0.080 0-0.080 0-0.16 0.080-0.4 0.16-0.8 0.32-1.12 0.4-0.080 0.080-0.080 0.080-0.16 0.080 0 0-0.080 0.080-0.080 0.080s-0.080 0-0.080 0.080c-0.080 0-0.24 0.080-0.32 0.16-0.080 0-0.080 0.080-0.16 0.080s-0.080 0-0.080 0c-0.080 0.080-0.080 0.080-0.16 0.080-0.080 0.080-0.16 0.080-0.32 0.16 0 0-0.080 0.080-0.16 0.080 0 0-0.080 0.080-0.080 0.080 0 0.080-0.080 0.080-0.080 0.080-0.080 0-0.080 0.080-0.16 0.080 0 0.080-0.080 0.080-0.080 0.080s-0.080 0-0.080 0c-0.080 0.080-0.16 0.080-0.16 0.080-1.84 1.2-8.56 4.8-12.24 6.16-1.040 0.4-2.56 0.96-4.080 1.6-0.24 0.080-0.56 0.24-0.8 0.32-0.32 0.080-0.56 0.24-0.8 0.4-0.16 0.080-0.32 0.16-0.4 0.16-0.080 0.080-0.24 0.080-0.4 0.16s-0.32 0.16-0.4 0.16c-0.16 0.080-0.24 0.080-0.4 0.16-0.48 0.24-1.040 0.56-1.44 0.8-0.24 0.16-0.48 0.32-0.72 0.4-0.4 0.24-0.8 0.56-1.12 0.8-0.16 0.080-0.24 0.16-0.32 0.24s-0.080 0.080-0.16 0.080c-0.080 0.080-0.16 0.16-0.24 0.24 0 0.080 0 0.16 0 0.4-0.4 0.4-0.8 0.8-1.040 1.2-1.44 2.88-4.88 9.92-6.16 15.92-0.080 0.32-0.080 0.64-0.16 0.96-1.12 6.16-0.16 4.56-2.32 8.4-2.16 3.92-1.36 7.68-2.16 14.16-0.64 5.040-1.52 14.48-2.16 19.6h39.52l1.36-16.8 1.36 16.8h140l1.36-16.8 1.36 16.8h38c-0.16-3.040-0.72-8.080-1.2-12.56zM199.2 269.92l-47.52-77.92c0.4-0.16 0.88-0.32 1.12-0.48l0.88-0.32 45.52 74.64 45.2-74.24h0.080c0.4 0.16 0.88 0.32 1.36 0.56 0.080 0.080 0.24 0.080 0.4 0.16 0.080 0 0.16 0.080 0.24 0.080l-47.28 77.52z"></path>
<path fill="#28aae1" style="fill: var(--color2, #28aae1)" d="M151.6 187.76l2.080 3.36-0.88 0.32c-0.32 0.16-0.72 0.32-1.12 0.48l-2.080-3.36 0.24-0.080c0.56-0.24 1.12-0.48 1.68-0.72h0.080z"></path>
<path fill="#28aae1" style="fill: var(--color2, #28aae1)" d="M248.48 189.12l-2.080 3.36c-0.080-0.080-0.16-0.080-0.24-0.080-0.16-0.080-0.24-0.16-0.4-0.16-0.48-0.24-0.96-0.4-1.36-0.56h-0.080l2.080-3.36c0.32 0.16 0.56 0.24 0.8 0.4 0.16 0.080 0.32 0.16 0.56 0.24 0.32 0 0.48 0.080 0.72 0.16z"></path>
<path fill="#4d4e4e" style="fill: var(--color1, #4d4e4e)" d="M208.72 203.44h-18.32l4.72-8.32h8.8l4.8 8.32z"></path>
<path fill="#4d4e4e" style="fill: var(--color1, #4d4e4e)" d="M203.36 206.8h-7.76l-6.56 26 10.16 17.36 10.080-17.36-5.92-26z"></path>
</symbol>
<symbol id="icon-ol-icon-4" viewBox="0 0 400 400">
<path fill="#4d4e4e" style="fill: var(--color1, #4d4e4e)" d="M247.76 161.84c1.6 5.28 3.36 9.68 4.24 12 0.16 0.32 0.16 0.72 0.24 1.040 0.72-0.8 1.36-1.2 1.36-1.2h18.56c0 0 0.4 0.24 0.88 0.72 0.080-0.16 0.080-0.4 0.16-0.56 0.88-2.4 2.72-7.040 4.4-12.56l1.92-1.92c0 0 4.96-5.6 2.96-9.92-0.56-1.12-1.28-1.76-2.080-2 0.080-0.72 0.080-1.44 0.080-2.080 1.52-1.52 0.96-7.6 0.24-10.16-1.6-5.28-4.56-7.12-9.28-9.76-4.16-2.32-7.28-0.88-8.96 0.48-0.24-0.56-0.72-1.040-1.44-1.36 0 0-20.96-0.96-17.76 17.92 0.32 2 0.72 3.6 1.12 4.96-0.8 0.24-1.6 0.88-2.080 2-1.92 4.32 2.96 9.92 2.96 9.92l2.48 2.48z"></path>
<path fill="#4d4e4e" style="fill: var(--color1, #4d4e4e)" d="M303.92 192.32c-3.12-2-21.36-6.64-28.32-12.56 0 0.080 0 0.16 0 0.24-0.080 4-1.52 15.28-1.52 15.28s-3.68-7.28-11.2-7.28v0c-7.68 0-11.28 7.28-11.28 7.28s-1.52-11.28-1.52-15.28c0-0.24 0.080-0.56 0.080-0.8-4 3.84-12.88 7.2-19.76 9.6 6.32 2.88 14 5.52 17.52 6.8 6.48 2.24 9.68 3.44 11.84 4.8 2.56 1.68 5.84 5.12 8.4 9.52h34.4c14.32 0 5.52-14.96 1.36-17.6z"></path>
<path fill="#4d4e4e" style="fill: var(--color1, #4d4e4e)" d="M252 173.92c0 0 3.28 11.2 10.48 11.2s10.64-11.2 10.64-11.2-16.56-5.040-21.12 0z"></path>
<path fill="#4d4e4e" style="fill: var(--color1, #4d4e4e)" d="M118.56 161.84c1.6 5.28 3.36 9.68 4.24 12 0.16 0.32 0.16 0.72 0.24 1.040 0.72-0.8 1.36-1.2 1.36-1.2h18.56c0 0 0.4 0.24 0.88 0.72 0.080-0.16 0.080-0.4 0.16-0.56 0.88-2.4 2.72-7.040 4.4-12.56l1.92-1.92c0 0 4.96-5.6 2.96-9.92-0.48-1.12-1.28-1.76-2.080-2 0.080-0.72 0.080-1.44 0.080-2.080 1.52-1.52 0.96-7.6 0.24-10.16-1.6-5.28-4.56-7.12-9.28-9.76-4.16-2.32-7.28-0.88-8.96 0.48-0.24-0.56-0.72-1.040-1.44-1.36 0 0-20.96-0.96-17.76 17.92 0.32 2 0.72 3.6 1.12 4.96-0.8 0.24-1.6 0.88-2.080 2-1.92 4.32 2.96 9.92 2.96 9.92l2.48 2.48z"></path>
<path fill="#4d4e4e" style="fill: var(--color1, #4d4e4e)" d="M146.48 179.76c0 0.080 0 0.16 0 0.24-0.080 4-1.52 15.28-1.52 15.28s-3.68-7.28-11.2-7.28v0c-7.68 0-11.28 7.28-11.28 7.28s-1.52-11.28-1.52-15.28c0-0.24 0.080-0.48 0.080-0.8-6.48 6.24-25.68 11.040-28.88 13.12-4.080 2.64-9.92 17.6 1.84 17.6h35.2c2-4.16 4.72-7.68 7.6-9.52 2.16-1.44 5.36-2.56 11.84-4.8 3.52-1.2 11.040-3.84 17.36-6.72-6.8-2.32-15.28-5.44-19.52-9.12z"></path>
<path fill="#4d4e4e" style="fill: var(--color1, #4d4e4e)" d="M122.8 173.92c0 0 3.28 11.2 10.48 11.2s10.64-11.2 10.64-11.2-16.56-5.040-21.12 0z"></path>
<path fill="#28aae1" style="fill: var(--color2, #28aae1)" d="M177.76 165.040c2.24 7.28 4.64 13.36 5.84 16.64 0.16 0.48 0.24 0.96 0.32 1.36 1.040-1.040 1.84-1.6 1.84-1.6h25.6c0 0 0.56 0.32 1.28 0.96 0.080-0.24 0.080-0.48 0.16-0.72 1.2-3.36 3.84-9.76 6.080-17.36l2.64-2.72c0 0 6.8-7.68 4.080-13.6-0.72-1.6-1.76-2.4-2.88-2.72 0.080-0.96 0.16-2 0.16-2.96 2.080-2.080 1.36-10.48 0.32-14-2.16-7.28-6.32-9.92-12.8-13.52-5.76-3.2-10-1.2-12.4 0.72-0.4-0.72-0.96-1.36-2-1.84 0 0-28.96-1.28-24.48 24.8 0.48 2.72 0.96 5.040 1.52 6.88-1.12 0.4-2.16 1.2-2.88 2.72-2.72 5.92 4.080 13.6 4.080 13.6l3.52 3.36z"></path>
<path fill="#28aae1" style="fill: var(--color2, #28aae1)" d="M255.36 207.2c-4.32-2.8-29.44-9.12-39.040-17.36 0 0.080 0 0.24 0 0.32-0.080 5.44-2.16 21.12-2.16 21.12s-5.12-10-15.44-10.080v0c-10.56 0-15.6 10.080-15.6 10.080s-2.080-15.6-2.16-21.12c0-0.32 0-0.64 0-0.96-8.96 8.56-35.36 15.2-39.84 18.080-5.68 3.68-13.76 24.32 2.56 24.32 2.4 0 54.56 0 54.56 0s41.2 0 55.12 0c19.76-0.080 7.6-20.72 2-24.4z"></path>
<path fill="#28aae1" style="fill: var(--color2, #28aae1)" d="M183.6 181.68c0 0 4.56 15.52 14.48 15.52s14.72-15.52 14.72-15.52-22.88-6.88-29.2 0z"></path>
</symbol>
<symbol id="icon-ol-icon-5" viewBox="0 0 400 400">
<path fill="#28aae1" style="fill: var(--color2, #28aae1)" d="M237.2 95.2c-6.16-3.68-12.48-4.56-16.56-2.4-6.32 3.36-10.32 2.96-10.32 2.96s-4.080 0.4-10.32-2.96c-4.080-2.16-10.4-1.28-16.56 2.4-13.84 8.32-17.52 38-2.16 55.52s20 10.4 29.040 10.4c9.040 0 13.68 7.040 29.040-10.4 15.36-17.52 11.68-47.2-2.16-55.52zM192.56 110.96c-2.72 5.040-7.52 7.68-10.8 5.92s-3.76-7.28-1.12-12.32c2.72-5.040 7.52-7.68 10.8-5.92 3.36 1.76 3.84 7.28 1.12 12.32z"></path>
<path fill="#28aae1" style="fill: var(--color2, #28aae1)" d="M206.96 91.2c0 0 0.96-8.16-8.8-13.68l2-2.24c0 0 10.24 5.040 12.080 16.56l-5.28-0.64z"></path>
<path fill="#28aae1" style="fill: var(--color2, #28aae1)" d="M214.32 85.6c0 0 4.96-14.080 17.36-20.56 0 0-14.080 16.8-17.36 20.56 16.8 10.32 20.080-22.96 20.080-22.96-26.24 2.32-20.080 22.96-20.080 22.96z"></path>
<path fill="#4d4e4e" style="fill: var(--color1, #4d4e4e)" d="M130.16 195.44h0.24c-1.2 3.6-3.040 5.84-5.040 5.84-3.76 0-6.8-7.76-6.8-17.28s3.040-17.28 6.8-17.28c2 0 3.84 2.24 5.040 5.84h-0.24c-1.84 0-3.36 1.52-3.36 3.36v16.16c0 1.84 1.52 3.36 3.36 3.36z"></path>
<path fill="#4d4e4e" style="fill: var(--color1, #4d4e4e)" d="M130.16 172.56h164c0.64-1.84 1.44-3.28 2.32-4.32v-1.52h-171.12v34.56h171.12v-1.52c-0.88-0.96-1.68-2.48-2.32-4.32h-164c-1.84 0-3.36-1.52-3.36-3.36v-16.16c0-1.84 1.52-3.36 3.36-3.36z"></path>
<path fill="#4d4e4e" style="fill: var(--color1, #4d4e4e)" d="M296.48 199.76c0.4 0.48 0.88 0.88 1.36 1.12-0.48 0.24-0.88 0.4-1.36 0.4-2 0-3.84-2.24-5.040-5.84-1.12-3.040-1.76-7.040-1.76-11.44s0.64-8.4 1.76-11.44c1.2-3.52 3.040-5.84 5.040-5.84 0.48 0 0.96 0.16 1.36 0.4-0.48 0.24-0.96 0.64-1.36 1.12-0.88 0.96-1.68 2.48-2.32 4.32-1.040 3.040-1.68 7.040-1.68 11.44s0.64 8.4 1.68 11.44c0.64 1.84 1.44 3.36 2.32 4.32z"></path>
<path fill="#4d4e4e" style="fill: var(--color1, #4d4e4e)" d="M137.2 176.4h146.16v1.68h-146.16v-1.68z"></path>
<path fill="#4d4e4e" style="fill: var(--color1, #4d4e4e)" d="M131.2 183.2h146.16v1.68h-146.16v-1.68z"></path>
<path fill="#4d4e4e" style="fill: var(--color1, #4d4e4e)" d="M140.32 188.88h146.16v1.68h-146.16v-1.68z"></path>
<path fill="#4d4e4e" style="fill: var(--color1, #4d4e4e)" d="M89.2 227.6h222.8v-20.88h-222.8v20.88zM310.24 223.6h-215.44c-0.88 0-1.6-0.72-1.6-1.6v-9.84c0-0.88 0.72-1.6 1.6-1.6h215.44v13.040z"></path>
<path fill="#4d4e4e" style="fill: var(--color1, #4d4e4e)" d="M92.64 217.12c0 4.64-1.52 10.48-3.44 10.48s-3.44-5.76-3.44-10.48c0-4.64 1.52-10.48 3.44-10.48 1.92 0.080 3.44 5.84 3.44 10.48z"></path>
<path fill="#4d4e4e" style="fill: var(--color1, #4d4e4e)" d="M294.64 256.16h-181.52c-1.2 0-2.24-1.040-2.24-2.24v-14.16c0-1.28 1.040-2.24 2.24-2.24h181.52c0.56-2.72 1.28-4.64 2.24-5.52 0.32-0.32 0.64-0.48 0.96-0.48h-192.96v30.64h192.88c-0.32 0-0.64-0.16-0.96-0.48-0.88-0.88-1.6-2.8-2.16-5.52z"></path>
<path fill="#4d4e4e" style="fill: var(--color1, #4d4e4e)" d="M110.32 246.8c0 8.48-2.4 15.28-5.44 15.28-2.96 0-5.44-6.88-5.44-15.28 0-8.48 2.4-15.28 5.44-15.28s5.44 6.88 5.44 15.28z"></path>
<path fill="#4d4e4e" style="fill: var(--color1, #4d4e4e)" d="M141.36 252.080l-7.040-6.48-7.040 6.48v-12.080h14.080v12.080z"></path>
</symbol>
<symbol id="icon-ol-icon-6" viewBox="0 0 400 400">
<path fill="#28aae1" style="fill: var(--color2, #28aae1)" d="M259.12 206.48l-26.56 27.2 59.36 30.96 16.88-32.32-49.68-25.84zM258.4 214.8l-2.16-1.12 1.92-3.68 2.16 1.12-1.92 3.68zM264.56 218l-2.16-1.12 1.92-3.68 2.16 1.12-1.92 3.68zM269.76 223.040l-2.16-1.12 2.88-5.52 2.16 1.12-2.88 5.52zM276.8 224.4l-2.16-1.12 1.92-3.68 2.16 1.12-1.92 3.68zM282.96 227.6l-2.16-1.12 1.92-3.68 2.16 1.12-1.92 3.68zM289.12 230.8l-2.16-1.12 1.92-3.68 2.24 1.12-2 3.68zM295.28 234l-2.16-1.12 1.92-3.68 2.24 1.12-2 3.68zM297.28 239.76l3.84-7.44 2.16 1.12-3.84 7.44-2.16-1.12zM87.040 157.68l115.44 60.32 26.56-27.2-125.2-65.36-16.8 32.24zM221.36 190.72l2.16 1.12-1.92 3.68-2.24-1.12 2-3.68zM215.2 187.6l2.16 1.12-1.92 3.68-2.16-1.12 1.92-3.68zM209.040 184.32l2.24 1.12-2.88 5.52-2.16-1.12 2.8-5.52zM202.88 181.12l2.16 1.12-1.92 3.68-2.16-1.12 1.92-3.68zM196.8 178l2.16 1.12-1.92 3.68-2.24-1.12 2-3.68zM190.64 174.72l2.16 1.12-1.92 3.68-2.16-1.12 1.92-3.68zM184.48 171.52l2.16 1.12-1.92 3.68-2.16-1.12 1.92-3.68zM178.32 168.4l2.16 1.12-3.84 7.44-2.24-1.12 3.92-7.44zM172.24 165.12l2.24 1.12-1.92 3.68-2.16-1.12 1.84-3.68zM166.080 161.92l2.16 1.12-1.92 3.68-2.16-1.12 1.92-3.68zM159.92 158.72l2.24 1.12-1.92 3.68-2.24-1.12 1.92-3.68zM153.76 155.52l2.16 1.12-1.92 3.68-2.16-1.12 1.92-3.68zM147.68 152.32l2.16 1.12-2.88 5.52-2.16-1.12 2.88-5.52zM141.52 149.12l2.16 1.12-1.92 3.68-2.24-1.12 2-3.68zM135.36 145.92l2.16 1.12-1.92 3.68-2.16-1.12 1.92-3.68zM129.28 142.72l2.16 1.12-1.92 3.68-2.16-1.12 1.92-3.68zM123.12 139.52l2.24 1.12-1.92 3.68-2.16-1.12 1.84-3.68zM116.96 136.32l2.16 1.12-3.84 7.44-2.16-1.12 3.84-7.44zM107.36 146.4c-0.32 2-2.24 3.44-4.24 3.12s-3.44-2.24-3.12-4.24c0.32-2.080 2.24-3.44 4.24-3.12 2.080 0.24 3.44 2.16 3.12 4.24z"></path>
<path fill="#4d4e4e" style="fill: var(--color1, #4d4e4e)" d="M187.44 243.76c2 0 3.36 0.4 3.84 1.12 0 0.24-0.16 0.8-0.24 1.12-0.4 1.76-0.96 4.4 0.64 6.32 1.2 1.44 3.2 2.16 6.16 2.16h0.4c0 0 0.16 0 0.4 0 0.16 0 0.48 0 0.8 0.080 0.96 0.16 1.2 0.64 1.28 0.8 0.24 0.4 0.48 1.36-0.24 3.44l-21.12 6.48c-0.16 0.080-0.32 0.080-0.4 0.080 0-0.080 0-0.24 0.080-0.4l5.92-21.12c0.64 0.080 1.52-0.080 2.48-0.080zM187.44 242.24c-2 0-3.76 0.4-3.76 0.4l-5.36 19.12-0.8 2.88c-0.4 1.36 0.24 2.32 1.36 2.32 0.24 0 0.56-0.080 0.88-0.16l2.88-0.88 18.96-5.84c2.080-5.2-0.16-6.64-1.84-6.96-0.4-0.080-0.8-0.080-1.12-0.080s-0.56 0-0.56 0c-0.080 0-0.16 0-0.24 0-9.040 0-4.4-7.2-5.12-8.72-0.8-1.6-3.12-2.080-5.28-2.080z"></path>
<path fill="#4d4e4e" style="fill: var(--color1, #4d4e4e)" d="M279.28 180.88l-18.4-17.84 6.56-6.72 18.32 17.92-6.48 6.64z"></path>
<path fill="#4d4e4e" style="fill: var(--color1, #4d4e4e)" d="M280.080 183.84l-7.44 7.6-22.24-21.44 7.52-7.76 22.16 21.6z"></path>
<path fill="#4d4e4e" style="fill: var(--color1, #4d4e4e)" d="M285.76 174.24c-0.4 0.48-4.88-3.2-10-8.16-5.040-4.96-8.8-9.28-8.4-9.76s6.88 1.36 12 6.32c5.12 4.96 6.88 11.12 6.4 11.6z"></path>
<path fill="#4d4e4e" style="fill: var(--color1, #4d4e4e)" d="M255.76 177.28l-62.48 64.48c-2.64-1.76-8-0.64-8-0.64l66.24-68 4.24 4.16z"></path>
<path fill="#4d4e4e" style="fill: var(--color1, #4d4e4e)" d="M263.2 184.56l-64.96 66.96c-6-0.48-4.48-4.88-4-7.28l63.28-65.2 5.68 5.52z"></path>
<path fill="#4d4e4e" style="fill: var(--color1, #4d4e4e)" d="M264.96 186.24l4.4 4.32-66.24 68.080c2-4.96 0.080-6.48-1.68-6.88l63.52-65.52z"></path>
<path fill="#4d4e4e" style="fill: var(--color1, #4d4e4e)" d="M179.68 259.12l-1.36 6.32 0.4 0.88 7.12-2-5.92-5.76-0.24 0.56z"></path>
</symbol>
<symbol id="icon-ol-icon-7" viewBox="0 0 400 400">
<path fill="#4d4e4e" style="fill: var(--color1, #4d4e4e)" d="M124 134.72h-17.2c-2.8 0-5.040 2.24-5.040 5.040v10.64c0 2.8 2.24 5.040 5.040 5.040h12.24c2.8 0 5.040 2.24 5.040 5.040v78.96c0 2.8 2.24 5.040 5.040 5.040h10.64c2.8 0 5.040-2.24 5.040-5.040v-99.68c0-2.8-2.24-5.040-5.040-5.040h-15.76z"></path>
<path fill="#28aae1" style="fill: var(--color2, #28aae1)" d="M226.080 160.24c2.8 0 5.040-2.24 5.040-5.040v-15.6h-0.24v-40.56c0-2.8-2.24-5.040-5.040-5.040h-47.44c-2.8 0-5.040 2.24-5.040 5.040v10.64c0 2.8 2.24 5.040 5.040 5.040h26.88c2.8 0 5.040 2.24 5.040 5.040v14.88c0 2.8-2.24 5.040-5.040 5.040h-26.88c-2.8 0-5.040 2.24-5.040 5.040v54.080c0 2.8 2.24 5.040 5.040 5.040h46.72c2.8 0 5.040-2.24 5.040-5.040v-10.8c0-2.8-2.24-5.040-5.040-5.040h-26.080c-2.8 0-5.040-2.24-5.040-5.040v-12.8c0-2.8 2.24-5.040 5.040-5.040h27.040z"></path>
<path fill="#4d4e4e" style="fill: var(--color1, #4d4e4e)" d="M278.56 168.96h-31.92c-2.8 0-5.040 2.24-5.040 5.040v10.64c0 2.8 2.24 5.040 5.040 5.040h26.88c2.8 0 5.040 2.24 5.040 5.040v14.88c0 2.8-2.24 5.040-5.040 5.040h-26.88c-2.8 0-5.040 2.24-5.040 5.040v10.64c0 2.8 2.24 5.040 5.040 5.040h26.88c2.8 0 5.040 2.24 5.040 5.040v12.8c0 2.8-2.24 5.040-5.040 5.040h-26.88c-2.8 0-5.040 2.24-5.040 5.040v10.32c0 2.8 2.24 5.040 5.040 5.040h47.44c2.8 0 5.040-2.24 5.040-4.96l0.080-48.72v-50.88c0-2.8-2.24-5.040-5.040-5.040h-15.6z"></path>
</symbol>
</defs>
</svg>
