<svg aria-hidden="true" style="position: absolute; width: 0; height: 0; overflow: hidden;" version="1.1" xmlns="http://www.w3.org/2000/svg" xmlns:xlink="http://www.w3.org/1999/xlink">
<defs>
<symbol id="icon-bl-icon-1" viewBox="0 0 64 64">
<path fill="#4d4e4e" style="fill: var(--color1, #4d4e4e)" d="M50.176 50.266l-0.026-0.102c-0.026-0.102-0.064-0.269-0.090-0.461l-0.038-0.205c0-0.026 0-0.051 0-0.077l-0.077-0.461c-0.038-0.23-0.064-0.422-0.090-0.55-0.038-0.23-0.154-1.242-0.243-2.125l-0.038-0.384c-0.038-0.41-0.090-0.794-0.115-1.088-0.038-0.32-0.051-0.602-0.064-0.858-0.026-0.538-0.051-1.011-0.307-1.485-0.205-0.384-0.205-0.384-0.23-0.614-0.013-0.128-0.038-0.32-0.090-0.614-0.179-1.024-0.755-2.266-0.998-2.739-0.064-0.115-0.154-0.243-0.294-0.346-0.026-0.026-0.051-0.051-0.090-0.064l-0.026-0.026c-0.026-0.026-0.064-0.051-0.090-0.064-0.026-0.026-0.064-0.051-0.115-0.077-0.038-0.026-0.077-0.051-0.115-0.064-0.064-0.038-0.128-0.077-0.205-0.102l-0.038-0.026c-0.077-0.038-0.141-0.077-0.218-0.115l-0.051-0.026c-0.064-0.026-0.128-0.064-0.192-0.090l-0.102-0.038c-0.115-0.051-0.23-0.090-0.333-0.128l-0.307-0.115c-0.55-0.205-1.6-0.768-1.869-0.947-0.026-0.013-0.064-0.038-0.115-0.064l-0.051-0.026c-0.038-0.013-0.077-0.038-0.128-0.051l-0.538-0.218c-0.026-0.013-0.051-0.026-0.064-0.026l-0.218-0.090c-0.026-0.013-0.051-0.026-0.090-0.038l-0.589-0.218c-0.026-0.013-0.051-0.026-0.090-0.026l-0.627-0.243-0.064-0.026-0.896-0.371c-0.077-0.038-0.154-0.077-0.205-0.102-0.013-0.013-0.038-0.026-0.051-0.038l-0.064-0.038c-0.013-0.013-0.038-0.026-0.077-0.038-0.064-0.026-0.128-0.064-0.192-0.090-0.026-0.013-0.064-0.026-0.077-0.038-0.077-0.026-0.141-0.064-0.23-0.102l-0.090-0.038c-0.013 0-0.026-0.013-0.038-0.013l-0.166-0.064-0.064-0.026c-0.307-0.115-0.602-0.205-0.806-0.269l-0.192-0.026c-0.013 0-0.038 0-0.051 0h-0.051c-0.026 0-0.064 0.013-0.077 0.013-0.026 0-0.051 0.013-0.038 0.013l-0.051 0.026c-0.026 0.013-0.051 0.026-0.038 0.026l-0.077 0.051c-0.013 0.013-0.013 0.013-0.026 0.026-0.128-0.090-0.243-0.179-0.358-0.256-0.013-0.013-0.026-0.013-0.038-0.026-0.026-0.026-0.051-0.038-0.077-0.064s-0.051-0.051-0.077-0.064c-0.512-0.448-0.87-0.922-0.986-1.408 0-0.013-0.013-0.026-0.013-0.038 0.154-0.282 0.282-0.55 0.358-0.73l0.026-0.064c0.41-1.075 0.832-2.24 1.229-3.558l0.755-0.768c0.077-0.090 1.907-2.189 1.126-3.904-0.179-0.397-0.448-0.666-0.781-0.819 0.026-0.32 0.038-0.653 0.038-0.96 0-0.858-0.102-1.613-0.269-2.317-0.307 0.218-0.896 0.422-1.69 0.589 0.512 0.614 0.858 1.408 1.178 1.664 0.077 0.064 0.141 0.218 0.166 0.41-0.013 0.256-0.026 0.512-0.038 0.781v0c0 0.026 0 0.051-0.013 0.077-0.128 1.459-0.474 3.136-1.024 4.992-0.397 1.331-0.832 2.509-1.242 3.597l-0.013 0.038c-0.013 0.013-0.013 0.038-0.026 0.064-0.077 0.179-0.218 0.486-0.397 0.768-0.090 0.154-0.192 0.294-0.294 0.41-0.218 0.23-0.512 0.486-0.806 0.742-0.307 0.269-0.602 0.525-0.794 0.742-0.256 0.307-0.858 0.614-1.523 0.614-0.038 0-0.064 0-0.115 0-0.038 0-0.090 0-0.128-0.013-0.602-0.064-1.075-0.346-1.28-0.602-0.179-0.218-0.474-0.474-0.794-0.742-0.294-0.243-0.589-0.512-0.806-0.742-0.115-0.115-0.205-0.269-0.307-0.41-0.218-0.358-0.384-0.73-0.422-0.832l-0.013-0.038c0-0.013-0.013-0.026-0.013-0.038-0.397-1.075-0.832-2.266-1.242-3.61-0.23-0.755-0.41-1.472-0.563-2.176 0.038-0.55 0-1.28 0-1.28-0.090-2.381 0.525-2.342 0.486-3.52s0.422-1.062 2.291 0.013c1.037 0.589 2.381 0.090 3.622-0.512-0.243 0-0.474 0.013-0.73 0.013-3.2 0-5.875-0.435-6.579-1.024-0.090 0.397-0.128 0.806-0.154 1.19-0.064 0.653-0.077 1.37-0.026 2.138-0.32 0.154-0.576 0.422-0.755 0.806-0.781 1.715 1.050 3.814 1.139 3.917l0.691 0.691c0.41 1.344 0.832 2.534 1.242 3.61l0.026 0.077c0.051 0.128 0.179 0.41 0.358 0.717 0 0.013 0 0.038-0.013 0.051-0.115 0.474-0.448 0.922-0.934 1.357-0.013 0.013-0.038 0.026-0.051 0.051-0.026 0.026-0.051 0.051-0.077 0.077s-0.051 0.038-0.077 0.064c-0.166 0.128-0.346 0.256-0.538 0.384-0.064-0.090-0.141-0.166-0.218-0.205l-0.064-0.026c-0.038-0.013-0.077-0.026-0.115-0.026-0.026 0-0.038 0-0.077 0h-0.064c-0.026 0-0.051 0-0.064 0.013l-0.154 0.038-0.243 0.077c-0.064 0.026-0.141 0.051-0.218 0.077l-0.192 0.077c-0.013 0-0.038 0.013-0.051 0.026h-0.013c-0.026 0.013-0.051 0.013-0.064 0.026l-0.218 0.077c-0.090 0.038-0.179 0.077-0.269 0.115l-0.243 0.115c-0.038 0.013-0.064 0.038-0.102 0.051l-0.128 0.077-0.038 0.026-0.051 0.026-0.038 0.026-0.064 0.026-0.192 0.090c-0.026 0.013-0.064 0.026-0.077 0.038l-0.166 0.064c-0.128 0.051-0.269 0.115-0.422 0.166l-0.179 0.077c-0.013 0-0.038 0.013-0.077 0.026l-0.448 0.179h-0.013l-0.179 0.064-0.128 0.051c-0.038 0.013-0.077 0.026-0.102 0.038s-0.051 0.013-0.077 0.026l-0.448 0.166-0.102 0.026c-0.512 0.192-0.986 0.435-1.459 0.704-0.41 0.218-0.858 0.41-1.293 0.589-0.486 0.205-0.973 0.41-1.446 0.666-0.038 0.026-0.090 0.051-0.128 0.077l-0.038 0.026c-0.051 0.038-0.102 0.064-0.154 0.102-0.026 0.013-0.051 0.038-0.051 0.038l-0.077 0.064c-0.141 0.115-0.23 0.23-0.294 0.346-0.218 0.448-0.768 1.587-0.973 2.586l-0.026 0.154c-0.051 0.294-0.077 0.486-0.090 0.614-0.026 0.243-0.026 0.243-0.23 0.627-0.256 0.474-0.282 0.947-0.307 1.485-0.013 0.256-0.026 0.538-0.064 0.858-0.051 0.397-0.102 0.96-0.166 1.523-0.090 0.858-0.192 1.83-0.23 2.061-0.026 0.141-0.064 0.371-0.102 0.627l-0.102 0.653c-0.013 0.064-0.026 0.128-0.038 0.192l-0.026 0.115c-0.013 0.064-0.026 0.128-0.038 0.166-0.051 0.179-0.115 0.41-0.077 0.653 0.051 0.307 0.269 0.563 0.64 0.73 0.026 0.013 0.051 0.026 0.064 0.026v3.584h5.773v-1.779c0.051 0 0.090 0.013 0.115 0.013l0.166 0.013c0 0 0.013 0 0.013 0l0.026 0.192 0.013 0.064 0.038 0.256c0 0.013 0 0.038 0.013 0.090l0.026 0.141 0.013 0.077 0.026 0.128 0.038 0.179 0.013 0.051c0.013 0.051 0.026 0.090 0.038 0.141l0.102 0.32h22.477l0.102-0.333c0.013-0.051 0.026-0.115 0.038-0.154l0.051-0.23c0.013-0.064 0.026-0.128 0.038-0.179l0.064-0.346c0.013-0.090 0.026-0.179 0.038-0.256l0.013-0.128c0 0 0 0 0-0.013 0 0 0.013 0 0.013 0h0.141l0.102-0.013c0.038 0 0.090-0.013 0.141-0.013v1.766h5.773v-3.597c0.141-0.064 0.256-0.141 0.358-0.23 0.038-0.038 0.077-0.077 0.102-0.115 0.013-0.026 0.026-0.038 0.051-0.064 0.013-0.026 0.038-0.051 0.051-0.090 0.013-0.013 0.013-0.038 0.026-0.064 0.013-0.038 0.026-0.077 0.038-0.141l0.013-0.064c-0.038-0.192-0.077-0.371-0.115-0.525zM38.029 26.573c0.038-0.128 0.064-0.256 0.090-0.384 0.077-0.294 0.141-0.576 0.192-0.845 0.026-0.128 0.051-0.243 0.077-0.371 0.077-0.358 0.141-0.717 0.192-1.062 0.013-0.090 0.026-0.179 0.038-0.269 0.026-0.179 0.051-0.358 0.064-0.538 0.115 0.102 0.205 0.23 0.282 0.397 0.55 1.203-0.691 2.842-0.973 3.174 0.013-0.026 0.026-0.064 0.038-0.102zM25.024 23.501c0.064-0.154 0.154-0.269 0.243-0.371 0.026 0.192 0.051 0.384 0.077 0.589 0.013 0.051 0.013 0.102 0.026 0.154 0.051 0.358 0.115 0.742 0.192 1.126 0.013 0.077 0.026 0.154 0.051 0.218 0.077 0.346 0.154 0.704 0.243 1.062 0.013 0.051 0.026 0.115 0.038 0.166s0.026 0.102 0.038 0.154c-0.346-0.448-1.421-1.958-0.909-3.098zM19.392 54.554h-4.544v-2.714c0.026 0.013 0.064 0.026 0.090 0.038l1.856 0.704c0.333 0.128 0.627 0.23 0.832 0.32l0.333 0.115c0.013 0 0.026 0.013 0.077 0.026l0.435 0.102 0.128 0.026 0.051 0.013 0.128 0.026c0.115 0.026 0.23 0.038 0.371 0.064l0.243 0.038v1.242zM20.608 53.376v0 0 0zM20.659 53.85v0zM37.286 34.842l-0.026 0.064c-0.026 0.064-0.064 0.141-0.102 0.23l-0.090 0.154c-0.013 0.026-0.038 0.051-0.064 0.115-0.051 0.077-0.102 0.166-0.166 0.256-0.038 0.051-0.090 0.115-0.128 0.166-0.051 0.064-0.115 0.141-0.179 0.205-0.038 0.038-0.077 0.077-0.115 0.115-0.026 0.026-0.051 0.051-0.090 0.077-0.115 0.102-0.243 0.205-0.358 0.282-0.038 0.026-0.064 0.051-0.102 0.064l-0.102 0.064c-0.026 0.013-0.051 0.026-0.077 0.051-0.038 0.026-0.077 0.038-0.115 0.064l-0.038 0.026c-0.051 0.026-0.102 0.051-0.166 0.077-0.051 0.026-0.115 0.051-0.166 0.077-0.038 0.013-0.077 0.038-0.128 0.051l-0.051 0.026c-0.077 0.038-0.166 0.064-0.256 0.090-0.064 0.026-0.128 0.038-0.205 0.064l-0.282 0.077c-0.154 0.038-0.307 0.077-0.486 0.102l-0.218 0.038c-0.166 0.026-0.346 0.038-0.525 0.064l-0.166 0.013c-0.090 0-0.192 0.013-0.32 0.013-0.218 0.013-0.435 0.013-0.704 0-0.23 0-0.448 0.013-0.704 0-0.474-0.013-0.922-0.064-1.344-0.154-0.090-0.013-0.179-0.038-0.307-0.064-0.077-0.013-0.141-0.038-0.218-0.051-0.102-0.026-0.205-0.064-0.307-0.090-1.613-0.55-2.266-1.587-2.534-2.266 0.243-0.166 0.474-0.32 0.678-0.486 0.038-0.026 0.077-0.064 0.128-0.102l0.102-0.090 0.026-0.026c0.448-0.397 0.781-0.819 0.973-1.229 0.013 0.013 0.026 0.038 0.038 0.051 0.243 0.269 0.55 0.538 0.858 0.794 0.294 0.243 0.563 0.486 0.717 0.666 0.358 0.422 1.011 0.742 1.702 0.819 0.051 0 0.115 0.013 0.166 0.013 0.038 0 0.090 0 0.141 0 0.781 0 1.587-0.333 1.997-0.832 0.154-0.179 0.422-0.41 0.717-0.666 0.307-0.269 0.614-0.538 0.858-0.794 0.013-0.013 0.038-0.038 0.051-0.051 0.205 0.435 0.538 0.87 1.037 1.293l0.026 0.026c0.026 0.013 0.051 0.038 0.064 0.051l0.090 0.077c0.013 0.013 0.026 0.026 0.038 0.026 0.154 0.115 0.307 0.23 0.486 0.358-0.026 0.026-0.038 0.064-0.051 0.102zM38.938 34.611v0 0 0zM40.435 35.29c0 0 0 0 0 0v0 0zM42.995 54.298v0zM48.986 54.528h-4.544v-1.242l0.563-0.090 0.205-0.051c0.064-0.013 0.115-0.026 0.179-0.038l0.077-0.013 1.69-0.589 1.165-0.435 0.64-0.256v2.714z"></path>
<path fill="#28aae1" style="fill: var(--color2, #28aae1)" d="M31.974 17.088l-6.758-2.202v2.931c0 0.73 3.021 1.331 6.758 1.331s6.758-0.589 6.758-1.331v-2.931l-6.758 2.202z"></path>
<path fill="#28aae1" style="fill: var(--color2, #28aae1)" d="M32.026 11.853l-0.102-0.55v-0.013c0.013 0 0.038 0 0.051 0 0.218 0 0.422 0.038 0.576 0.115 0.115 0.051 0.179 0.128 0.179 0.179s-0.064 0.128-0.179 0.179c-0.141 0.064-0.333 0.102-0.525 0.102v-0.013z"></path>
<path fill="#28aae1" style="fill: var(--color2, #28aae1)" d="M44.723 11.942l-12.749 4.147-7.718-2.509 7.718-1.421c0.269 0 0.512-0.051 0.704-0.141 0.218-0.115 0.346-0.269 0.346-0.435 0-0.179-0.128-0.333-0.346-0.435-0.371-0.179-0.986-0.179-1.37-0.013l-8.486 1.574-0.128 0.166c-0.038 0.038-0.064 0.077-0.102 0.179l-3.366-1.101 12.749-4.89 12.749 4.877z"></path>
<path fill="#28aae1" style="fill: var(--color2, #28aae1)" d="M31.245 11.994l-7.885 1.472c-0.038 0.205-0.090 0.742-0.090 2.022h-0.563c0-2.189 0.154-2.381 0.205-2.445l0.064-0.077 7.962-1.485c-0.013 0.026-0.013 0.064-0.013 0.102 0.013 0.154 0.115 0.307 0.32 0.41z"></path>
<path fill="#28aae1" style="fill: var(--color2, #28aae1)" d="M32.038 11.853v0l-0.077 0.013c-0.205 0-0.41-0.038-0.55-0.115-0.115-0.051-0.192-0.128-0.192-0.179s0.077-0.128 0.179-0.179c0 0 0 0 0 0l0.525-0.102 0.115 0.563z"></path>
<path fill="#28aae1" style="fill: var(--color2, #28aae1)" d="M32.742 11.571c0 0.051-0.064 0.128-0.179 0.179-0.141 0.064-0.333 0.102-0.525 0.102-0.026 0-0.051 0-0.077 0-0.205 0-0.41-0.038-0.55-0.115-0.115-0.051-0.192-0.128-0.192-0.179s0.077-0.128 0.179-0.179c0 0 0 0 0 0 0.141-0.064 0.32-0.102 0.525-0.115 0.013 0 0.038 0 0.051 0 0.218 0 0.422 0.038 0.576 0.115 0.128 0.064 0.192 0.141 0.192 0.192z"></path>
<path fill="#28aae1" style="fill: var(--color2, #28aae1)" d="M22.707 15.322l-0.896 6.707c0 0 0.256 0.32 1.011 0.32s1.126-0.346 1.126-0.346l-0.678-6.682h-0.563z"></path>
<path fill="#28aae1" style="fill: var(--color2, #28aae1)" d="M23.68 15.411c0 0.371-0.307 0.678-0.678 0.678s-0.678-0.307-0.678-0.678c0-0.371 0.307-0.678 0.678-0.678s0.678 0.307 0.678 0.678z"></path>
</symbol>
<symbol id="icon-bl-icon-2" viewBox="0 0 64 64">
<path fill="#4d4e4e" style="fill: var(--color1, #4d4e4e)" d="M14.746 38.912h34.010v-19.942h-34.010v19.942zM15.77 20.006h31.962v17.882h-31.962v-17.882z"></path>
<path fill="#4d4e4e" style="fill: var(--color1, #4d4e4e)" d="M13.338 37.875h36.826v1.549h-36.826v-1.549z"></path>
<path fill="#28aae1" style="fill: var(--color2, #28aae1)" d="M16.358 37.286h30.784v-16.704h-30.784v16.704zM26.253 31.885c-0.013 0.166-0.051 0.371-0.179 0.55-0.128 0.192-0.307 0.307-0.486 0.41-0.397 0.243-0.832 0.474-1.318 0.525-0.077 0.013-0.141 0.013-0.218 0.013-0.397 0-0.781-0.128-1.037-0.371-0.077-0.077-0.128-0.179-0.115-0.294s0.064-0.218 0.166-0.282l0.179-0.115c0.102-0.064 0.243-0.038 0.307 0.064s0.038 0.243-0.064 0.307l-0.090 0.064c0.218 0.154 0.525 0.218 0.832 0.179 0.41-0.051 0.794-0.256 1.139-0.474 0.141-0.090 0.269-0.166 0.346-0.282 0.064-0.102 0.090-0.243 0.102-0.358 0.051-0.474-0.013-0.947-0.205-1.395-0.090-0.205-0.179-0.32-0.282-0.358-0.090-0.038-0.205-0.026-0.307-0.013-0.282 0.038-0.563 0.128-0.806 0.269-0.102 0.064-0.23 0.051-0.32-0.026s-0.115-0.205-0.077-0.307c0.154-0.41 0.243-0.845 0.256-1.28 0-0.282-0.038-0.41-0.179-0.486-0.115-0.064-0.256-0.051-0.384 0.026-0.23 0.141-0.358 0.422-0.384 0.845 0 0.115-0.115 0.218-0.23 0.205-0.128 0-0.218-0.115-0.205-0.23 0.026-0.563 0.23-0.986 0.589-1.203 0.256-0.154 0.563-0.166 0.819-0.038 0.422 0.23 0.41 0.691 0.41 0.883 0 0.358-0.064 0.717-0.154 1.050 0.192-0.077 0.397-0.128 0.602-0.154 0.154-0.026 0.346-0.026 0.525 0.051 0.294 0.115 0.435 0.397 0.525 0.602 0.23 0.525 0.307 1.088 0.243 1.626zM29.722 29.811c-0.307 0.154-0.614 0.269-0.922 0.384 0.051 0.371 0.090 0.755 0.102 1.126 0 0.115-0.090 0.23-0.205 0.23 0 0-0.013 0-0.013 0-0.115 0-0.218-0.090-0.218-0.205-0.013-0.333-0.051-0.666-0.090-0.986l-0.576 0.218c-0.026 0.013-0.051 0.013-0.077 0.013-0.090 0-0.179-0.051-0.205-0.141-0.038-0.115 0.013-0.243 0.128-0.282l0.666-0.256c-0.064-0.397-0.141-0.781-0.243-1.165-0.026-0.115 0.038-0.243 0.154-0.269s0.243 0.038 0.269 0.154c0.102 0.371 0.179 0.742 0.243 1.126 0.269-0.102 0.538-0.205 0.794-0.333 0.102-0.051 0.243-0.013 0.294 0.102 0.038 0.090 0 0.218-0.102 0.282zM34.33 32.013c-0.038 0.064-0.115 0.102-0.179 0.102-0.038 0-0.090-0.013-0.128-0.038-0.166-0.115-0.269-0.23-0.358-0.333-0.077-0.102-0.154-0.179-0.269-0.256-0.243-0.154-0.627-0.090-1.165 0.205-0.115 0.064-0.243 0.026-0.32-0.077s-0.064-0.243 0.026-0.333c0.256-0.256 0.422-0.602 0.576-0.934 0.256-0.589 0.461-1.203 0.602-1.818 0.128-0.55 0.218-1.126 0.013-1.6-0.051-0.115-0.128-0.256-0.269-0.32-0.179-0.077-0.41 0.013-0.55 0.128-0.166 0.128-0.307 0.346-0.333 0.55-0.013 0.128 0.013 0.243 0.077 0.333 0.077 0.090 0.064 0.23-0.038 0.307-0.090 0.077-0.23 0.064-0.307-0.038-0.141-0.179-0.205-0.41-0.179-0.666 0.038-0.32 0.23-0.64 0.499-0.845 0.32-0.243 0.691-0.307 0.986-0.166 0.205 0.090 0.371 0.282 0.486 0.55 0.243 0.589 0.154 1.242 0 1.869-0.154 0.653-0.358 1.293-0.627 1.907-0.077 0.166-0.154 0.333-0.243 0.486 0.32-0.090 0.653-0.102 0.96 0.090 0.179 0.115 0.282 0.23 0.371 0.346 0.077 0.090 0.141 0.179 0.256 0.256 0.154 0.051 0.192 0.192 0.115 0.294zM35.238 28.275c-0.051-0.102-0.013-0.243 0.090-0.294 0.563-0.307 1.165-0.563 1.779-0.768 0.115-0.038 0.243 0.026 0.282 0.141s-0.026 0.243-0.141 0.282c-0.589 0.192-1.165 0.448-1.702 0.73-0.038 0.013-0.064 0.026-0.102 0.026-0.090 0-0.166-0.038-0.205-0.115zM37.299 29.376c-0.141 0.013-0.294 0.090-0.435 0.154l-1.075 0.512c-0.026 0.013-0.064 0.026-0.090 0.026-0.077 0-0.166-0.051-0.205-0.128-0.051-0.115 0-0.243 0.102-0.294l1.075-0.512c0.166-0.077 0.358-0.166 0.576-0.192 0.115-0.013 0.23 0.077 0.243 0.192s-0.077 0.23-0.192 0.243zM41.894 35.699l-0.115 0.154c-0.128 0.166-0.371 0.205-0.538 0.077l-2.624-1.946c-0.166-0.128-0.205-0.371-0.077-0.538l0.115-0.154c0.128-0.166 0.371-0.205 0.538-0.077l2.624 1.946c0.166 0.115 0.205 0.358 0.077 0.538z"></path>
</symbol>
<symbol id="icon-bl-icon-3" viewBox="0 0 64 64">
<path fill="#4d4e4e" style="fill: var(--color1, #4d4e4e)" d="M41.37 23.053v-7.488h-24.602v14.426h24.614v-3.546c-0.090-0.038-0.179-0.090-0.256-0.154l-0.486-0.358v3.315h-23.13v-12.941h23.117v6.195l0.742 0.55z"></path>
<path fill="#4d4e4e" style="fill: var(--color1, #4d4e4e)" d="M15.744 29.248h26.65v1.114h-26.65v-1.114z"></path>
<path fill="#4d4e4e" style="fill: var(--color1, #4d4e4e)" d="M39.053 21.67c0.294 0 0.576 0.090 0.819 0.269l0.333 0.243v-5.453h-22.272v12.083h22.272v-3.213l-1.971-1.459c-0.614-0.448-0.742-1.318-0.294-1.92 0.269-0.346 0.678-0.55 1.114-0.55zM22.925 22.643c-0.013 0.102-0.038 0.243-0.115 0.371-0.090 0.128-0.205 0.205-0.32 0.269-0.243 0.141-0.499 0.282-0.806 0.32-0.051 0-0.090 0.013-0.141 0.013-0.256 0-0.499-0.090-0.678-0.243-0.077-0.064-0.115-0.166-0.102-0.269s0.064-0.192 0.154-0.243l0.102-0.064c0.115-0.077 0.269-0.038 0.346 0.064 0.051 0.077 0.051 0.166 0.013 0.243 0.077 0.026 0.166 0.026 0.256 0.026 0.205-0.026 0.41-0.141 0.602-0.256 0.064-0.038 0.128-0.077 0.154-0.128 0.026-0.038 0.038-0.102 0.038-0.154 0.026-0.243-0.013-0.499-0.102-0.73-0.051-0.115-0.090-0.141-0.102-0.141s-0.038-0.013-0.115 0c-0.141 0.026-0.294 0.064-0.41 0.141-0.102 0.064-0.23 0.051-0.32-0.026s-0.115-0.205-0.077-0.307c0.090-0.218 0.128-0.448 0.141-0.691 0-0.154-0.026-0.166-0.038-0.166-0.026-0.013-0.064-0.013-0.102 0.013-0.115 0.077-0.154 0.243-0.154 0.384-0.013 0.141-0.115 0.243-0.256 0.23s-0.243-0.128-0.23-0.256c0.026-0.461 0.23-0.678 0.397-0.781 0.179-0.115 0.41-0.115 0.589-0.026 0.307 0.166 0.307 0.499 0.294 0.614 0 0.141-0.013 0.282-0.038 0.422 0.051-0.013 0.115-0.026 0.166-0.026 0.090-0.013 0.23-0.026 0.358 0.038 0.23 0.090 0.333 0.333 0.358 0.41 0.128 0.269 0.179 0.614 0.141 0.947zM24.845 21.542c-0.154 0.077-0.294 0.141-0.448 0.192 0.026 0.192 0.038 0.371 0.051 0.563 0.013 0.141-0.102 0.256-0.23 0.256 0 0-0.013 0-0.013 0-0.128 0-0.243-0.102-0.243-0.23 0-0.141-0.013-0.269-0.026-0.41l-0.192 0.077c-0.026 0.013-0.064 0.013-0.090 0.013-0.102 0-0.192-0.064-0.23-0.154-0.051-0.128 0.013-0.269 0.141-0.32l0.294-0.102c-0.038-0.192-0.077-0.371-0.115-0.563-0.038-0.128 0.038-0.269 0.179-0.294 0.128-0.038 0.269 0.038 0.294 0.179 0.038 0.166 0.077 0.333 0.115 0.512 0.102-0.038 0.205-0.090 0.307-0.141 0.115-0.064 0.269-0.013 0.333 0.102 0.038 0.115-0.013 0.256-0.128 0.32zM27.52 22.758c-0.051 0.077-0.128 0.115-0.205 0.115-0.051 0-0.090-0.013-0.141-0.038-0.115-0.077-0.179-0.154-0.23-0.218-0.038-0.051-0.077-0.090-0.128-0.115-0.102-0.064-0.282-0.026-0.55 0.115l-0.192 0.102-0.154-0.179c-0.077-0.102-0.064-0.256 0.026-0.346 0.128-0.128 0.218-0.32 0.307-0.499 0.141-0.333 0.256-0.666 0.346-1.024 0.064-0.294 0.115-0.602 0.013-0.845-0.026-0.064-0.064-0.102-0.090-0.115-0.038-0.013-0.128 0-0.192 0.064-0.077 0.051-0.128 0.154-0.141 0.23 0 0.038 0 0.077 0.026 0.102 0.090 0.102 0.064 0.256-0.038 0.346s-0.256 0.064-0.346-0.038c-0.102-0.128-0.141-0.294-0.128-0.474 0.026-0.218 0.154-0.422 0.333-0.563 0.218-0.166 0.474-0.205 0.691-0.115 0.141 0.064 0.269 0.192 0.346 0.371 0.154 0.371 0.102 0.768 0.013 1.139-0.090 0.384-0.218 0.755-0.371 1.114-0.013 0.026-0.026 0.051-0.038 0.077 0.141-0.013 0.269 0.026 0.397 0.102 0.115 0.077 0.179 0.154 0.243 0.218 0.038 0.051 0.077 0.090 0.128 0.115 0.128 0.090 0.154 0.243 0.077 0.358zM27.84 20.608c-0.064-0.115-0.013-0.269 0.102-0.333 0.333-0.179 0.678-0.333 1.037-0.448 0.128-0.038 0.269 0.026 0.307 0.154s-0.026 0.269-0.154 0.307c-0.333 0.115-0.653 0.243-0.96 0.41-0.038 0.026-0.077 0.026-0.115 0.026-0.090 0.013-0.179-0.026-0.218-0.115zM29.133 21.299c-0.064 0.013-0.141 0.038-0.218 0.077l-0.614 0.294c-0.038 0.013-0.064 0.026-0.102 0.026-0.090 0-0.179-0.051-0.218-0.141-0.064-0.128-0.013-0.269 0.115-0.333l0.614-0.294c0.102-0.051 0.218-0.102 0.371-0.128 0.141-0.013 0.256 0.077 0.269 0.218 0.013 0.154-0.077 0.269-0.218 0.282z"></path>
<path fill="#28aae1" style="fill: var(--color2, #28aae1)" d="M44.454 18.522c0 0.986 0.794 1.779 1.779 1.779s1.779-0.794 1.779-1.779c0-0.986-0.794-1.779-1.779-1.779s-1.779 0.806-1.779 1.779z"></path>
<path fill="#28aae1" style="fill: var(--color2, #28aae1)" d="M48.115 21.005h-3.584c-1.421 0-1.626 0.576-2.125 1.562l-0.73 1.574-2.227-1.638c-0.307-0.23-0.73-0.166-0.96 0.141s-0.166 0.73 0.141 0.96l2.88 2.125c0.128 0.090 0.269 0.141 0.41 0.141 0.205 0 0.422-0.090 0.55-0.282 0.038-0.051 0.064-0.102 0.090-0.154l0.678-1.421c0.064-0.154 0.166-0.243 0.307-0.243s0.179 0.128 0.179 0.294v13.274c0 1.549 1.946 1.549 1.946 0v-6.31c0-0.23 0.128-0.422 0.282-0.422s0.282 0.192 0.282 0.422v6.31c0 1.549 1.946 1.549 1.946 0v-13.286c0-0.166 0.115-0.294 0.256-0.294s0.256 0.128 0.256 0.294v5.312c0 0.858 1.229 0.781 1.229 0v-6.592c0-0.973-0.819-1.766-1.805-1.766z"></path>
<path fill="#28aae1" style="fill: var(--color2, #28aae1)" d="M22.387 39.053v3.763h-1.216v-2.496c0-0.166-0.115-0.294-0.243-0.294-0.141 0-0.256 0.128-0.256 0.294v2.496h-4.403v-2.496c0-0.166-0.115-0.294-0.243-0.294-0.141 0-0.256 0.128-0.256 0.294v2.496h-1.216v-3.763c0-0.96 0.806-1.741 1.779-1.741h4.275c0.973 0 1.779 0.781 1.779 1.741z"></path>
<path fill="#28aae1" style="fill: var(--color2, #28aae1)" d="M20.224 34.829c0 0.96-0.781 1.741-1.741 1.741s-1.741-0.781-1.741-1.741c0-0.96 0.781-1.741 1.741-1.741s1.741 0.781 1.741 1.741z"></path>
<path fill="#28aae1" style="fill: var(--color2, #28aae1)" d="M33.024 39.053v3.763h-1.216v-2.496c0-0.166-0.115-0.294-0.256-0.294s-0.243 0.128-0.243 0.294v2.496h-4.403v-2.496c0-0.166-0.115-0.294-0.256-0.294s-0.243 0.128-0.243 0.294v2.496h-1.216v-3.763c0-0.96 0.806-1.741 1.766-1.741h4.275c0.973 0 1.792 0.781 1.792 1.741z"></path>
<path fill="#28aae1" style="fill: var(--color2, #28aae1)" d="M30.848 34.829c0 0.96-0.781 1.741-1.741 1.741s-1.741-0.781-1.741-1.741c0-0.96 0.781-1.741 1.741-1.741s1.741 0.781 1.741 1.741z"></path>
<path fill="#28aae1" style="fill: var(--color2, #28aae1)" d="M43.648 39.053v3.763h-1.216v-2.496c0-0.166-0.115-0.294-0.243-0.294-0.141 0-0.256 0.128-0.256 0.294v2.496h-4.403v-2.496c0-0.166-0.115-0.294-0.243-0.294-0.141 0-0.256 0.128-0.256 0.294v2.496h-1.216v-3.763c0-0.96 0.806-1.741 1.779-1.741h4.275c0.973 0 1.779 0.781 1.779 1.741z"></path>
<path fill="#28aae1" style="fill: var(--color2, #28aae1)" d="M41.485 34.829c0 0.96-0.781 1.741-1.741 1.741s-1.741-0.781-1.741-1.741c0-0.96 0.781-1.741 1.741-1.741s1.741 0.781 1.741 1.741z"></path>
<path fill="#28aae1" style="fill: var(--color2, #28aae1)" d="M13.107 43.43h32v0.691h-32v-0.691z"></path>
</symbol>
<symbol id="icon-bl-icon-4" viewBox="0 0 64 64">
<path fill="#4d4e4e" style="fill: var(--color1, #4d4e4e)" d="M31.68 16.794h5.312v-0.55h-5.312v0.55zM43.059 16.243h-1.92v0.55h1.92c0.742 0 1.344 0.602 1.344 1.344v9.958c0.179 0.051 0.371 0.115 0.55 0.179v-10.138c0-1.050-0.858-1.894-1.894-1.894zM16.038 38.899c-0.742 0-1.344-0.602-1.344-1.344v-19.418c0-0.742 0.602-1.344 1.344-1.344h2.048v-0.55h-2.048c-1.050 0-1.894 0.845-1.894 1.894v19.418c0 1.050 0.858 1.894 1.894 1.894h18.394c-0.077-0.179-0.141-0.358-0.205-0.55h-18.189zM22.234 16.794h5.312v-0.55h-5.312v0.55z"></path>
<path fill="#4d4e4e" style="fill: var(--color1, #4d4e4e)" d="M17.664 21.056h4.403v2.586h-4.403v-2.586z"></path>
<path fill="#4d4e4e" style="fill: var(--color1, #4d4e4e)" d="M24.115 21.056h4.403v2.586h-4.403v-2.586z"></path>
<path fill="#4d4e4e" style="fill: var(--color1, #4d4e4e)" d="M30.579 21.056h4.403v2.586h-4.403v-2.586z"></path>
<path fill="#4d4e4e" style="fill: var(--color1, #4d4e4e)" d="M37.030 21.056h4.403v2.586h-4.403v-2.586z"></path>
<path fill="#4d4e4e" style="fill: var(--color1, #4d4e4e)" d="M17.664 25.421h4.403v2.586h-4.403v-2.586z"></path>
<path fill="#4d4e4e" style="fill: var(--color1, #4d4e4e)" d="M24.115 25.421h4.403v2.586h-4.403v-2.586z"></path>
<path fill="#28aae1" style="fill: var(--color2, #28aae1)" d="M31.078 25.92h3.392v1.574h-3.392v-1.574zM30.579 28.006h4.403v-2.586h-4.403v2.586z"></path>
<path fill="#4d4e4e" style="fill: var(--color1, #4d4e4e)" d="M41.434 25.421v2.406c-0.397 0.026-0.781 0.090-1.165 0.179h-3.238v-2.586h4.403z"></path>
<path fill="#4d4e4e" style="fill: var(--color1, #4d4e4e)" d="M17.664 29.773h4.403v2.586h-4.403v-2.586z"></path>
<path fill="#4d4e4e" style="fill: var(--color1, #4d4e4e)" d="M24.115 29.773h4.403v2.586h-4.403v-2.586z"></path>
<path fill="#4d4e4e" style="fill: var(--color1, #4d4e4e)" d="M34.97 29.773v2.061c-0.102 0.166-0.205 0.346-0.294 0.525h-4.109v-2.586h4.403z"></path>
<path fill="#28aae1" style="fill: var(--color2, #28aae1)" d="M18.163 34.688h3.392v1.587h-3.392v-1.587zM17.664 36.774h4.403v-2.586h-4.403v2.586z"></path>
<path fill="#4d4e4e" style="fill: var(--color1, #4d4e4e)" d="M24.115 34.189h4.403v2.586h-4.403v-2.586z"></path>
<path fill="#4d4e4e" style="fill: var(--color1, #4d4e4e)" d="M33.766 36.173c0 0.205 0.013 0.41 0.026 0.602h-3.213v-2.586h3.43c-0.154 0.627-0.243 1.293-0.243 1.984z"></path>
<path fill="#4d4e4e" style="fill: var(--color1, #4d4e4e)" d="M44.672 18.138v0.73h-30.246v-0.73c0-0.896 0.73-1.626 1.626-1.626h2.048v0.269c0.013 0.73 0.614 1.318 1.344 1.318h1.459c0.73 0 1.331-0.589 1.344-1.318v-0.269h5.312v0.269c0.013 0.73 0.614 1.318 1.344 1.318h1.459c0.73 0 1.331-0.589 1.344-1.318v-0.269h5.312v0.269c0.013 0.73 0.614 1.318 1.344 1.318h1.459c0.73 0 1.331-0.589 1.344-1.318v-0.269h1.92c0.87 0 1.587 0.73 1.587 1.626z"></path>
<path fill="#28aae1" style="fill: var(--color2, #28aae1)" d="M20.89 17.587h-1.459c-0.448 0-0.819-0.358-0.819-0.819v-1.382c0-0.448 0.358-0.819 0.819-0.819h1.459c0.448 0 0.819 0.358 0.819 0.819v1.382c-0.013 0.448-0.371 0.819-0.819 0.819z"></path>
<path fill="#28aae1" style="fill: var(--color2, #28aae1)" d="M39.795 17.587h-1.459c-0.448 0-0.819-0.358-0.819-0.819v-1.382c0-0.448 0.358-0.819 0.819-0.819h1.459c0.448 0 0.819 0.358 0.819 0.819v1.382c0 0.448-0.358 0.819-0.819 0.819z"></path>
<path fill="#28aae1" style="fill: var(--color2, #28aae1)" d="M30.349 17.587h-1.459c-0.448 0-0.819-0.358-0.819-0.819v-1.382c0-0.448 0.358-0.819 0.819-0.819h1.459c0.448 0 0.819 0.358 0.819 0.819v1.382c-0.013 0.448-0.371 0.819-0.819 0.819z"></path>
<path fill="#28aae1" style="fill: var(--color2, #28aae1)" d="M42.15 28.646c-4.147 0-7.514 3.366-7.514 7.514s3.366 7.514 7.514 7.514c4.147 0 7.514-3.366 7.514-7.514s-3.366-7.514-7.514-7.514zM42.15 43.021c-3.776 0-6.848-3.059-6.848-6.848 0-3.776 3.059-6.848 6.848-6.848 3.776 0 6.848 3.059 6.848 6.848-0.013 3.776-3.072 6.848-6.848 6.848z"></path>
<path fill="#28aae1" style="fill: var(--color2, #28aae1)" d="M42.138 30.912c-0.294-0.013-0.525-0.256-0.512-0.55s0.243-0.512 0.538-0.512c0.154 0 0.294 0.064 0.384 0.166 0.102 0.102 0.154 0.243 0.141 0.384-0.013 0.294-0.243 0.512-0.538 0.512h-0.013z"></path>
<path fill="#28aae1" style="fill: var(--color2, #28aae1)" d="M42.509 30.387c0 0.192-0.166 0.346-0.358 0.346s-0.346-0.166-0.346-0.358c0-0.192 0.166-0.346 0.358-0.346s0.346 0.166 0.346 0.358z"></path>
<path fill="#28aae1" style="fill: var(--color2, #28aae1)" d="M39.245 31.539c-0.141 0-0.269-0.090-0.333-0.205-0.051-0.090-0.064-0.205-0.026-0.307 0.026-0.102 0.102-0.179 0.192-0.23 0.064-0.026 0.128-0.051 0.192-0.051 0.154 0 0.282 0.090 0.346 0.205 0.051 0.090 0.064 0.205 0.026 0.307-0.026 0.102-0.102 0.179-0.192 0.23-0.064 0.038-0.128 0.051-0.205 0.051v0z"></path>
<path fill="#28aae1" style="fill: var(--color2, #28aae1)" d="M39.245 31.36c-0.077 0-0.154-0.051-0.179-0.115-0.051-0.102-0.013-0.23 0.090-0.294 0.038-0.013 0.077-0.026 0.102-0.026 0.077 0 0.154 0.051 0.179 0.115 0.026 0.051 0.038 0.115 0.013 0.166-0.013 0.051-0.051 0.102-0.102 0.128-0.026 0.026-0.064 0.026-0.102 0.026z"></path>
<path fill="#28aae1" style="fill: var(--color2, #28aae1)" d="M37.12 33.664c-0.064 0-0.141-0.026-0.192-0.064-0.090-0.051-0.154-0.141-0.179-0.243s-0.013-0.205 0.051-0.294c0.077-0.115 0.205-0.192 0.333-0.192 0.077 0 0.154 0.026 0.205 0.064 0.090 0.051 0.154 0.141 0.179 0.243s0.013 0.205-0.051 0.294c-0.077 0.115-0.205 0.192-0.346 0.192v0z"></path>
<path fill="#28aae1" style="fill: var(--color2, #28aae1)" d="M37.12 33.485c-0.038 0-0.077-0.013-0.102-0.038-0.102-0.064-0.128-0.192-0.077-0.294 0.038-0.064 0.115-0.102 0.192-0.102 0.038 0 0.077 0.013 0.102 0.038 0.102 0.064 0.128 0.192 0.077 0.294-0.038 0.064-0.115 0.102-0.192 0.102z"></path>
<path fill="#28aae1" style="fill: var(--color2, #28aae1)" d="M36.339 36.698c-0.141 0-0.269-0.064-0.371-0.166s-0.154-0.243-0.141-0.384c0.013-0.294 0.243-0.512 0.538-0.512 0.307 0.013 0.538 0.256 0.538 0.55-0.013 0.294-0.243 0.512-0.538 0.512h-0.026z"></path>
<path fill="#28aae1" style="fill: var(--color2, #28aae1)" d="M36.365 35.814c0.192 0 0.346 0.166 0.346 0.358s-0.166 0.346-0.358 0.346c-0.192 0-0.346-0.166-0.346-0.358 0-0.205 0.154-0.358 0.358-0.346z"></path>
<path fill="#28aae1" style="fill: var(--color2, #28aae1)" d="M37.12 39.462c-0.141 0-0.269-0.077-0.333-0.205-0.102-0.192-0.026-0.435 0.166-0.538 0.051-0.026 0.128-0.051 0.192-0.051 0.154 0 0.282 0.090 0.346 0.205 0.102 0.192 0.026 0.435-0.166 0.538-0.064 0.026-0.128 0.051-0.205 0.051v0z"></path>
<path fill="#28aae1" style="fill: var(--color2, #28aae1)" d="M37.12 39.283c-0.077 0-0.154-0.051-0.179-0.115-0.051-0.102-0.013-0.23 0.090-0.294 0.038-0.013 0.077-0.026 0.102-0.026 0.077 0 0.154 0.051 0.179 0.115 0.051 0.102 0.013 0.23-0.090 0.294-0.026 0.013-0.064 0.026-0.102 0.026z"></path>
<path fill="#28aae1" style="fill: var(--color2, #28aae1)" d="M39.232 41.574c-0.064 0-0.141-0.026-0.192-0.064-0.090-0.051-0.154-0.141-0.179-0.243s-0.013-0.205 0.051-0.294c0.077-0.115 0.205-0.192 0.333-0.192 0.077 0 0.154 0.026 0.205 0.064 0.090 0.051 0.154 0.141 0.179 0.243s0.013 0.205-0.051 0.294c-0.064 0.128-0.192 0.192-0.346 0.192v0z"></path>
<path fill="#28aae1" style="fill: var(--color2, #28aae1)" d="M39.232 41.395c-0.038 0-0.077-0.013-0.102-0.038-0.102-0.064-0.128-0.192-0.077-0.294 0.038-0.064 0.115-0.102 0.192-0.102 0.038 0 0.077 0.013 0.102 0.038 0.102 0.064 0.128 0.192 0.077 0.294-0.038 0.077-0.115 0.115-0.192 0.102z"></path>
<path fill="#28aae1" style="fill: var(--color2, #28aae1)" d="M42.125 42.496c-0.294-0.013-0.525-0.256-0.512-0.55s0.243-0.512 0.538-0.512c0.307 0.013 0.538 0.256 0.538 0.55-0.013 0.294-0.243 0.512-0.538 0.512h-0.026z"></path>
<path fill="#28aae1" style="fill: var(--color2, #28aae1)" d="M41.792 41.958c0-0.192 0.166-0.346 0.358-0.346s0.346 0.166 0.346 0.358c0 0.192-0.166 0.346-0.358 0.346-0.205 0-0.358-0.166-0.346-0.358z"></path>
<path fill="#28aae1" style="fill: var(--color2, #28aae1)" d="M45.030 41.587c-0.141 0-0.269-0.090-0.333-0.205-0.051-0.090-0.064-0.205-0.026-0.307 0.026-0.102 0.102-0.179 0.192-0.23 0.064-0.026 0.128-0.051 0.192-0.051 0.154 0 0.282 0.090 0.346 0.205 0.102 0.192 0.026 0.435-0.154 0.538-0.064 0.026-0.128 0.051-0.192 0.051h-0.026z"></path>
<path fill="#28aae1" style="fill: var(--color2, #28aae1)" d="M45.030 41.408c-0.077 0-0.154-0.051-0.179-0.115-0.051-0.102-0.013-0.23 0.090-0.294 0.038-0.013 0.077-0.026 0.102-0.026 0.077 0 0.154 0.051 0.179 0.115 0.051 0.102 0.013 0.23-0.090 0.294-0.026 0.013-0.064 0.026-0.102 0.026z"></path>
<path fill="#28aae1" style="fill: var(--color2, #28aae1)" d="M47.155 39.462c-0.064 0-0.141-0.026-0.192-0.064-0.090-0.051-0.154-0.141-0.179-0.243s-0.013-0.205 0.051-0.294c0.077-0.115 0.205-0.192 0.333-0.192 0.077 0 0.154 0.026 0.205 0.064 0.090 0.051 0.154 0.141 0.179 0.243s0.013 0.205-0.051 0.294c-0.077 0.128-0.205 0.192-0.346 0.192v0z"></path>
<path fill="#28aae1" style="fill: var(--color2, #28aae1)" d="M47.155 39.283c-0.038 0-0.077-0.013-0.102-0.038-0.051-0.026-0.090-0.077-0.102-0.128s0-0.115 0.026-0.166c0.038-0.064 0.115-0.102 0.192-0.102 0.038 0 0.077 0.013 0.102 0.038 0.051 0.026 0.090 0.077 0.102 0.128s0 0.115-0.026 0.166c-0.038 0.064-0.115 0.102-0.192 0.102z"></path>
<path fill="#28aae1" style="fill: var(--color2, #28aae1)" d="M47.923 36.71c-0.294-0.013-0.525-0.256-0.512-0.55s0.243-0.512 0.538-0.512c0.307 0.013 0.538 0.256 0.538 0.55-0.013 0.294-0.243 0.525-0.538 0.525h-0.026z"></path>
<path fill="#28aae1" style="fill: var(--color2, #28aae1)" d="M47.936 36.531c-0.192 0-0.346-0.166-0.346-0.358s0.166-0.346 0.358-0.346c0.192 0 0.346 0.166 0.346 0.358s-0.166 0.346-0.358 0.346z"></path>
<path fill="#28aae1" style="fill: var(--color2, #28aae1)" d="M47.155 33.677c-0.141 0-0.269-0.090-0.333-0.205-0.102-0.192-0.026-0.435 0.166-0.538 0.051-0.026 0.128-0.051 0.192-0.051 0.154 0 0.282 0.090 0.346 0.205 0.051 0.090 0.064 0.205 0.026 0.307-0.026 0.102-0.102 0.179-0.192 0.23-0.064 0.026-0.128 0.051-0.205 0.051v0z"></path>
<path fill="#28aae1" style="fill: var(--color2, #28aae1)" d="M47.155 33.498c-0.077 0-0.154-0.051-0.179-0.115-0.051-0.102-0.013-0.23 0.090-0.294 0.038-0.013 0.077-0.026 0.102-0.026 0.077 0 0.154 0.051 0.179 0.115 0.051 0.102 0.013 0.23-0.090 0.294-0.026 0.013-0.064 0.026-0.102 0.026z"></path>
<path fill="#28aae1" style="fill: var(--color2, #28aae1)" d="M45.030 31.552c-0.077 0-0.141-0.026-0.192-0.064-0.090-0.051-0.154-0.141-0.179-0.243s-0.013-0.205 0.051-0.294c0.077-0.115 0.205-0.192 0.333-0.192 0.077 0 0.154 0.026 0.205 0.064 0.090 0.051 0.154 0.141 0.179 0.243s0.013 0.205-0.051 0.294c-0.064 0.115-0.192 0.192-0.346 0.192v0z"></path>
<path fill="#28aae1" style="fill: var(--color2, #28aae1)" d="M45.043 31.373c-0.038 0-0.077-0.013-0.102-0.038-0.051-0.026-0.090-0.077-0.102-0.128s0-0.115 0.026-0.166c0.038-0.064 0.115-0.102 0.192-0.102 0.038 0 0.077 0.013 0.102 0.038 0.051 0.026 0.090 0.077 0.102 0.128s0 0.115-0.026 0.166c-0.051 0.064-0.115 0.102-0.192 0.102z"></path>
<path fill="#28aae1" style="fill: var(--color2, #28aae1)" d="M41.83 36.774l-3.302 1.754 2.931-2.266c0.038 0.218 0.179 0.41 0.371 0.512z"></path>
<path fill="#28aae1" style="fill: var(--color2, #28aae1)" d="M42.342 35.52c-0.064-0.026-0.128-0.026-0.192-0.026-0.166 0-0.307 0.051-0.422 0.141l-0.448-4.493 1.062 4.378z"></path>
<path fill="#28aae1" style="fill: var(--color2, #28aae1)" d="M46.579 40.384l-4.032-3.661c0.077-0.051 0.128-0.115 0.179-0.192l3.853 3.853z"></path>
<path fill="#28aae1" style="fill: var(--color2, #28aae1)" d="M42.573 36.173c0 0.23-0.192 0.422-0.422 0.422s-0.422-0.192-0.422-0.422c0-0.23 0.192-0.422 0.422-0.422 0.23-0.013 0.422 0.179 0.422 0.422z"></path>
</symbol>
<symbol id="icon-ol-icon-1" viewBox="0 0 64 64">
<path fill="#4d4e4e" style="fill: var(--color1, #4d4e4e)" d="M31.859 26.432c2.458 0 4.454-1.997 4.454-4.454s-1.997-4.454-4.454-4.454c-2.458 0-4.454 1.997-4.454 4.454-0.013 2.458 1.984 4.454 4.454 4.454z"></path>
<path fill="#28aae1" style="fill: var(--color2, #28aae1)" d="M44.429 30.208l-0.051 0.026-4.301 2.317c-0.282 0.090-2.547 0.922-2.598 3.418 0 0.013 0 0.026 0 0.038v4.826h-11.251v-4.826c0-0.41-0.282-0.73-0.64-0.73s-0.64 0.333-0.64 0.73v4.826h-3.098v-8.051c0-2.458 2.074-4.467 4.531-4.467h10.931c0.051 0 0.090 0 0.141 0.013v0c0 0 0.026 0 0.051 0 0.128 0.013 0.243 0.013 0.358 0.026 0.781 0.064 2.458 0.154 2.995-0.038 0.013 0 0.026 0 0.038-0.013l1.856-0.998c0.23-0.154 0.346-0.422 0.282-0.691l-0.026-0.179-0.742-6.643c-0.102-0.922 0.563-1.741 1.472-1.843 0.922-0.102 1.741 0.563 1.856 1.472l0.73 6.566c0.32 1.677-0.422 3.354-1.894 4.224z"></path>
<path fill="#4d4e4e" style="fill: var(--color1, #4d4e4e)" d="M13.402 42.368h36.902v1.638h-36.902v-1.638z"></path>
</symbol>
<symbol id="icon-ol-icon-2" viewBox="0 0 64 64">
<path fill="#4d4e4e" style="fill: var(--color1, #4d4e4e)" d="M26.829 38.144v0.397h-1.165v8.781h-1.536v-7.808h-8.013v7.808h-1.536v-21.504h1.536v0.461h0.755v6.81h-0.755v3.93h5.632l5.030 0.755 0.051 0.371z"></path>
<path fill="#4d4e4e" style="fill: var(--color1, #4d4e4e)" d="M41.984 28.058h3.558v19.213h-3.558v-19.213z"></path>
<path fill="#4d4e4e" style="fill: var(--color1, #4d4e4e)" d="M32.768 45.85h16.896v1.408h-16.896v-1.408z"></path>
<path fill="#4d4e4e" style="fill: var(--color1, #4d4e4e)" d="M47.77 26.867v1.267h-20.966v-0.934c0.512 0.192 1.050 0.294 1.6 0.294 0.090 0 0.192 0 0.282-0.013l4.288-0.269c0.384-0.026 0.755-0.154 1.050-0.358h13.747z"></path>
<path fill="#4d4e4e" style="fill: var(--color1, #4d4e4e)" d="M32.346 28.058h9.805v2.33h-9.805v-2.33z"></path>
<path fill="#28aae1" style="fill: var(--color2, #28aae1)" d="M32.742 23.654l-4.288 0.269c-0.218 0.013-0.435-0.051-0.614-0.192l-2.714-2.086c-0.397-0.614-1.050-1.075-1.843-1.203l-0.73-0.115c-1.472-0.23-2.854 0.768-3.085 2.24l-1.664 10.496c-0.23 1.472 0.768 2.854 2.24 3.085l0.73 0.115c0.32 0.051 0.627 0.038 0.934-0.013l5.44 0.819c0.154 0.026 0.269 0.141 0.294 0.294l1.434 8.346c0.128 0.717 0.755 1.229 1.459 1.229 0.090 0 0.166-0.013 0.256-0.026 0.806-0.141 1.357-0.909 1.216-1.715l-1.434-8.346c-0.243-1.408-1.357-2.509-2.778-2.726l-3.661-0.55 1.318-8.282 0.87 0.666c0.653 0.499 1.459 0.768 2.278 0.768 0.077 0 0.154 0 0.23-0.013l4.288-0.269c0.781-0.051 1.37-0.717 1.318-1.498-0.051-0.742-0.717-1.331-1.498-1.293z"></path>
<path fill="#28aae1" style="fill: var(--color2, #28aae1)" d="M26.662 16.614c0 1.69-1.37 3.059-3.059 3.059s-3.059-1.37-3.059-3.059c0-1.69 1.37-3.059 3.059-3.059 1.677 0 3.059 1.37 3.059 3.059z"></path>
</symbol>
<symbol id="icon-ol-icon-3" viewBox="0 0 64 64">
<path fill="#4d4e4e" style="fill: var(--color1, #4d4e4e)" d="M30.746 21.389h-2.995c-0.32 0-0.576-0.256-0.576-0.576v-1.664c0-0.32 0.256-0.576 0.576-0.576h2.995c0.32 0 0.576 0.256 0.576 0.576v1.664c0 0.32-0.256 0.576-0.576 0.576zM27.75 19.098c-0.026 0-0.051 0.026-0.051 0.051v1.664c0 0.026 0.026 0.051 0.051 0.051h2.995c0.026 0 0.051-0.026 0.051-0.051v-1.664c0-0.026-0.026-0.051-0.051-0.051h-2.995z"></path>
<path fill="#4d4e4e" style="fill: var(--color1, #4d4e4e)" d="M36.045 21.389h-2.995c-0.32 0-0.576-0.256-0.576-0.576v-1.664c0-0.32 0.256-0.576 0.576-0.576h2.995c0.32 0 0.576 0.256 0.576 0.576v1.664c-0.013 0.32-0.269 0.576-0.576 0.576zM33.050 19.098c-0.026 0-0.051 0.026-0.051 0.051v1.664c0 0.026 0.026 0.051 0.051 0.051h2.995c0.026 0 0.051-0.026 0.051-0.051v-1.664c0-0.026-0.026-0.051-0.051-0.051h-2.995z"></path>
<path fill="#4d4e4e" style="fill: var(--color1, #4d4e4e)" d="M31.066 19.725h1.677v0.525h-1.677v-0.525z"></path>
<path fill="#4d4e4e" style="fill: var(--color1, #4d4e4e)" d="M27.277 20.186l-2.253-1.946 0.346-0.397 2.24 1.946-0.333 0.397z"></path>
<path fill="#4d4e4e" style="fill: var(--color1, #4d4e4e)" d="M36.518 20.186l-0.333-0.397 2.24-1.946 0.346 0.397-2.253 1.946z"></path>
<path fill="#4d4e4e" style="fill: var(--color1, #4d4e4e)" d="M27.981 26.906c0.038 0.102 0.205 0.486 0.422 0.845 0 0.026 0 0.051-0.013 0.090-0.013 0.090-0.026 0.166-0.051 0.256-0.038 0.141-0.090 0.294-0.154 0.435-0.192 0.422-0.525 0.845-0.986 1.254l-0.026 0.026-0.038 0.026-0.064 0.064c-0.051 0.038-0.090 0.077-0.128 0.102-0.346 0.282-0.768 0.563-1.242 0.845-0.102 0.064-0.205 0.115-0.307 0.179-0.077-0.192-0.166-0.384-0.294-0.55 0.090-0.051 0.192-0.102 0.282-0.166 0.448-0.256 0.845-0.538 1.19-0.806 0.026-0.013 0.051-0.038 0.090-0.064 0.026-0.026 0.051-0.051 0.090-0.077 0.013-0.013 0.038-0.026 0.051-0.051 0.486-0.435 0.832-0.896 0.947-1.37 0-0.013 0.013-0.038 0.013-0.051 0.013-0.038 0.013-0.077 0.013-0.115 0.013-0.064 0.013-0.128 0.013-0.192-0.013-0.064-0.102-0.525-0.102-0.525 0.077-0.090 0.154-0.154 0.243-0.23 0.013 0.013 0.013 0.026 0.013 0.038l0.038 0.038z"></path>
<path fill="#4d4e4e" style="fill: var(--color1, #4d4e4e)" d="M38.707 30.515c-0.141 0.154-0.256 0.333-0.333 0.525-0.128-0.064-0.243-0.128-0.358-0.192-0.474-0.282-0.87-0.55-1.216-0.819-0.013-0.013-0.026-0.026-0.038-0.026l-0.090-0.077c-0.013-0.013-0.038-0.026-0.064-0.051l-0.026-0.013c-0.486-0.435-0.845-0.87-1.037-1.306-0.064-0.154-0.128-0.294-0.154-0.448-0.026-0.090-0.038-0.179-0.051-0.256 0-0.026 0-0.038 0-0.064 0.179-0.282 0.32-0.589 0.41-0.781 0.192 0.051 0.307 0.090 0.307 0.090s0 0 0 0.013c-0.013 0.013-0.013 0.026-0.026 0.064 0 0.013 0 0.026-0.013 0.038-0.038 0.128-0.064 0.256-0.064 0.384v0.051c0 0.051 0 0.102 0.013 0.154v0c0 0.038 0.013 0.077 0.026 0.115 0 0.013 0.013 0.026 0.013 0.051 0.115 0.499 0.474 0.973 0.998 1.421 0.026 0.026 0.051 0.051 0.090 0.077 0.026 0.026 0.064 0.038 0.090 0.064 0.013 0.013 0.026 0.026 0.038 0.026 0.333 0.269 0.717 0.525 1.139 0.781 0.102 0.038 0.218 0.102 0.346 0.179z"></path>
<path fill="#28aae1" style="fill: var(--color2, #28aae1)" d="M46.17 33.754c0.077 0.026 0.154 0.064 0.23 0.102 0.064 0.026 0.128 0.064 0.218 0.102 0.064 0.038 0.141 0.077 0.205 0.102 0.026 0.013 0.051 0.026 0.077 0.051l0.038 0.026c0.026 0.013 0.038 0.026 0.064 0.038l0.166 0.115c0.090 0.090 0.128 0.141 0.141 0.166 0.179 0.358 0.794 1.638 0.96 2.611 0.051 0.294 0.077 0.474 0.090 0.602 0.038 0.346 0.064 0.397 0.307 0.845 0.192 0.358 0.218 0.73 0.23 1.242 0.013 0.256 0.026 0.563 0.064 0.909 0.038 0.294 0.077 0.678 0.128 1.101l0.038 0.41c0.064 0.602 0.128 1.178 0.179 1.6h0.627c-0.051-0.435-0.115-1.075-0.179-1.664l-0.038-0.41c-0.051-0.422-0.090-0.806-0.115-1.101-0.038-0.333-0.051-0.614-0.064-0.87-0.026-0.55-0.051-1.024-0.307-1.51-0.205-0.384-0.205-0.384-0.243-0.627-0.013-0.128-0.038-0.32-0.090-0.627-0.179-1.037-0.768-2.291-1.011-2.778-0.064-0.128-0.154-0.243-0.294-0.358-0.013-0.013-0.051-0.038-0.090-0.064l-0.038-0.026c-0.026-0.026-0.051-0.051-0.090-0.064-0.026-0.013-0.064-0.038-0.115-0.064-0.038-0.026-0.077-0.051-0.115-0.064-0.077-0.051-0.154-0.090-0.243-0.141-0.077-0.038-0.154-0.077-0.218-0.102-0.077-0.038-0.166-0.077-0.256-0.115l-0.102-0.051c-0.115-0.051-0.23-0.090-0.333-0.128l-0.307-0.128c-0.55-0.205-1.613-0.768-1.894-0.96-0.026-0.013-0.064-0.038-0.128-0.064l-0.051-0.026c-0.038-0.026-0.077-0.038-0.128-0.051l-0.154-0.064-0.038-0.013-0.179-0.064c-0.064-0.026-0.128-0.051-0.166-0.064l-0.051-0.026c-0.013 0-0.026-0.013-0.026-0.013l-0.218-0.090c-0.026-0.013-0.051-0.013-0.077-0.026l-0.614-0.23c-0.026-0.013-0.051-0.026-0.090-0.026l-0.589-0.23-0.051-0.026-0.614-0.243-0.038-0.013-0.64-0.307c-0.013-0.013-0.038-0.026-0.064-0.038s-0.064-0.026-0.102-0.051c-0.038-0.013-0.064-0.026-0.102-0.051-0.026-0.013-0.064-0.026-0.090-0.038-0.038-0.013-0.090-0.038-0.128-0.064-0.026-0.013-0.064-0.026-0.102-0.038 0 0-0.077-0.026-0.192-0.077-0.294-0.115-0.64 0.013-0.806 0.282l-0.013 0.013-0.026 0.051c0.141 0.051 0.282 0.102 0.422 0.154l0.064 0.026 0.102-0.294-0.064 0.307 0.269 0.102h0.013c0.064 0.026 0.141 0.051 0.218 0.090 0.013 0.013 0.038 0.013 0.064 0.026 0.013 0 0.026 0.013 0.038 0.013 0.051 0.026 0.102 0.051 0.166 0.077l0.141 0.077c0.090 0.051 0.166 0.090 0.243 0.128 0.026 0.013 0.051 0.026 0.051 0.026l0.192 0.090 0.115-0.282-0.064 0.307 0.051 0.026 0.128-0.282-0.064 0.307c0.026 0.013 0.051 0.026 0.064 0.026l0.794 0.307 0.128-0.282-0.077 0.307 0.064 0.026 0.115-0.294-0.064 0.307 0.243 0.090c0.038 0.013 0.064 0.026 0.102 0.038l0.691 0.256c0.013 0.013 0.038 0.013 0.051 0.026l0.486 0.179 0.154-0.269-0.090 0.307 0.090 0.038 0.141-0.282-0.090 0.294 0.064 0.026c0.038 0.013 0.064 0.026 0.102 0.038l0.051 0.026c0.026 0.013 0.038 0.026 0.051 0.026 0.307 0.205 1.408 0.794 2.010 1.024l0.307 0.102c0.102 0.038 0.205 0.090 0.32 0.141l0.064 0.064zM19.469 32.794c0.486-0.256 0.922-0.486 1.408-0.666l0.64-0.243c0.026-0.013 0.051-0.013 0.090-0.026l1.050-0.41c0.154-0.064 0.294-0.115 0.435-0.179l0.538-0.23-0.141-0.282 0.179 0.256 0.064-0.038c0.026-0.013 0.051-0.026 0.064-0.038l0.294-0.141-0.090-0.294 0.166 0.269 0.038-0.013c0.013 0 0.026-0.013 0.038-0.013 0.064-0.026 0.141-0.051 0.179-0.077l0.141-0.051 0.154-0.051-0.102-0.294 0.166 0.269 0.218-0.077c0.064-0.026 0.128-0.051 0.192-0.077l0.179-0.051v-0.013l-0.038-0.077c-0.166-0.282-0.499-0.41-0.806-0.294l-0.282 0.102-0.013 0.013c-0.090 0.038-0.179 0.064-0.269 0.115l-0.038 0.013-0.218 0.102c-0.038 0.013-0.064 0.038-0.090 0.051l-0.218 0.128-0.064 0.038-0.128 0.051-0.115 0.051c-0.026 0.013-0.064 0.026-0.077 0.026l-0.166 0.064c-0.128 0.051-0.269 0.115-0.422 0.179l-1.037 0.397c-0.038 0.013-0.077 0.026-0.102 0.038-0.026 0-0.051 0.013-0.077 0.026l-0.461 0.166-0.051 0.013-0.051 0.026c-0.525 0.192-0.986 0.448-1.472 0.704-0.41 0.23-0.87 0.422-1.306 0.602-0.486 0.192-0.986 0.41-1.459 0.678-0.038 0.026-0.090 0.051-0.128 0.077l-0.051 0.026c-0.051 0.038-0.102 0.077-0.154 0.102-0.026 0.013-0.051 0.038-0.051 0.038l-0.077 0.064c-0.141 0.128-0.23 0.23-0.294 0.358-0.23 0.448-0.781 1.613-0.986 2.624l-0.026 0.166c-0.051 0.294-0.077 0.486-0.090 0.627-0.026 0.243-0.026 0.243-0.243 0.627-0.256 0.486-0.282 0.96-0.307 1.51-0.013 0.256-0.026 0.538-0.064 0.858-0.051 0.397-0.115 0.973-0.166 1.562-0.064 0.576-0.128 1.203-0.179 1.613h0.627c0.051-0.41 0.102-0.973 0.166-1.549s0.115-1.152 0.166-1.549c0.038-0.346 0.051-0.64 0.064-0.909 0.026-0.512 0.038-0.883 0.23-1.242 0.243-0.448 0.269-0.499 0.307-0.845 0.013-0.128 0.038-0.307 0.090-0.589l0.026-0.141c0.192-0.96 0.768-2.138 0.934-2.47 0.013-0.026 0.051-0.090 0.128-0.154 0.013-0.013 0.026-0.026 0.064-0.051l0.051-0.038c0.038-0.026 0.090-0.064 0.166-0.115 0.038-0.013 0.064-0.038 0.102-0.051 0.448-0.256 0.896-0.448 1.395-0.653 0.448-0.192 0.922-0.397 1.357-0.64z"></path>
<path fill="#4d4e4e" style="fill: var(--color1, #4d4e4e)" d="M27.034 24.358l-1.626-1.638c-0.090-0.102-1.946-2.24-1.152-3.968 0.218-0.474 0.55-0.781 0.998-0.909l0.371-0.102 0.026 0.384c0.115 1.472 0.461 3.174 1.024 5.056l0.358 1.178zM25.075 18.624c-0.102 0.090-0.179 0.218-0.256 0.371-0.525 1.152 0.563 2.688 0.922 3.149-0.32-1.267-0.55-2.445-0.666-3.52z"></path>
<path fill="#4d4e4e" style="fill: var(--color1, #4d4e4e)" d="M36.685 24.41l0.358-1.19c0.576-1.92 0.922-3.635 1.050-5.133l0.026-0.371 0.358 0.090c0.461 0.115 0.819 0.435 1.050 0.922 0.794 1.741-1.062 3.866-1.139 3.955l-0.013 0.013-1.69 1.715zM38.669 18.586c-0.115 1.101-0.358 2.317-0.704 3.622 0.282-0.346 1.549-1.997 0.986-3.226-0.077-0.154-0.166-0.294-0.282-0.397z"></path>
<path fill="#4d4e4e" style="fill: var(--color1, #4d4e4e)" d="M31.872 10.061c-2.355 0-4.134 0.627-5.286 1.894-1.254 1.357-1.766 3.443-1.549 6.195 0.128 1.523 0.474 3.264 1.050 5.184 0.41 1.382 0.858 2.624 1.28 3.738l0.026 0.064c0.051 0.128 0.179 0.41 0.358 0.73 0.128 0.218 0.269 0.448 0.448 0.64 0.013 0.013 0.026 0.038 0.051 0.051 0.243 0.269 0.563 0.538 0.87 0.806 0.294 0.256 0.576 0.486 0.73 0.678 0.358 0.435 1.024 0.755 1.715 0.832 0.064 0.013 0.115 0.013 0.166 0.013s0.090 0 0.141 0c0.794 0 1.613-0.333 2.022-0.845 0.154-0.179 0.435-0.422 0.73-0.678 0.307-0.256 0.627-0.538 0.87-0.806 0.013-0.026 0.038-0.038 0.051-0.064 0.166-0.192 0.307-0.422 0.435-0.64 0.154-0.282 0.282-0.55 0.358-0.742l0.026-0.064c0.422-1.101 0.858-2.317 1.267-3.686 0.589-1.958 0.947-3.725 1.075-5.261 0.026-0.41 0.051-0.819 0.051-1.203 0-4.454-2.381-6.835-6.886-6.835zM38.093 18.086c-0.128 1.485-0.474 3.213-1.050 5.133-0.41 1.357-0.845 2.547-1.254 3.635l-0.026 0.051c-0.013 0.026-0.013 0.051-0.026 0.064-0.090 0.192-0.23 0.499-0.41 0.781-0.090 0.154-0.192 0.294-0.307 0.41-0.218 0.243-0.525 0.499-0.819 0.755-0.307 0.269-0.614 0.525-0.806 0.755-0.256 0.307-0.87 0.627-1.549 0.627-0.038 0-0.064 0-0.115 0-0.038 0-0.090-0.013-0.128-0.013-0.602-0.064-1.088-0.346-1.306-0.614-0.179-0.218-0.486-0.486-0.794-0.755-0.294-0.256-0.602-0.512-0.819-0.755-0.102-0.128-0.205-0.269-0.307-0.41-0.218-0.358-0.384-0.742-0.422-0.845l-0.026-0.051c0-0.013-0.013-0.026-0.013-0.038-0.41-1.101-0.845-2.304-1.254-3.661-0.563-1.882-0.909-3.584-1.024-5.056-0.218-2.573 0.256-4.493 1.382-5.722 1.024-1.126 2.662-1.69 4.826-1.69 4.224 0 6.272 2.048 6.272 6.246 0.026 0.371 0 0.755-0.026 1.152z"></path>
<path fill="#4d4e4e" style="fill: var(--color1, #4d4e4e)" d="M26.637 15.603c-0.026-0.179-0.064-0.371-0.102-0.576-0.128-0.666-0.422-1.306-0.461-2.022 0-0.077 0-0.154 0-0.23-0.154 0.218-0.294 0.422-0.41 0.589-0.845 1.19-0.614 3.674-0.614 3.853s0.269 3.29 0.717 4.173c0.448 0.883 0.333-1.741 0.333-1.741-0.090-2.406 0.525-2.381 0.486-3.571 0.013-0.192 0.026-0.346 0.051-0.474z"></path>
<path fill="#4d4e4e" style="fill: var(--color1, #4d4e4e)" d="M37.018 15.603c0.026-0.179 0.064-0.371 0.102-0.576 0.128-0.666 0.422-1.306 0.461-2.022 0-0.077 0-0.154 0-0.23 0.154 0.218 0.294 0.422 0.41 0.589 0.845 1.19 0.614 3.674 0.614 3.853s-0.269 3.29-0.717 4.173c-0.448 0.883-0.333-1.741-0.333-1.741 0.090-2.406-0.525-2.381-0.499-3.571 0-0.192-0.013-0.346-0.038-0.474z"></path>
<path fill="#28aae1" style="fill: var(--color2, #28aae1)" d="M49.37 41.741c-0.051-0.41-0.090-0.806-0.128-1.101-0.128-1.037 0-1.638-0.346-2.266s-0.192-0.358-0.371-1.344c-0.179-0.986-0.768-2.214-1.011-2.701-0.051-0.090-0.128-0.179-0.23-0.256 0.013-0.026 0.013-0.051 0.013-0.051-0.013-0.013-0.026-0.026-0.051-0.026-0.026-0.026-0.051-0.038-0.090-0.064-0.026-0.026-0.064-0.051-0.102-0.064-0.026-0.026-0.064-0.038-0.102-0.064-0.205-0.115-0.448-0.23-0.678-0.333-0.038-0.013-0.064-0.026-0.102-0.051-0.115-0.051-0.23-0.090-0.333-0.128-0.115-0.051-0.218-0.077-0.307-0.115-0.576-0.218-1.651-0.794-1.946-0.986-0.026-0.013-0.051-0.026-0.090-0.038-0.013-0.013-0.038-0.013-0.051-0.026-0.038-0.026-0.090-0.038-0.128-0.064-0.013 0-0.013 0-0.026-0.013h-0.013c-0.013-0.013-0.026-0.013-0.038-0.013-0.013-0.013-0.026-0.013-0.051-0.013-0.013-0.013-0.013-0.013-0.026-0.013s-0.013-0.013-0.026-0.013h-0.013c-0.013 0-0.026-0.013-0.038-0.013v0c-0.026-0.013-0.064-0.026-0.102-0.038 0-0.013 0-0.013 0-0.013-0.013 0-0.013 0-0.013 0-0.064-0.026-0.128-0.051-0.179-0.064-0.013-0.013-0.013-0.013-0.026-0.013s-0.026-0.013-0.051-0.013-0.077-0.026-0.115-0.051c0 0-0.013 0-0.013 0-0.026-0.013-0.051-0.013-0.077-0.026 0 0-0.013 0-0.013-0.013-0.013 0-0.038-0.013-0.051-0.013-0.026-0.013-0.051-0.026-0.090-0.026-0.013-0.013-0.038-0.013-0.051-0.026-0.026-0.013-0.051-0.026-0.077-0.026-0.026-0.013-0.051-0.013-0.064-0.026-0.051-0.013-0.102-0.038-0.154-0.051-0.051-0.026-0.102-0.038-0.154-0.064-0.013 0-0.013-0.013-0.026-0.013-0.038-0.013-0.064-0.026-0.102-0.038-0.013 0-0.013-0.013-0.026-0.013-0.090-0.038-0.179-0.064-0.269-0.102-0.013-0.013-0.026-0.013-0.038-0.013s-0.026-0.013-0.038-0.013c-0.013 0-0.013-0.013-0.026-0.013-0.013-0.013-0.013-0.013-0.026-0.013l-0.179-0.064c-0.013 0-0.026-0.013-0.038-0.013-0.026-0.013-0.051-0.013-0.077-0.026-0.038-0.013-0.064-0.026-0.102-0.038-0.026-0.013-0.064-0.026-0.090-0.038-0.038-0.013-0.090-0.026-0.128-0.051-0.064-0.026-0.115-0.051-0.166-0.077-0.026-0.013-0.038-0.013-0.064-0.026s-0.038-0.013-0.064-0.026c-0.026-0.013-0.038-0.013-0.064-0.026-0.013-0.013-0.026-0.013-0.051-0.026 0 0-0.013 0-0.013-0.013-0.038-0.013-0.064-0.026-0.102-0.051-0.013-0.013-0.038-0.013-0.051-0.026s-0.026-0.026-0.051-0.026c-0.282-0.141-0.563-0.307-0.87-0.422-0.026-0.013-0.051-0.013-0.077-0.026-0.013 0-0.013 0-0.013 0-0.013-0.013-0.026-0.013-0.051-0.026s-0.051-0.026-0.090-0.026c-0.013 0-0.013-0.013-0.026-0.013 0 0 0 0 0 0-0.013-0.013-0.026-0.013-0.051-0.026-0.013 0-0.013 0-0.026-0.013-0.013 0-0.026 0-0.026-0.013 0 0 0 0 0 0-0.013 0-0.026-0.013-0.038-0.013s-0.013 0-0.026 0c0 0 0 0 0 0-0.013-0.013-0.038-0.013-0.051-0.013-0.051-0.026-0.102-0.038-0.154-0.064-0.051-0.013 0.026 0.013-0.026-0.013l-0.23 0.179-0.026 0.051-0.282 0.486-6.157 10.445-0.371-0.627-6.106-10.355-0.243-0.243c-0.038 0.013-0.013-0.013-0.051 0-0.064 0.026-0.141 0.051-0.205 0.077s-0.141 0.051-0.218 0.077c-0.013 0-0.013 0.013-0.026 0.013s-0.026 0.013-0.038 0.013c-0.013 0-0.038 0.013-0.051 0.013 0 0 0 0 0 0-0.064 0.026-0.128 0.051-0.179 0.064-0.038 0.013-0.077 0.026-0.102 0.051-0.077 0.026-0.154 0.051-0.218 0.090-0.013 0.013-0.013 0.013-0.026 0.013s-0.026 0.013-0.026 0.013-0.026 0.013-0.026 0.013-0.013 0-0.026 0.013-0.013 0.013-0.026 0.013c-0.013 0.013-0.038 0.026-0.064 0.026-0.038 0.013-0.064 0.026-0.102 0.051-0.013 0-0.013 0.013-0.026 0.013 0 0-0.013 0-0.013 0.013-0.013 0.013-0.026 0.013-0.051 0.026-0.013 0.013-0.026 0.013-0.051 0.026-0.013 0.013-0.026 0.013-0.026 0.013-0.026 0.013-0.038 0.026-0.064 0.038-0.013 0.013-0.026 0.013-0.051 0.026-0.013 0.013-0.013 0.013-0.026 0.013-0.038 0.013-0.064 0.038-0.115 0.051 0 0 0 0-0.013 0 0 0-0.013 0-0.013 0s0 0-0.013 0c-0.026 0.013-0.051 0.026-0.077 0.038-0.013 0.013-0.026 0.013-0.038 0.013-0.013 0.013-0.038 0.013-0.064 0.026-0.179 0.077-0.371 0.154-0.589 0.23-0.038 0.013-0.064 0.026-0.102 0.038s-0.090 0.038-0.128 0.051c-0.013 0-0.026 0.013-0.026 0.013-0.013 0-0.026 0.013-0.038 0.013s-0.013 0.013-0.026 0.013c-0.064 0.026-0.128 0.051-0.192 0.077-0.013 0-0.026 0.013-0.026 0.013-0.064 0.026-0.128 0.051-0.192 0.077-0.013 0-0.026 0.013-0.038 0.013-0.013 0.013-0.026 0.013-0.051 0.013-0.026 0.013-0.051 0.026-0.077 0.026-0.013 0-0.038 0.013-0.051 0.026-0.013 0-0.013 0.013-0.026 0.013-0.026 0.013-0.051 0.013-0.077 0.026s-0.064 0.026-0.090 0.038c-0.115 0.038-0.218 0.077-0.32 0.115-0.077 0.026-0.141 0.051-0.218 0.077-0.038 0.013-0.064 0.026-0.102 0.038-0.026 0.013-0.038 0.013-0.064 0.026-0.013 0-0.038 0.013-0.051 0.013-0.013 0.013-0.038 0.013-0.051 0.026-0.038 0.013-0.090 0.026-0.128 0.051-0.013 0-0.013 0-0.026 0.013-0.064 0.026-0.128 0.051-0.179 0.064-0.013 0.013-0.013 0.013-0.026 0.013 0 0-0.013 0.013-0.013 0.013s-0.013 0-0.013 0.013c-0.013 0-0.038 0.013-0.051 0.026-0.013 0-0.013 0.013-0.026 0.013s-0.013 0-0.013 0c-0.013 0.013-0.013 0.013-0.026 0.013-0.013 0.013-0.026 0.013-0.051 0.026 0 0-0.013 0.013-0.026 0.013 0 0-0.013 0.013-0.013 0.013 0 0.013-0.013 0.013-0.013 0.013-0.013 0-0.013 0.013-0.026 0.013 0 0.013-0.013 0.013-0.013 0.013s-0.013 0-0.013 0c-0.013 0.013-0.026 0.013-0.026 0.013-0.294 0.192-1.37 0.768-1.958 0.986-0.166 0.064-0.41 0.154-0.653 0.256-0.038 0.013-0.090 0.038-0.128 0.051-0.051 0.013-0.090 0.038-0.128 0.064-0.026 0.013-0.051 0.026-0.064 0.026-0.013 0.013-0.038 0.013-0.064 0.026s-0.051 0.026-0.064 0.026c-0.026 0.013-0.038 0.013-0.064 0.026-0.077 0.038-0.166 0.090-0.23 0.128-0.038 0.026-0.077 0.051-0.115 0.064-0.064 0.038-0.128 0.090-0.179 0.128-0.026 0.013-0.038 0.026-0.051 0.038s-0.013 0.013-0.026 0.013c-0.013 0.013-0.026 0.026-0.038 0.038 0 0.013 0 0.026 0 0.064-0.064 0.064-0.128 0.128-0.166 0.192-0.23 0.461-0.781 1.587-0.986 2.547-0.013 0.051-0.013 0.102-0.026 0.154-0.179 0.986-0.026 0.73-0.371 1.344-0.346 0.627-0.218 1.229-0.346 2.266-0.102 0.806-0.243 2.317-0.346 3.136h6.323l0.218-2.688 0.218 2.688h22.4l0.218-2.688 0.218 2.688h6.080c-0.026-0.486-0.115-1.293-0.192-2.010zM31.872 43.187l-7.603-12.467c0.064-0.026 0.141-0.051 0.179-0.077l0.141-0.051 7.283 11.942 7.232-11.878h0.013c0.064 0.026 0.141 0.051 0.218 0.090 0.013 0.013 0.038 0.013 0.064 0.026 0.013 0 0.026 0.013 0.038 0.013l-7.565 12.403z"></path>
<path fill="#28aae1" style="fill: var(--color2, #28aae1)" d="M24.256 30.042l0.333 0.538-0.141 0.051c-0.051 0.026-0.115 0.051-0.179 0.077l-0.333-0.538 0.038-0.013c0.090-0.038 0.179-0.077 0.269-0.115h0.013z"></path>
<path fill="#28aae1" style="fill: var(--color2, #28aae1)" d="M39.757 30.259l-0.333 0.538c-0.013-0.013-0.026-0.013-0.038-0.013-0.026-0.013-0.038-0.026-0.064-0.026-0.077-0.038-0.154-0.064-0.218-0.090h-0.013l0.333-0.538c0.051 0.026 0.090 0.038 0.128 0.064 0.026 0.013 0.051 0.026 0.090 0.038 0.051 0 0.077 0.013 0.115 0.026z"></path>
<path fill="#4d4e4e" style="fill: var(--color1, #4d4e4e)" d="M33.395 32.55h-2.931l0.755-1.331h1.408l0.768 1.331z"></path>
<path fill="#4d4e4e" style="fill: var(--color1, #4d4e4e)" d="M32.538 33.088h-1.242l-1.050 4.16 1.626 2.778 1.613-2.778-0.947-4.16z"></path>
</symbol>
<symbol id="icon-ol-icon-4" viewBox="0 0 64 64">
<path fill="#4d4e4e" style="fill: var(--color1, #4d4e4e)" d="M39.642 25.894c0.256 0.845 0.538 1.549 0.678 1.92 0.026 0.051 0.026 0.115 0.038 0.166 0.115-0.128 0.218-0.192 0.218-0.192h2.97c0 0 0.064 0.038 0.141 0.115 0.013-0.026 0.013-0.064 0.026-0.090 0.141-0.384 0.435-1.126 0.704-2.010l0.307-0.307c0 0 0.794-0.896 0.474-1.587-0.090-0.179-0.205-0.282-0.333-0.32 0.013-0.115 0.013-0.23 0.013-0.333 0.243-0.243 0.154-1.216 0.038-1.626-0.256-0.845-0.73-1.139-1.485-1.562-0.666-0.371-1.165-0.141-1.434 0.077-0.038-0.090-0.115-0.166-0.23-0.218 0 0-3.354-0.154-2.842 2.867 0.051 0.32 0.115 0.576 0.179 0.794-0.128 0.038-0.256 0.141-0.333 0.32-0.307 0.691 0.474 1.587 0.474 1.587l0.397 0.397z"></path>
<path fill="#4d4e4e" style="fill: var(--color1, #4d4e4e)" d="M48.627 30.771c-0.499-0.32-3.418-1.062-4.531-2.010 0 0.013 0 0.026 0 0.038-0.013 0.64-0.243 2.445-0.243 2.445s-0.589-1.165-1.792-1.165v0c-1.229 0-1.805 1.165-1.805 1.165s-0.243-1.805-0.243-2.445c0-0.038 0.013-0.090 0.013-0.128-0.64 0.614-2.061 1.152-3.162 1.536 1.011 0.461 2.24 0.883 2.803 1.088 1.037 0.358 1.549 0.55 1.894 0.768 0.41 0.269 0.934 0.819 1.344 1.523h5.504c2.291 0 0.883-2.394 0.218-2.816z"></path>
<path fill="#4d4e4e" style="fill: var(--color1, #4d4e4e)" d="M40.32 27.827c0 0 0.525 1.792 1.677 1.792s1.702-1.792 1.702-1.792-2.65-0.806-3.379 0z"></path>
<path fill="#4d4e4e" style="fill: var(--color1, #4d4e4e)" d="M18.97 25.894c0.256 0.845 0.538 1.549 0.678 1.92 0.026 0.051 0.026 0.115 0.038 0.166 0.115-0.128 0.218-0.192 0.218-0.192h2.97c0 0 0.064 0.038 0.141 0.115 0.013-0.026 0.013-0.064 0.026-0.090 0.141-0.384 0.435-1.126 0.704-2.010l0.307-0.307c0 0 0.794-0.896 0.474-1.587-0.077-0.179-0.205-0.282-0.333-0.32 0.013-0.115 0.013-0.23 0.013-0.333 0.243-0.243 0.154-1.216 0.038-1.626-0.256-0.845-0.73-1.139-1.485-1.562-0.666-0.371-1.165-0.141-1.434 0.077-0.038-0.090-0.115-0.166-0.23-0.218 0 0-3.354-0.154-2.842 2.867 0.051 0.32 0.115 0.576 0.179 0.794-0.128 0.038-0.256 0.141-0.333 0.32-0.307 0.691 0.474 1.587 0.474 1.587l0.397 0.397z"></path>
<path fill="#4d4e4e" style="fill: var(--color1, #4d4e4e)" d="M23.437 28.762c0 0.013 0 0.026 0 0.038-0.013 0.64-0.243 2.445-0.243 2.445s-0.589-1.165-1.792-1.165v0c-1.229 0-1.805 1.165-1.805 1.165s-0.243-1.805-0.243-2.445c0-0.038 0.013-0.077 0.013-0.128-1.037 0.998-4.109 1.766-4.621 2.099-0.653 0.422-1.587 2.816 0.294 2.816h5.632c0.32-0.666 0.755-1.229 1.216-1.523 0.346-0.23 0.858-0.41 1.894-0.768 0.563-0.192 1.766-0.614 2.778-1.075-1.088-0.371-2.445-0.87-3.123-1.459z"></path>
<path fill="#4d4e4e" style="fill: var(--color1, #4d4e4e)" d="M19.648 27.827c0 0 0.525 1.792 1.677 1.792s1.702-1.792 1.702-1.792-2.65-0.806-3.379 0z"></path>
<path fill="#28aae1" style="fill: var(--color2, #28aae1)" d="M28.442 26.406c0.358 1.165 0.742 2.138 0.934 2.662 0.026 0.077 0.038 0.154 0.051 0.218 0.166-0.166 0.294-0.256 0.294-0.256h4.096c0 0 0.090 0.051 0.205 0.154 0.013-0.038 0.013-0.077 0.026-0.115 0.192-0.538 0.614-1.562 0.973-2.778l0.422-0.435c0 0 1.088-1.229 0.653-2.176-0.115-0.256-0.282-0.384-0.461-0.435 0.013-0.154 0.026-0.32 0.026-0.474 0.333-0.333 0.218-1.677 0.051-2.24-0.346-1.165-1.011-1.587-2.048-2.163-0.922-0.512-1.6-0.192-1.984 0.115-0.064-0.115-0.154-0.218-0.32-0.294 0 0-4.634-0.205-3.917 3.968 0.077 0.435 0.154 0.806 0.243 1.101-0.179 0.064-0.346 0.192-0.461 0.435-0.435 0.947 0.653 2.176 0.653 2.176l0.563 0.538z"></path>
<path fill="#28aae1" style="fill: var(--color2, #28aae1)" d="M40.858 33.152c-0.691-0.448-4.71-1.459-6.246-2.778 0 0.013 0 0.038 0 0.051-0.013 0.87-0.346 3.379-0.346 3.379s-0.819-1.6-2.47-1.613v0c-1.69 0-2.496 1.613-2.496 1.613s-0.333-2.496-0.346-3.379c0-0.051 0-0.102 0-0.154-1.434 1.37-5.658 2.432-6.374 2.893-0.909 0.589-2.202 3.891 0.41 3.891 0.384 0 8.73 0 8.73 0s6.592 0 8.819 0c3.162-0.013 1.216-3.315 0.32-3.904z"></path>
<path fill="#28aae1" style="fill: var(--color2, #28aae1)" d="M29.376 29.069c0 0 0.73 2.483 2.317 2.483s2.355-2.483 2.355-2.483-3.661-1.101-4.672 0z"></path>
</symbol>
<symbol id="icon-ol-icon-5" viewBox="0 0 64 64">
<path fill="#28aae1" style="fill: var(--color2, #28aae1)" d="M37.952 15.232c-0.986-0.589-1.997-0.73-2.65-0.384-1.011 0.538-1.651 0.474-1.651 0.474s-0.653 0.064-1.651-0.474c-0.653-0.346-1.664-0.205-2.65 0.384-2.214 1.331-2.803 6.080-0.346 8.883s3.2 1.664 4.646 1.664c1.446 0 2.189 1.126 4.646-1.664 2.458-2.803 1.869-7.552-0.346-8.883zM30.81 17.754c-0.435 0.806-1.203 1.229-1.728 0.947s-0.602-1.165-0.179-1.971c0.435-0.806 1.203-1.229 1.728-0.947 0.538 0.282 0.614 1.165 0.179 1.971z"></path>
<path fill="#28aae1" style="fill: var(--color2, #28aae1)" d="M33.114 14.592c0 0 0.154-1.306-1.408-2.189l0.32-0.358c0 0 1.638 0.806 1.933 2.65l-0.845-0.102z"></path>
<path fill="#28aae1" style="fill: var(--color2, #28aae1)" d="M34.291 13.696c0 0 0.794-2.253 2.778-3.29 0 0-2.253 2.688-2.778 3.29 2.688 1.651 3.213-3.674 3.213-3.674-4.198 0.371-3.213 3.674-3.213 3.674z"></path>
<path fill="#4d4e4e" style="fill: var(--color1, #4d4e4e)" d="M20.826 31.27h0.038c-0.192 0.576-0.486 0.934-0.806 0.934-0.602 0-1.088-1.242-1.088-2.765s0.486-2.765 1.088-2.765c0.32 0 0.614 0.358 0.806 0.934h-0.038c-0.294 0-0.538 0.243-0.538 0.538v2.586c0 0.294 0.243 0.538 0.538 0.538z"></path>
<path fill="#4d4e4e" style="fill: var(--color1, #4d4e4e)" d="M20.826 27.61h26.24c0.102-0.294 0.23-0.525 0.371-0.691v-0.243h-27.379v5.53h27.379v-0.243c-0.141-0.154-0.269-0.397-0.371-0.691h-26.24c-0.294 0-0.538-0.243-0.538-0.538v-2.586c0-0.294 0.243-0.538 0.538-0.538z"></path>
<path fill="#4d4e4e" style="fill: var(--color1, #4d4e4e)" d="M47.437 31.962c0.064 0.077 0.141 0.141 0.218 0.179-0.077 0.038-0.141 0.064-0.218 0.064-0.32 0-0.614-0.358-0.806-0.934-0.179-0.486-0.282-1.126-0.282-1.83s0.102-1.344 0.282-1.83c0.192-0.563 0.486-0.934 0.806-0.934 0.077 0 0.154 0.026 0.218 0.064-0.077 0.038-0.154 0.102-0.218 0.179-0.141 0.154-0.269 0.397-0.371 0.691-0.166 0.486-0.269 1.126-0.269 1.83s0.102 1.344 0.269 1.83c0.102 0.294 0.23 0.538 0.371 0.691z"></path>
<path fill="#4d4e4e" style="fill: var(--color1, #4d4e4e)" d="M21.952 28.224h23.386v0.269h-23.386v-0.269z"></path>
<path fill="#4d4e4e" style="fill: var(--color1, #4d4e4e)" d="M20.992 29.312h23.386v0.269h-23.386v-0.269z"></path>
<path fill="#4d4e4e" style="fill: var(--color1, #4d4e4e)" d="M22.451 30.221h23.386v0.269h-23.386v-0.269z"></path>
<path fill="#4d4e4e" style="fill: var(--color1, #4d4e4e)" d="M14.272 36.416h35.648v-3.341h-35.648v3.341zM49.638 35.776h-34.47c-0.141 0-0.256-0.115-0.256-0.256v-1.574c0-0.141 0.115-0.256 0.256-0.256h34.47v2.086z"></path>
<path fill="#4d4e4e" style="fill: var(--color1, #4d4e4e)" d="M14.822 34.739c0 0.742-0.243 1.677-0.55 1.677s-0.55-0.922-0.55-1.677c0-0.742 0.243-1.677 0.55-1.677 0.307 0.013 0.55 0.934 0.55 1.677z"></path>
<path fill="#4d4e4e" style="fill: var(--color1, #4d4e4e)" d="M47.142 40.986h-29.043c-0.192 0-0.358-0.166-0.358-0.358v-2.266c0-0.205 0.166-0.358 0.358-0.358h29.043c0.090-0.435 0.205-0.742 0.358-0.883 0.051-0.051 0.102-0.077 0.154-0.077h-30.874v4.902h30.861c-0.051 0-0.102-0.026-0.154-0.077-0.141-0.141-0.256-0.448-0.346-0.883z"></path>
<path fill="#4d4e4e" style="fill: var(--color1, #4d4e4e)" d="M17.651 39.488c0 1.357-0.384 2.445-0.87 2.445-0.474 0-0.87-1.101-0.87-2.445 0-1.357 0.384-2.445 0.87-2.445s0.87 1.101 0.87 2.445z"></path>
<path fill="#4d4e4e" style="fill: var(--color1, #4d4e4e)" d="M22.618 40.333l-1.126-1.037-1.126 1.037v-1.933h2.253v1.933z"></path>
</symbol>
<symbol id="icon-ol-icon-6" viewBox="0 0 64 64">
<path fill="#28aae1" style="fill: var(--color2, #28aae1)" d="M41.459 33.037l-4.25 4.352 9.498 4.954 2.701-5.171-7.949-4.134zM41.344 34.368l-0.346-0.179 0.307-0.589 0.346 0.179-0.307 0.589zM42.33 34.88l-0.346-0.179 0.307-0.589 0.346 0.179-0.307 0.589zM43.162 35.686l-0.346-0.179 0.461-0.883 0.346 0.179-0.461 0.883zM44.288 35.904l-0.346-0.179 0.307-0.589 0.346 0.179-0.307 0.589zM45.274 36.416l-0.346-0.179 0.307-0.589 0.346 0.179-0.307 0.589zM46.259 36.928l-0.346-0.179 0.307-0.589 0.358 0.179-0.32 0.589zM47.245 37.44l-0.346-0.179 0.307-0.589 0.358 0.179-0.32 0.589zM47.565 38.362l0.614-1.19 0.346 0.179-0.614 1.19-0.346-0.179zM13.926 25.229l18.47 9.651 4.25-4.352-20.032-10.458-2.688 5.158zM35.418 30.515l0.346 0.179-0.307 0.589-0.358-0.179 0.32-0.589zM34.432 30.016l0.346 0.179-0.307 0.589-0.346-0.179 0.307-0.589zM33.446 29.491l0.358 0.179-0.461 0.883-0.346-0.179 0.448-0.883zM32.461 28.979l0.346 0.179-0.307 0.589-0.346-0.179 0.307-0.589zM31.488 28.48l0.346 0.179-0.307 0.589-0.358-0.179 0.32-0.589zM30.502 27.955l0.346 0.179-0.307 0.589-0.346-0.179 0.307-0.589zM29.517 27.443l0.346 0.179-0.307 0.589-0.346-0.179 0.307-0.589zM28.531 26.944l0.346 0.179-0.614 1.19-0.358-0.179 0.627-1.19zM27.558 26.419l0.358 0.179-0.307 0.589-0.346-0.179 0.294-0.589zM26.573 25.907l0.346 0.179-0.307 0.589-0.346-0.179 0.307-0.589zM25.587 25.395l0.358 0.179-0.307 0.589-0.358-0.179 0.307-0.589zM24.602 24.883l0.346 0.179-0.307 0.589-0.346-0.179 0.307-0.589zM23.629 24.371l0.346 0.179-0.461 0.883-0.346-0.179 0.461-0.883zM22.643 23.859l0.346 0.179-0.307 0.589-0.358-0.179 0.32-0.589zM21.658 23.347l0.346 0.179-0.307 0.589-0.346-0.179 0.307-0.589zM20.685 22.835l0.346 0.179-0.307 0.589-0.346-0.179 0.307-0.589zM19.699 22.323l0.358 0.179-0.307 0.589-0.346-0.179 0.294-0.589zM18.714 21.811l0.346 0.179-0.614 1.19-0.346-0.179 0.614-1.19zM17.178 23.424c-0.051 0.32-0.358 0.55-0.678 0.499s-0.55-0.358-0.499-0.678c0.051-0.333 0.358-0.55 0.678-0.499 0.333 0.038 0.55 0.346 0.499 0.678z"></path>
<path fill="#4d4e4e" style="fill: var(--color1, #4d4e4e)" d="M29.99 39.002c0.32 0 0.538 0.064 0.614 0.179 0 0.038-0.026 0.128-0.038 0.179-0.064 0.282-0.154 0.704 0.102 1.011 0.192 0.23 0.512 0.346 0.986 0.346h0.064c0 0 0.026 0 0.064 0 0.026 0 0.077 0 0.128 0.013 0.154 0.026 0.192 0.102 0.205 0.128 0.038 0.064 0.077 0.218-0.038 0.55l-3.379 1.037c-0.026 0.013-0.051 0.013-0.064 0.013 0-0.013 0-0.038 0.013-0.064l0.947-3.379c0.102 0.013 0.243-0.013 0.397-0.013zM29.99 38.758c-0.32 0-0.602 0.064-0.602 0.064l-0.858 3.059-0.128 0.461c-0.064 0.218 0.038 0.371 0.218 0.371 0.038 0 0.090-0.013 0.141-0.026l0.461-0.141 3.034-0.934c0.333-0.832-0.026-1.062-0.294-1.114-0.064-0.013-0.128-0.013-0.179-0.013s-0.090 0-0.090 0c-0.013 0-0.026 0-0.038 0-1.446 0-0.704-1.152-0.819-1.395-0.128-0.256-0.499-0.333-0.845-0.333z"></path>
<path fill="#4d4e4e" style="fill: var(--color1, #4d4e4e)" d="M44.685 28.941l-2.944-2.854 1.050-1.075 2.931 2.867-1.037 1.062z"></path>
<path fill="#4d4e4e" style="fill: var(--color1, #4d4e4e)" d="M44.813 29.414l-1.19 1.216-3.558-3.43 1.203-1.242 3.546 3.456z"></path>
<path fill="#4d4e4e" style="fill: var(--color1, #4d4e4e)" d="M45.722 27.878c-0.064 0.077-0.781-0.512-1.6-1.306-0.806-0.794-1.408-1.485-1.344-1.562s1.101 0.218 1.92 1.011c0.819 0.794 1.101 1.779 1.024 1.856z"></path>
<path fill="#4d4e4e" style="fill: var(--color1, #4d4e4e)" d="M40.922 28.365l-9.997 10.317c-0.422-0.282-1.28-0.102-1.28-0.102l10.598-10.88 0.678 0.666z"></path>
<path fill="#4d4e4e" style="fill: var(--color1, #4d4e4e)" d="M42.112 29.53l-10.394 10.714c-0.96-0.077-0.717-0.781-0.64-1.165l10.125-10.432 0.909 0.883z"></path>
<path fill="#4d4e4e" style="fill: var(--color1, #4d4e4e)" d="M42.394 29.798l0.704 0.691-10.598 10.893c0.32-0.794 0.013-1.037-0.269-1.101l10.163-10.483z"></path>
<path fill="#4d4e4e" style="fill: var(--color1, #4d4e4e)" d="M28.749 41.459l-0.218 1.011 0.064 0.141 1.139-0.32-0.947-0.922-0.038 0.090z"></path>
</symbol>
<symbol id="icon-ol-icon-7" viewBox="0 0 64 64">
<path fill="#4d4e4e" style="fill: var(--color1, #4d4e4e)" d="M19.84 21.555h-2.752c-0.448 0-0.806 0.358-0.806 0.806v1.702c0 0.448 0.358 0.806 0.806 0.806h1.958c0.448 0 0.806 0.358 0.806 0.806v12.634c0 0.448 0.358 0.806 0.806 0.806h1.702c0.448 0 0.806-0.358 0.806-0.806v-15.949c0-0.448-0.358-0.806-0.806-0.806h-2.522z"></path>
<path fill="#28aae1" style="fill: var(--color2, #28aae1)" d="M36.173 25.638c0.448 0 0.806-0.358 0.806-0.806v-2.496h-0.038v-6.49c0-0.448-0.358-0.806-0.806-0.806h-7.59c-0.448 0-0.806 0.358-0.806 0.806v1.702c0 0.448 0.358 0.806 0.806 0.806h4.301c0.448 0 0.806 0.358 0.806 0.806v2.381c0 0.448-0.358 0.806-0.806 0.806h-4.301c-0.448 0-0.806 0.358-0.806 0.806v8.653c0 0.448 0.358 0.806 0.806 0.806h7.475c0.448 0 0.806-0.358 0.806-0.806v-1.728c0-0.448-0.358-0.806-0.806-0.806h-4.173c-0.448 0-0.806-0.358-0.806-0.806v-2.048c0-0.448 0.358-0.806 0.806-0.806h4.326z"></path>
<path fill="#4d4e4e" style="fill: var(--color1, #4d4e4e)" d="M44.57 27.034h-5.107c-0.448 0-0.806 0.358-0.806 0.806v1.702c0 0.448 0.358 0.806 0.806 0.806h4.301c0.448 0 0.806 0.358 0.806 0.806v2.381c0 0.448-0.358 0.806-0.806 0.806h-4.301c-0.448 0-0.806 0.358-0.806 0.806v1.702c0 0.448 0.358 0.806 0.806 0.806h4.301c0.448 0 0.806 0.358 0.806 0.806v2.048c0 0.448-0.358 0.806-0.806 0.806h-4.301c-0.448 0-0.806 0.358-0.806 0.806v1.651c0 0.448 0.358 0.806 0.806 0.806h7.59c0.448 0 0.806-0.358 0.806-0.794l0.013-7.795v-8.141c0-0.448-0.358-0.806-0.806-0.806h-2.496z"></path>
</symbol>
</defs>
</svg>
